G04 EAGLE Gerber RS-274X export*
G75*
%MOMM*%
%FSLAX34Y34*%
%LPD*%
%INTop Copper*%
%IPPOS*%
%AMOC8*
5,1,8,0,0,1.08239X$1,22.5*%
G01*
%ADD10R,1.200000X0.550000*%
%ADD11C,0.300000*%
%ADD12R,1.100000X1.000000*%
%ADD13R,1.000000X1.100000*%
%ADD14R,1.500000X0.250000*%
%ADD15R,0.250000X1.500000*%
%ADD16R,0.889000X0.812800*%
%ADD17R,1.500000X1.000000*%
%ADD18R,0.400000X1.850000*%
%ADD19R,6.000000X2.000000*%
%ADD20C,1.714500*%
%ADD21C,1.879600*%
%ADD22R,0.660400X2.032000*%
%ADD23C,1.000000*%
%ADD24C,0.685800*%
%ADD25C,0.254000*%
%ADD26C,0.406400*%
%ADD27C,0.304800*%

G36*
X76278Y141733D02*
X76278Y141733D01*
X76397Y141737D01*
X76436Y141748D01*
X76476Y141752D01*
X76588Y141792D01*
X76703Y141825D01*
X76738Y141846D01*
X76776Y141860D01*
X76874Y141926D01*
X76977Y141987D01*
X77022Y142027D01*
X77039Y142038D01*
X77052Y142053D01*
X77097Y142093D01*
X81182Y146178D01*
X106143Y146178D01*
X107501Y144820D01*
X107610Y144735D01*
X107717Y144646D01*
X107736Y144638D01*
X107752Y144625D01*
X107880Y144570D01*
X108005Y144511D01*
X108025Y144507D01*
X108044Y144499D01*
X108182Y144477D01*
X108318Y144451D01*
X108338Y144452D01*
X108358Y144449D01*
X108497Y144462D01*
X108635Y144471D01*
X108654Y144477D01*
X108674Y144479D01*
X108806Y144526D01*
X108937Y144569D01*
X108955Y144580D01*
X108974Y144587D01*
X109089Y144665D01*
X109206Y144739D01*
X109220Y144754D01*
X109237Y144765D01*
X109329Y144869D01*
X109424Y144971D01*
X109434Y144988D01*
X109447Y145004D01*
X109511Y145128D01*
X109578Y145249D01*
X109583Y145269D01*
X109592Y145287D01*
X109622Y145423D01*
X109657Y145557D01*
X109659Y145585D01*
X109662Y145597D01*
X109661Y145618D01*
X109667Y145718D01*
X109667Y162490D01*
X109661Y162540D01*
X109663Y162589D01*
X109647Y162667D01*
X109645Y162704D01*
X109637Y162728D01*
X109627Y162806D01*
X109609Y162852D01*
X109599Y162901D01*
X109551Y162999D01*
X109510Y163101D01*
X109481Y163141D01*
X109459Y163186D01*
X109388Y163270D01*
X109324Y163359D01*
X109285Y163390D01*
X109253Y163428D01*
X109163Y163491D01*
X109079Y163562D01*
X109034Y163583D01*
X108993Y163611D01*
X108890Y163650D01*
X108791Y163697D01*
X108742Y163706D01*
X108696Y163724D01*
X108586Y163736D01*
X108479Y163757D01*
X108429Y163754D01*
X108380Y163759D01*
X108271Y163744D01*
X108161Y163737D01*
X108114Y163722D01*
X108065Y163715D01*
X107912Y163663D01*
X105861Y162813D01*
X103689Y162813D01*
X101681Y163645D01*
X100725Y164601D01*
X100647Y164661D01*
X100575Y164729D01*
X100522Y164758D01*
X100474Y164795D01*
X100383Y164835D01*
X100297Y164883D01*
X100238Y164898D01*
X100182Y164922D01*
X100084Y164937D01*
X99989Y164962D01*
X99889Y164968D01*
X99868Y164972D01*
X99856Y164970D01*
X99828Y164972D01*
X90707Y164972D01*
X85597Y170082D01*
X85597Y182343D01*
X90507Y187253D01*
X108398Y187253D01*
X108516Y187268D01*
X108635Y187275D01*
X108673Y187288D01*
X108714Y187293D01*
X108824Y187336D01*
X108937Y187373D01*
X108972Y187395D01*
X109009Y187410D01*
X109105Y187479D01*
X109206Y187543D01*
X109234Y187573D01*
X109267Y187596D01*
X109343Y187688D01*
X109424Y187775D01*
X109444Y187810D01*
X109469Y187841D01*
X109520Y187949D01*
X109578Y188053D01*
X109588Y188093D01*
X109605Y188129D01*
X109627Y188246D01*
X109657Y188361D01*
X109661Y188421D01*
X109665Y188441D01*
X109663Y188462D01*
X109667Y188522D01*
X109667Y190799D01*
X109656Y190891D01*
X109654Y190983D01*
X109636Y191048D01*
X109627Y191115D01*
X109593Y191201D01*
X109569Y191290D01*
X109517Y191395D01*
X109510Y191410D01*
X109505Y191417D01*
X109497Y191434D01*
X109332Y191719D01*
X109159Y192366D01*
X109159Y192681D01*
X119200Y192681D01*
X129565Y192681D01*
X129584Y192653D01*
X129676Y192577D01*
X129763Y192496D01*
X129798Y192476D01*
X129829Y192451D01*
X129937Y192400D01*
X130041Y192342D01*
X130081Y192332D01*
X130117Y192315D01*
X130234Y192293D01*
X130349Y192263D01*
X130409Y192259D01*
X130429Y192255D01*
X130450Y192257D01*
X130510Y192253D01*
X135133Y192253D01*
X135251Y192268D01*
X135370Y192275D01*
X135408Y192288D01*
X135449Y192293D01*
X135559Y192336D01*
X135672Y192373D01*
X135707Y192395D01*
X135744Y192410D01*
X135840Y192479D01*
X135941Y192543D01*
X135969Y192573D01*
X136002Y192596D01*
X136078Y192688D01*
X136159Y192775D01*
X136179Y192810D01*
X136204Y192841D01*
X136255Y192949D01*
X136313Y193053D01*
X136323Y193093D01*
X136340Y193129D01*
X136362Y193246D01*
X136392Y193361D01*
X136396Y193421D01*
X136400Y193441D01*
X136398Y193462D01*
X136402Y193522D01*
X136402Y193816D01*
X137593Y195007D01*
X147320Y195007D01*
X147438Y195022D01*
X147557Y195029D01*
X147595Y195042D01*
X147636Y195047D01*
X147746Y195090D01*
X147859Y195127D01*
X147894Y195149D01*
X147931Y195164D01*
X148027Y195233D01*
X148128Y195297D01*
X148156Y195327D01*
X148189Y195350D01*
X148265Y195442D01*
X148346Y195529D01*
X148366Y195564D01*
X148391Y195595D01*
X148442Y195703D01*
X148500Y195807D01*
X148510Y195847D01*
X148527Y195883D01*
X148549Y196000D01*
X148579Y196115D01*
X148583Y196175D01*
X148587Y196195D01*
X148585Y196216D01*
X148589Y196276D01*
X148589Y356870D01*
X148574Y356988D01*
X148567Y357107D01*
X148554Y357145D01*
X148549Y357186D01*
X148506Y357296D01*
X148469Y357409D01*
X148447Y357444D01*
X148432Y357481D01*
X148363Y357577D01*
X148299Y357678D01*
X148269Y357706D01*
X148246Y357739D01*
X148154Y357815D01*
X148067Y357896D01*
X148032Y357916D01*
X148001Y357941D01*
X147893Y357992D01*
X147789Y358050D01*
X147749Y358060D01*
X147713Y358077D01*
X147596Y358099D01*
X147481Y358129D01*
X147421Y358133D01*
X147401Y358137D01*
X147380Y358135D01*
X147320Y358139D01*
X5080Y358139D01*
X4962Y358124D01*
X4843Y358117D01*
X4805Y358104D01*
X4764Y358099D01*
X4654Y358056D01*
X4541Y358019D01*
X4506Y357997D01*
X4469Y357982D01*
X4373Y357913D01*
X4272Y357849D01*
X4244Y357819D01*
X4211Y357796D01*
X4135Y357704D01*
X4054Y357617D01*
X4034Y357582D01*
X4009Y357551D01*
X3958Y357443D01*
X3900Y357339D01*
X3890Y357299D01*
X3873Y357263D01*
X3851Y357146D01*
X3821Y357031D01*
X3817Y356971D01*
X3813Y356951D01*
X3815Y356930D01*
X3811Y356870D01*
X3811Y265546D01*
X3828Y265408D01*
X3841Y265269D01*
X3848Y265250D01*
X3851Y265230D01*
X3902Y265101D01*
X3949Y264970D01*
X3960Y264953D01*
X3968Y264935D01*
X4049Y264822D01*
X4127Y264707D01*
X4143Y264694D01*
X4154Y264677D01*
X4262Y264588D01*
X4366Y264496D01*
X4384Y264487D01*
X4399Y264474D01*
X4525Y264415D01*
X4649Y264352D01*
X4669Y264347D01*
X4687Y264339D01*
X4823Y264313D01*
X4959Y264282D01*
X4980Y264283D01*
X4999Y264279D01*
X5138Y264288D01*
X5277Y264292D01*
X5297Y264298D01*
X5317Y264299D01*
X5449Y264342D01*
X5583Y264380D01*
X5600Y264391D01*
X5619Y264397D01*
X5737Y264471D01*
X5857Y264542D01*
X5878Y264560D01*
X5888Y264567D01*
X5902Y264582D01*
X5977Y264648D01*
X8334Y267004D01*
X8352Y267028D01*
X8374Y267047D01*
X8449Y267153D01*
X8529Y267256D01*
X8540Y267283D01*
X8557Y267307D01*
X8603Y267428D01*
X8655Y267547D01*
X8659Y267577D01*
X8670Y267604D01*
X8684Y267733D01*
X8705Y267862D01*
X8702Y267891D01*
X8705Y267920D01*
X8687Y268049D01*
X8675Y268178D01*
X8665Y268206D01*
X8661Y268235D01*
X8609Y268388D01*
X7619Y270776D01*
X7619Y275324D01*
X9359Y279525D01*
X12575Y282741D01*
X16776Y284481D01*
X21324Y284481D01*
X25525Y282741D01*
X28741Y279525D01*
X30481Y275324D01*
X30481Y270776D01*
X28741Y266575D01*
X25525Y263359D01*
X21324Y261619D01*
X16776Y261619D01*
X14388Y262609D01*
X14359Y262616D01*
X14333Y262630D01*
X14206Y262658D01*
X14081Y262693D01*
X14051Y262693D01*
X14022Y262700D01*
X13893Y262696D01*
X13763Y262698D01*
X13734Y262691D01*
X13705Y262690D01*
X13580Y262654D01*
X13454Y262624D01*
X13427Y262610D01*
X13399Y262602D01*
X13288Y262536D01*
X13172Y262475D01*
X13151Y262455D01*
X13125Y262440D01*
X13004Y262334D01*
X8437Y257766D01*
X8376Y257688D01*
X8308Y257616D01*
X8279Y257563D01*
X8242Y257515D01*
X8203Y257424D01*
X8155Y257337D01*
X8140Y257279D01*
X8116Y257223D01*
X8100Y257125D01*
X8075Y257029D01*
X8069Y256929D01*
X8066Y256909D01*
X8067Y256897D01*
X8065Y256869D01*
X8065Y255895D01*
X8083Y255757D01*
X8096Y255619D01*
X8103Y255599D01*
X8105Y255579D01*
X8156Y255450D01*
X8203Y255319D01*
X8215Y255303D01*
X8222Y255284D01*
X8304Y255171D01*
X8382Y255056D01*
X8397Y255043D01*
X8409Y255026D01*
X8516Y254938D01*
X8620Y254846D01*
X8638Y254837D01*
X8654Y254824D01*
X8780Y254764D01*
X8904Y254701D01*
X8923Y254697D01*
X8942Y254688D01*
X9078Y254662D01*
X9214Y254631D01*
X9234Y254632D01*
X9254Y254628D01*
X9392Y254637D01*
X9532Y254641D01*
X9551Y254647D01*
X9571Y254648D01*
X9703Y254691D01*
X9837Y254730D01*
X9855Y254740D01*
X9874Y254746D01*
X9992Y254821D01*
X10111Y254891D01*
X10132Y254910D01*
X10143Y254916D01*
X10157Y254931D01*
X10232Y254997D01*
X12575Y257341D01*
X16776Y259081D01*
X21324Y259081D01*
X25525Y257341D01*
X28741Y254125D01*
X30481Y249924D01*
X30481Y245376D01*
X29491Y242988D01*
X29484Y242959D01*
X29470Y242933D01*
X29442Y242806D01*
X29407Y242681D01*
X29407Y242651D01*
X29400Y242622D01*
X29404Y242493D01*
X29402Y242363D01*
X29409Y242334D01*
X29410Y242305D01*
X29446Y242180D01*
X29476Y242054D01*
X29490Y242027D01*
X29498Y241999D01*
X29564Y241887D01*
X29625Y241772D01*
X29645Y241751D01*
X29660Y241725D01*
X29766Y241604D01*
X34896Y236474D01*
X37203Y234168D01*
X37203Y230552D01*
X37218Y230434D01*
X37225Y230315D01*
X37238Y230277D01*
X37243Y230236D01*
X37286Y230126D01*
X37323Y230013D01*
X37345Y229978D01*
X37360Y229941D01*
X37429Y229845D01*
X37493Y229744D01*
X37523Y229716D01*
X37546Y229683D01*
X37638Y229607D01*
X37725Y229526D01*
X37760Y229506D01*
X37791Y229481D01*
X37899Y229430D01*
X38003Y229372D01*
X38043Y229362D01*
X38079Y229345D01*
X38196Y229323D01*
X38311Y229293D01*
X38371Y229289D01*
X38391Y229285D01*
X38412Y229287D01*
X38472Y229283D01*
X40242Y229283D01*
X41433Y228092D01*
X41433Y216408D01*
X40044Y215019D01*
X39959Y214910D01*
X39870Y214803D01*
X39862Y214784D01*
X39849Y214768D01*
X39794Y214640D01*
X39735Y214515D01*
X39731Y214495D01*
X39723Y214476D01*
X39701Y214338D01*
X39675Y214202D01*
X39676Y214182D01*
X39673Y214162D01*
X39686Y214023D01*
X39695Y213885D01*
X39701Y213866D01*
X39703Y213846D01*
X39750Y213714D01*
X39793Y213583D01*
X39804Y213565D01*
X39810Y213546D01*
X39889Y213431D01*
X39963Y213314D01*
X39978Y213300D01*
X39989Y213283D01*
X40093Y213191D01*
X40195Y213096D01*
X40212Y213086D01*
X40227Y213073D01*
X40352Y213009D01*
X40473Y212942D01*
X40493Y212937D01*
X40511Y212928D01*
X40647Y212898D01*
X40781Y212863D01*
X40809Y212861D01*
X40821Y212858D01*
X40841Y212859D01*
X40942Y212853D01*
X44128Y212853D01*
X44246Y212868D01*
X44365Y212875D01*
X44403Y212888D01*
X44444Y212893D01*
X44554Y212936D01*
X44667Y212973D01*
X44702Y212995D01*
X44739Y213010D01*
X44835Y213079D01*
X44936Y213143D01*
X44964Y213173D01*
X44997Y213196D01*
X45073Y213288D01*
X45154Y213375D01*
X45174Y213410D01*
X45199Y213441D01*
X45250Y213549D01*
X45308Y213653D01*
X45318Y213693D01*
X45335Y213729D01*
X45357Y213846D01*
X45387Y213961D01*
X45391Y214021D01*
X45395Y214041D01*
X45393Y214062D01*
X45397Y214122D01*
X45397Y216165D01*
X45407Y216203D01*
X45413Y216303D01*
X45417Y216324D01*
X45415Y216336D01*
X45417Y216364D01*
X45417Y222792D01*
X46608Y223983D01*
X50549Y223983D01*
X50641Y223994D01*
X50733Y223996D01*
X50798Y224014D01*
X50865Y224023D01*
X50951Y224057D01*
X51040Y224081D01*
X51145Y224133D01*
X51160Y224140D01*
X51167Y224145D01*
X51184Y224153D01*
X51469Y224318D01*
X52116Y224491D01*
X52431Y224491D01*
X52431Y214450D01*
X52431Y204409D01*
X52116Y204409D01*
X51469Y204582D01*
X51184Y204747D01*
X51099Y204783D01*
X51018Y204828D01*
X50953Y204844D01*
X50891Y204870D01*
X50799Y204884D01*
X50710Y204907D01*
X50593Y204914D01*
X50576Y204917D01*
X50568Y204916D01*
X50549Y204917D01*
X46608Y204917D01*
X45650Y205876D01*
X45572Y205936D01*
X45499Y206004D01*
X45446Y206033D01*
X45399Y206070D01*
X45308Y206110D01*
X45221Y206158D01*
X45162Y206173D01*
X45107Y206197D01*
X45009Y206212D01*
X44913Y206237D01*
X44813Y206243D01*
X44793Y206247D01*
X44780Y206245D01*
X44752Y206247D01*
X38472Y206247D01*
X38354Y206232D01*
X38235Y206225D01*
X38197Y206212D01*
X38156Y206207D01*
X38046Y206164D01*
X37933Y206127D01*
X37898Y206105D01*
X37861Y206090D01*
X37765Y206021D01*
X37664Y205957D01*
X37636Y205927D01*
X37603Y205904D01*
X37527Y205812D01*
X37446Y205725D01*
X37426Y205690D01*
X37401Y205659D01*
X37350Y205551D01*
X37292Y205447D01*
X37282Y205407D01*
X37265Y205371D01*
X37243Y205254D01*
X37213Y205139D01*
X37209Y205079D01*
X37205Y205059D01*
X37207Y205038D01*
X37203Y204978D01*
X37203Y203502D01*
X37218Y203384D01*
X37225Y203265D01*
X37238Y203227D01*
X37243Y203186D01*
X37286Y203076D01*
X37323Y202963D01*
X37345Y202928D01*
X37360Y202891D01*
X37429Y202795D01*
X37493Y202694D01*
X37523Y202666D01*
X37546Y202633D01*
X37638Y202557D01*
X37725Y202476D01*
X37760Y202456D01*
X37791Y202431D01*
X37899Y202380D01*
X38003Y202322D01*
X38043Y202312D01*
X38079Y202295D01*
X38196Y202273D01*
X38311Y202243D01*
X38371Y202239D01*
X38391Y202235D01*
X38412Y202237D01*
X38472Y202233D01*
X41542Y202233D01*
X42733Y201042D01*
X42733Y198522D01*
X42748Y198404D01*
X42755Y198285D01*
X42768Y198247D01*
X42773Y198206D01*
X42816Y198096D01*
X42853Y197983D01*
X42875Y197948D01*
X42890Y197911D01*
X42959Y197815D01*
X43023Y197714D01*
X43053Y197686D01*
X43076Y197653D01*
X43168Y197577D01*
X43255Y197496D01*
X43290Y197476D01*
X43321Y197451D01*
X43429Y197400D01*
X43533Y197342D01*
X43573Y197332D01*
X43609Y197315D01*
X43726Y197293D01*
X43841Y197263D01*
X43901Y197259D01*
X43921Y197255D01*
X43942Y197257D01*
X44002Y197253D01*
X58706Y197253D01*
X58804Y197265D01*
X58903Y197268D01*
X58962Y197285D01*
X59022Y197293D01*
X59114Y197329D01*
X59209Y197357D01*
X59261Y197387D01*
X59317Y197410D01*
X59397Y197468D01*
X59483Y197518D01*
X59558Y197584D01*
X59575Y197596D01*
X59583Y197606D01*
X59604Y197624D01*
X64730Y202751D01*
X64815Y202860D01*
X64904Y202967D01*
X64912Y202986D01*
X64925Y203002D01*
X64980Y203130D01*
X65039Y203255D01*
X65043Y203275D01*
X65051Y203294D01*
X65073Y203432D01*
X65099Y203568D01*
X65098Y203588D01*
X65101Y203608D01*
X65088Y203747D01*
X65079Y203885D01*
X65073Y203904D01*
X65071Y203924D01*
X65024Y204056D01*
X64981Y204187D01*
X64970Y204205D01*
X64963Y204224D01*
X64885Y204339D01*
X64811Y204456D01*
X64796Y204470D01*
X64785Y204487D01*
X64681Y204579D01*
X64579Y204674D01*
X64562Y204684D01*
X64546Y204697D01*
X64422Y204761D01*
X64301Y204828D01*
X64281Y204833D01*
X64263Y204842D01*
X64127Y204872D01*
X63993Y204907D01*
X63965Y204909D01*
X63953Y204912D01*
X63932Y204911D01*
X63832Y204917D01*
X56851Y204917D01*
X56759Y204906D01*
X56667Y204904D01*
X56602Y204886D01*
X56535Y204877D01*
X56449Y204843D01*
X56360Y204819D01*
X56255Y204767D01*
X56239Y204760D01*
X56233Y204755D01*
X56216Y204747D01*
X55931Y204582D01*
X55284Y204409D01*
X54969Y204409D01*
X54969Y214450D01*
X54969Y224815D01*
X54997Y224834D01*
X55073Y224926D01*
X55154Y225013D01*
X55174Y225048D01*
X55199Y225079D01*
X55250Y225187D01*
X55308Y225291D01*
X55318Y225331D01*
X55335Y225367D01*
X55357Y225484D01*
X55387Y225599D01*
X55391Y225659D01*
X55395Y225679D01*
X55393Y225700D01*
X55397Y225760D01*
X55397Y228854D01*
X55382Y228972D01*
X55375Y229091D01*
X55362Y229129D01*
X55357Y229170D01*
X55314Y229280D01*
X55277Y229393D01*
X55255Y229428D01*
X55240Y229465D01*
X55171Y229561D01*
X55107Y229662D01*
X55077Y229690D01*
X55054Y229723D01*
X54962Y229799D01*
X54875Y229880D01*
X54840Y229900D01*
X54809Y229925D01*
X54701Y229976D01*
X54597Y230034D01*
X54557Y230044D01*
X54521Y230061D01*
X54404Y230083D01*
X54289Y230113D01*
X54229Y230117D01*
X54209Y230121D01*
X54188Y230119D01*
X54128Y230123D01*
X53006Y230123D01*
X51815Y231314D01*
X51815Y253318D01*
X53006Y254509D01*
X61294Y254509D01*
X62339Y253463D01*
X62439Y253386D01*
X62534Y253304D01*
X62564Y253289D01*
X62591Y253268D01*
X62706Y253218D01*
X62819Y253163D01*
X62852Y253155D01*
X62882Y253142D01*
X63007Y253122D01*
X63130Y253096D01*
X63163Y253098D01*
X63197Y253092D01*
X63322Y253104D01*
X63447Y253109D01*
X63480Y253119D01*
X63513Y253122D01*
X63632Y253165D01*
X63752Y253201D01*
X63781Y253218D01*
X63812Y253230D01*
X63917Y253300D01*
X64024Y253365D01*
X64048Y253389D01*
X64076Y253408D01*
X64159Y253502D01*
X64247Y253592D01*
X64274Y253633D01*
X64286Y253647D01*
X64296Y253666D01*
X64336Y253726D01*
X64515Y254036D01*
X64988Y254509D01*
X65567Y254844D01*
X66214Y255017D01*
X68200Y255017D01*
X68200Y242697D01*
X68215Y242579D01*
X68222Y242460D01*
X68234Y242422D01*
X68240Y242382D01*
X68283Y242271D01*
X68320Y242158D01*
X68342Y242124D01*
X68357Y242086D01*
X68426Y241990D01*
X68490Y241889D01*
X68520Y241861D01*
X68543Y241829D01*
X68635Y241753D01*
X68722Y241671D01*
X68757Y241652D01*
X68788Y241626D01*
X68896Y241575D01*
X69000Y241518D01*
X69040Y241508D01*
X69076Y241490D01*
X69193Y241468D01*
X69308Y241438D01*
X69368Y241434D01*
X69388Y241431D01*
X69409Y241432D01*
X69469Y241428D01*
X70231Y241428D01*
X70349Y241443D01*
X70468Y241450D01*
X70506Y241463D01*
X70547Y241468D01*
X70657Y241512D01*
X70770Y241548D01*
X70805Y241570D01*
X70842Y241585D01*
X70938Y241655D01*
X71039Y241718D01*
X71067Y241748D01*
X71100Y241772D01*
X71176Y241863D01*
X71257Y241950D01*
X71277Y241985D01*
X71302Y242017D01*
X71353Y242124D01*
X71411Y242229D01*
X71421Y242268D01*
X71438Y242304D01*
X71460Y242421D01*
X71490Y242537D01*
X71494Y242597D01*
X71498Y242617D01*
X71496Y242637D01*
X71500Y242697D01*
X71500Y255017D01*
X73486Y255017D01*
X74133Y254844D01*
X74712Y254509D01*
X75185Y254036D01*
X75364Y253726D01*
X75440Y253626D01*
X75511Y253522D01*
X75536Y253500D01*
X75556Y253473D01*
X75655Y253395D01*
X75749Y253312D01*
X75779Y253296D01*
X75805Y253275D01*
X75920Y253224D01*
X76032Y253167D01*
X76065Y253160D01*
X76096Y253146D01*
X76220Y253125D01*
X76342Y253097D01*
X76376Y253098D01*
X76409Y253093D01*
X76535Y253103D01*
X76660Y253107D01*
X76693Y253116D01*
X76726Y253119D01*
X76845Y253160D01*
X76966Y253195D01*
X76995Y253213D01*
X77027Y253224D01*
X77131Y253293D01*
X77240Y253357D01*
X77276Y253389D01*
X77292Y253399D01*
X77306Y253416D01*
X77361Y253463D01*
X78542Y254644D01*
X78552Y254651D01*
X78589Y254666D01*
X78685Y254735D01*
X78786Y254799D01*
X78814Y254829D01*
X78847Y254852D01*
X78923Y254944D01*
X79004Y255031D01*
X79024Y255066D01*
X79049Y255097D01*
X79100Y255205D01*
X79158Y255309D01*
X79168Y255349D01*
X79185Y255385D01*
X79207Y255502D01*
X79237Y255617D01*
X79241Y255677D01*
X79245Y255697D01*
X79243Y255718D01*
X79247Y255778D01*
X79247Y258578D01*
X79235Y258676D01*
X79232Y258775D01*
X79215Y258833D01*
X79207Y258893D01*
X79171Y258985D01*
X79143Y259081D01*
X79113Y259133D01*
X79090Y259189D01*
X79032Y259269D01*
X78982Y259355D01*
X78916Y259430D01*
X78904Y259447D01*
X78894Y259454D01*
X78875Y259475D01*
X77920Y260431D01*
X77088Y262439D01*
X77088Y262713D01*
X77076Y262811D01*
X77073Y262910D01*
X77056Y262968D01*
X77048Y263028D01*
X77012Y263120D01*
X76984Y263215D01*
X76954Y263267D01*
X76931Y263324D01*
X76873Y263404D01*
X76823Y263489D01*
X76757Y263565D01*
X76745Y263581D01*
X76735Y263589D01*
X76717Y263610D01*
X76476Y263851D01*
X76397Y263912D01*
X76325Y263980D01*
X76272Y264009D01*
X76224Y264046D01*
X76133Y264085D01*
X76047Y264133D01*
X75988Y264148D01*
X75932Y264172D01*
X75834Y264188D01*
X75739Y264213D01*
X75639Y264219D01*
X75618Y264222D01*
X75606Y264221D01*
X75578Y264223D01*
X44354Y264223D01*
X39990Y268586D01*
X39990Y268587D01*
X38798Y269778D01*
X38798Y271508D01*
X38797Y274798D01*
X38782Y274916D01*
X38775Y275035D01*
X38762Y275073D01*
X38757Y275114D01*
X38713Y275224D01*
X38677Y275337D01*
X38655Y275372D01*
X38640Y275409D01*
X38570Y275505D01*
X38507Y275606D01*
X38477Y275634D01*
X38453Y275667D01*
X38362Y275743D01*
X38275Y275824D01*
X38239Y275844D01*
X38208Y275870D01*
X38101Y275920D01*
X37996Y275978D01*
X37957Y275988D01*
X37920Y276005D01*
X37804Y276027D01*
X37689Y276057D01*
X37628Y276061D01*
X37608Y276065D01*
X37588Y276063D01*
X37528Y276067D01*
X37018Y276067D01*
X35827Y277258D01*
X35827Y289942D01*
X36812Y290926D01*
X36889Y291026D01*
X36971Y291121D01*
X36986Y291151D01*
X37007Y291178D01*
X37057Y291293D01*
X37113Y291406D01*
X37120Y291439D01*
X37133Y291470D01*
X37153Y291594D01*
X37179Y291717D01*
X37178Y291750D01*
X37183Y291784D01*
X37171Y291909D01*
X37166Y292034D01*
X37156Y292067D01*
X37153Y292100D01*
X37111Y292219D01*
X37074Y292339D01*
X37057Y292368D01*
X37046Y292400D01*
X36975Y292504D01*
X36910Y292611D01*
X36886Y292635D01*
X36867Y292663D01*
X36773Y292746D01*
X36683Y292834D01*
X36642Y292861D01*
X36629Y292873D01*
X36609Y292883D01*
X36549Y292923D01*
X36300Y293067D01*
X35827Y293540D01*
X35492Y294119D01*
X35319Y294766D01*
X35319Y298101D01*
X41630Y298101D01*
X41748Y298116D01*
X41867Y298123D01*
X41905Y298135D01*
X41945Y298141D01*
X42056Y298184D01*
X42169Y298221D01*
X42203Y298243D01*
X42241Y298258D01*
X42337Y298327D01*
X42438Y298391D01*
X42466Y298421D01*
X42498Y298444D01*
X42574Y298536D01*
X42656Y298623D01*
X42675Y298658D01*
X42701Y298689D01*
X42752Y298797D01*
X42809Y298901D01*
X42819Y298941D01*
X42837Y298977D01*
X42859Y299094D01*
X42889Y299209D01*
X42893Y299269D01*
X42896Y299289D01*
X42895Y299310D01*
X42899Y299370D01*
X42899Y300561D01*
X43180Y300561D01*
X43298Y300576D01*
X43417Y300583D01*
X43455Y300596D01*
X43496Y300601D01*
X43606Y300645D01*
X43719Y300681D01*
X43754Y300703D01*
X43791Y300718D01*
X43887Y300788D01*
X43988Y300851D01*
X44016Y300881D01*
X44049Y300905D01*
X44125Y300996D01*
X44206Y301083D01*
X44226Y301118D01*
X44251Y301150D01*
X44302Y301257D01*
X44360Y301362D01*
X44370Y301401D01*
X44387Y301437D01*
X44409Y301554D01*
X44439Y301670D01*
X44443Y301730D01*
X44447Y301750D01*
X44445Y301770D01*
X44449Y301830D01*
X44449Y304800D01*
X44542Y304893D01*
X44629Y304921D01*
X44664Y304943D01*
X44701Y304958D01*
X44797Y305027D01*
X44898Y305091D01*
X44926Y305121D01*
X44959Y305144D01*
X45035Y305236D01*
X45116Y305323D01*
X45136Y305358D01*
X45161Y305389D01*
X45212Y305497D01*
X45270Y305601D01*
X45280Y305641D01*
X45297Y305677D01*
X45319Y305794D01*
X45349Y305909D01*
X45353Y305969D01*
X45357Y305989D01*
X45355Y306010D01*
X45359Y306070D01*
X45359Y308641D01*
X48194Y308641D01*
X48841Y308468D01*
X49403Y308143D01*
X49525Y308091D01*
X49645Y308035D01*
X49672Y308030D01*
X49697Y308019D01*
X49828Y308000D01*
X49958Y307975D01*
X49984Y307977D01*
X50011Y307973D01*
X50143Y307987D01*
X50275Y307995D01*
X50301Y308003D01*
X50327Y308006D01*
X50451Y308052D01*
X50577Y308093D01*
X50600Y308107D01*
X50626Y308117D01*
X50734Y308192D01*
X50846Y308263D01*
X50865Y308283D01*
X50887Y308298D01*
X50973Y308398D01*
X51064Y308495D01*
X51077Y308518D01*
X51095Y308539D01*
X51154Y308657D01*
X51218Y308773D01*
X51224Y308799D01*
X51236Y308824D01*
X51264Y308953D01*
X51297Y309081D01*
X51299Y309119D01*
X51303Y309135D01*
X51302Y309157D01*
X51307Y309242D01*
X51307Y314278D01*
X51480Y314925D01*
X51815Y315504D01*
X52288Y315977D01*
X52867Y316312D01*
X53514Y316485D01*
X55500Y316485D01*
X55500Y304165D01*
X55515Y304047D01*
X55522Y303928D01*
X55534Y303890D01*
X55540Y303850D01*
X55562Y303794D01*
X55540Y303679D01*
X55510Y303563D01*
X55506Y303503D01*
X55502Y303483D01*
X55504Y303463D01*
X55500Y303403D01*
X55500Y291083D01*
X53514Y291083D01*
X52867Y291256D01*
X52288Y291591D01*
X51815Y292064D01*
X51398Y292786D01*
X51322Y292886D01*
X51252Y292990D01*
X51226Y293012D01*
X51206Y293039D01*
X51107Y293117D01*
X51013Y293200D01*
X50983Y293216D01*
X50957Y293237D01*
X50842Y293288D01*
X50730Y293345D01*
X50697Y293352D01*
X50666Y293366D01*
X50542Y293387D01*
X50420Y293415D01*
X50386Y293413D01*
X50353Y293419D01*
X50227Y293409D01*
X50102Y293405D01*
X50069Y293395D01*
X50036Y293393D01*
X49917Y293351D01*
X49796Y293316D01*
X49767Y293299D01*
X49735Y293288D01*
X49631Y293219D01*
X49522Y293155D01*
X49486Y293122D01*
X49470Y293112D01*
X49456Y293096D01*
X49427Y293071D01*
X49171Y292923D01*
X49071Y292847D01*
X48967Y292777D01*
X48945Y292751D01*
X48918Y292731D01*
X48840Y292632D01*
X48756Y292538D01*
X48741Y292508D01*
X48720Y292482D01*
X48669Y292367D01*
X48612Y292255D01*
X48604Y292222D01*
X48591Y292191D01*
X48570Y292067D01*
X48542Y291945D01*
X48543Y291911D01*
X48538Y291878D01*
X48548Y291752D01*
X48552Y291627D01*
X48561Y291594D01*
X48564Y291561D01*
X48605Y291442D01*
X48640Y291321D01*
X48657Y291292D01*
X48668Y291260D01*
X48738Y291156D01*
X48802Y291047D01*
X48834Y291011D01*
X48844Y290995D01*
X48860Y290981D01*
X48908Y290926D01*
X49893Y289942D01*
X49893Y277258D01*
X48702Y276067D01*
X48196Y276067D01*
X48078Y276052D01*
X47959Y276045D01*
X47920Y276032D01*
X47880Y276027D01*
X47770Y275984D01*
X47656Y275947D01*
X47622Y275925D01*
X47585Y275910D01*
X47488Y275840D01*
X47387Y275777D01*
X47360Y275747D01*
X47327Y275724D01*
X47251Y275632D01*
X47170Y275545D01*
X47150Y275510D01*
X47124Y275479D01*
X47074Y275371D01*
X47016Y275266D01*
X47006Y275227D01*
X46989Y275191D01*
X46967Y275074D01*
X46937Y274958D01*
X46933Y274898D01*
X46929Y274879D01*
X46930Y274858D01*
X46927Y274798D01*
X46927Y273672D01*
X46939Y273574D01*
X46942Y273475D01*
X46959Y273417D01*
X46967Y273357D01*
X47003Y273265D01*
X47031Y273169D01*
X47062Y273117D01*
X47084Y273061D01*
X47142Y272981D01*
X47192Y272895D01*
X47259Y272820D01*
X47271Y272804D01*
X47280Y272796D01*
X47299Y272775D01*
X47350Y272724D01*
X47428Y272663D01*
X47500Y272595D01*
X47553Y272566D01*
X47601Y272529D01*
X47692Y272490D01*
X47778Y272442D01*
X47837Y272427D01*
X47893Y272403D01*
X47991Y272387D01*
X48086Y272362D01*
X48187Y272356D01*
X48207Y272353D01*
X48219Y272354D01*
X48247Y272352D01*
X79471Y272352D01*
X82465Y269358D01*
X82543Y269298D01*
X82615Y269230D01*
X82668Y269201D01*
X82716Y269164D01*
X82807Y269124D01*
X82894Y269076D01*
X82952Y269061D01*
X83008Y269037D01*
X83106Y269022D01*
X83202Y268997D01*
X83302Y268991D01*
X83322Y268987D01*
X83334Y268989D01*
X83362Y268987D01*
X83636Y268987D01*
X85644Y268155D01*
X87180Y266619D01*
X88012Y264611D01*
X88012Y262439D01*
X87180Y260431D01*
X86225Y259475D01*
X86164Y259397D01*
X86096Y259325D01*
X86067Y259272D01*
X86030Y259224D01*
X85990Y259133D01*
X85942Y259047D01*
X85927Y258988D01*
X85903Y258932D01*
X85888Y258834D01*
X85863Y258739D01*
X85857Y258639D01*
X85853Y258618D01*
X85855Y258606D01*
X85853Y258578D01*
X85853Y255778D01*
X85868Y255660D01*
X85875Y255541D01*
X85888Y255503D01*
X85893Y255462D01*
X85936Y255352D01*
X85973Y255239D01*
X85995Y255204D01*
X86010Y255167D01*
X86079Y255071D01*
X86143Y254970D01*
X86173Y254942D01*
X86196Y254909D01*
X86288Y254833D01*
X86375Y254752D01*
X86410Y254732D01*
X86441Y254707D01*
X86545Y254658D01*
X88002Y253200D01*
X88097Y253127D01*
X88186Y253048D01*
X88222Y253030D01*
X88254Y253005D01*
X88363Y252958D01*
X88469Y252904D01*
X88508Y252895D01*
X88546Y252879D01*
X88663Y252860D01*
X88779Y252834D01*
X88820Y252835D01*
X88860Y252829D01*
X88978Y252840D01*
X89097Y252844D01*
X89136Y252855D01*
X89176Y252859D01*
X89289Y252899D01*
X89403Y252932D01*
X89437Y252953D01*
X89476Y252966D01*
X89574Y253033D01*
X89677Y253094D01*
X89722Y253134D01*
X89739Y253145D01*
X89752Y253160D01*
X89797Y253200D01*
X91106Y254509D01*
X99394Y254509D01*
X100585Y253318D01*
X100585Y231314D01*
X99394Y230123D01*
X98795Y230123D01*
X98697Y230111D01*
X98598Y230108D01*
X98539Y230091D01*
X98479Y230083D01*
X98387Y230047D01*
X98292Y230019D01*
X98240Y229989D01*
X98184Y229966D01*
X98103Y229908D01*
X98018Y229858D01*
X97943Y229792D01*
X97926Y229780D01*
X97918Y229770D01*
X97897Y229752D01*
X96246Y228101D01*
X94295Y226149D01*
X94210Y226040D01*
X94121Y225933D01*
X94113Y225914D01*
X94100Y225898D01*
X94045Y225770D01*
X93986Y225645D01*
X93982Y225625D01*
X93974Y225606D01*
X93952Y225468D01*
X93926Y225332D01*
X93927Y225312D01*
X93924Y225292D01*
X93937Y225153D01*
X93946Y225015D01*
X93952Y224996D01*
X93954Y224976D01*
X94001Y224844D01*
X94044Y224713D01*
X94055Y224695D01*
X94062Y224676D01*
X94140Y224561D01*
X94214Y224444D01*
X94229Y224430D01*
X94240Y224413D01*
X94344Y224321D01*
X94446Y224226D01*
X94463Y224216D01*
X94479Y224203D01*
X94603Y224139D01*
X94724Y224072D01*
X94744Y224067D01*
X94762Y224058D01*
X94898Y224028D01*
X95032Y223993D01*
X95060Y223991D01*
X95072Y223988D01*
X95093Y223989D01*
X95193Y223983D01*
X105792Y223983D01*
X106983Y222792D01*
X106983Y216364D01*
X106995Y216266D01*
X106998Y216167D01*
X107003Y216151D01*
X107003Y198331D01*
X107004Y198322D01*
X107003Y198313D01*
X107024Y198163D01*
X107043Y198016D01*
X107046Y198007D01*
X107047Y197998D01*
X107062Y197956D01*
X107062Y196985D01*
X107080Y196840D01*
X107095Y196695D01*
X107100Y196682D01*
X107102Y196669D01*
X107155Y196533D01*
X107206Y196397D01*
X107214Y196386D01*
X107219Y196373D01*
X107304Y196256D01*
X107387Y196136D01*
X107398Y196127D01*
X107405Y196116D01*
X107518Y196023D01*
X107628Y195928D01*
X107640Y195922D01*
X107650Y195913D01*
X107782Y195851D01*
X107913Y195786D01*
X107926Y195783D01*
X107938Y195778D01*
X108081Y195750D01*
X108224Y195720D01*
X108237Y195720D01*
X108250Y195718D01*
X108396Y195727D01*
X108542Y195733D01*
X108554Y195737D01*
X108568Y195738D01*
X108706Y195782D01*
X108846Y195825D01*
X108858Y195832D01*
X108870Y195836D01*
X108993Y195913D01*
X109118Y195989D01*
X109128Y195999D01*
X109139Y196006D01*
X109239Y196112D01*
X109341Y196216D01*
X109351Y196231D01*
X109357Y196237D01*
X109365Y196252D01*
X109430Y196350D01*
X109497Y196466D01*
X109533Y196551D01*
X109578Y196632D01*
X109594Y196697D01*
X109621Y196759D01*
X109634Y196851D01*
X109657Y196940D01*
X109664Y197057D01*
X109667Y197074D01*
X109666Y197082D01*
X109667Y197101D01*
X109667Y201042D01*
X110858Y202233D01*
X114628Y202233D01*
X114746Y202248D01*
X114865Y202255D01*
X114903Y202268D01*
X114944Y202273D01*
X115054Y202316D01*
X115167Y202353D01*
X115202Y202375D01*
X115239Y202390D01*
X115335Y202459D01*
X115436Y202523D01*
X115464Y202553D01*
X115497Y202576D01*
X115573Y202668D01*
X115654Y202755D01*
X115674Y202790D01*
X115699Y202821D01*
X115750Y202929D01*
X115808Y203033D01*
X115818Y203073D01*
X115835Y203109D01*
X115857Y203226D01*
X115887Y203341D01*
X115891Y203401D01*
X115895Y203421D01*
X115893Y203442D01*
X115897Y203502D01*
X115897Y204465D01*
X115885Y204564D01*
X115882Y204663D01*
X115865Y204721D01*
X115857Y204781D01*
X115821Y204873D01*
X115793Y204968D01*
X115763Y205020D01*
X115740Y205077D01*
X115682Y205157D01*
X115632Y205242D01*
X115566Y205317D01*
X115554Y205334D01*
X115544Y205342D01*
X115525Y205363D01*
X114432Y206456D01*
X113601Y208464D01*
X113601Y210636D01*
X114432Y212644D01*
X114839Y213050D01*
X114924Y213160D01*
X115013Y213267D01*
X115021Y213286D01*
X115034Y213302D01*
X115089Y213430D01*
X115148Y213555D01*
X115152Y213575D01*
X115160Y213594D01*
X115182Y213732D01*
X115208Y213868D01*
X115207Y213888D01*
X115210Y213908D01*
X115197Y214047D01*
X115188Y214185D01*
X115182Y214204D01*
X115180Y214224D01*
X115133Y214355D01*
X115090Y214487D01*
X115080Y214505D01*
X115073Y214524D01*
X114995Y214638D01*
X114920Y214756D01*
X114905Y214770D01*
X114894Y214787D01*
X114790Y214879D01*
X114689Y214974D01*
X114671Y214984D01*
X114656Y214997D01*
X114532Y215060D01*
X114410Y215128D01*
X114391Y215133D01*
X114372Y215142D01*
X114236Y215172D01*
X114102Y215207D01*
X114074Y215209D01*
X114062Y215212D01*
X114042Y215211D01*
X113941Y215217D01*
X112158Y215217D01*
X110967Y216408D01*
X110967Y228092D01*
X112158Y229283D01*
X124842Y229283D01*
X125826Y228298D01*
X125926Y228221D01*
X126021Y228139D01*
X126051Y228124D01*
X126078Y228103D01*
X126193Y228053D01*
X126306Y227997D01*
X126339Y227990D01*
X126370Y227977D01*
X126494Y227957D01*
X126617Y227931D01*
X126650Y227932D01*
X126684Y227927D01*
X126809Y227939D01*
X126934Y227944D01*
X126967Y227954D01*
X127000Y227957D01*
X127119Y227999D01*
X127239Y228036D01*
X127268Y228053D01*
X127300Y228064D01*
X127404Y228135D01*
X127511Y228200D01*
X127535Y228224D01*
X127563Y228243D01*
X127646Y228337D01*
X127734Y228427D01*
X127761Y228468D01*
X127773Y228481D01*
X127783Y228501D01*
X127823Y228561D01*
X127967Y228810D01*
X128440Y229283D01*
X129019Y229618D01*
X129666Y229791D01*
X133001Y229791D01*
X133001Y223480D01*
X133016Y223362D01*
X133023Y223243D01*
X133035Y223205D01*
X133041Y223165D01*
X133084Y223054D01*
X133121Y222941D01*
X133143Y222907D01*
X133158Y222869D01*
X133227Y222773D01*
X133291Y222672D01*
X133321Y222644D01*
X133344Y222612D01*
X133436Y222536D01*
X133523Y222454D01*
X133558Y222435D01*
X133589Y222409D01*
X133697Y222358D01*
X133801Y222301D01*
X133841Y222291D01*
X133877Y222273D01*
X133984Y222253D01*
X133954Y222249D01*
X133844Y222205D01*
X133731Y222169D01*
X133696Y222147D01*
X133659Y222132D01*
X133562Y222062D01*
X133462Y221999D01*
X133434Y221969D01*
X133401Y221945D01*
X133325Y221854D01*
X133244Y221767D01*
X133224Y221732D01*
X133199Y221700D01*
X133148Y221593D01*
X133090Y221488D01*
X133080Y221449D01*
X133063Y221413D01*
X133041Y221296D01*
X133011Y221180D01*
X133007Y221120D01*
X133003Y221100D01*
X133005Y221080D01*
X133001Y221020D01*
X133001Y214709D01*
X129666Y214709D01*
X129019Y214882D01*
X128440Y215217D01*
X127967Y215690D01*
X127823Y215939D01*
X127747Y216039D01*
X127677Y216143D01*
X127651Y216165D01*
X127631Y216192D01*
X127532Y216270D01*
X127438Y216354D01*
X127408Y216369D01*
X127382Y216390D01*
X127267Y216441D01*
X127155Y216498D01*
X127122Y216506D01*
X127091Y216519D01*
X126967Y216540D01*
X126845Y216568D01*
X126811Y216567D01*
X126778Y216572D01*
X126652Y216562D01*
X126527Y216558D01*
X126494Y216549D01*
X126461Y216546D01*
X126342Y216505D01*
X126221Y216470D01*
X126192Y216453D01*
X126160Y216442D01*
X126056Y216372D01*
X125947Y216308D01*
X125911Y216276D01*
X125895Y216266D01*
X125881Y216250D01*
X125826Y216202D01*
X124842Y215217D01*
X124184Y215217D01*
X124046Y215200D01*
X123907Y215187D01*
X123888Y215180D01*
X123868Y215177D01*
X123738Y215126D01*
X123608Y215079D01*
X123591Y215068D01*
X123572Y215060D01*
X123460Y214979D01*
X123345Y214901D01*
X123331Y214885D01*
X123315Y214874D01*
X123226Y214766D01*
X123134Y214662D01*
X123125Y214644D01*
X123112Y214629D01*
X123053Y214503D01*
X122990Y214379D01*
X122985Y214359D01*
X122977Y214341D01*
X122951Y214205D01*
X122920Y214069D01*
X122921Y214048D01*
X122917Y214029D01*
X122925Y213890D01*
X122930Y213751D01*
X122935Y213731D01*
X122937Y213711D01*
X122979Y213579D01*
X123018Y213445D01*
X123028Y213428D01*
X123035Y213409D01*
X123109Y213291D01*
X123180Y213171D01*
X123198Y213150D01*
X123205Y213140D01*
X123220Y213126D01*
X123286Y213050D01*
X123693Y212644D01*
X124524Y210636D01*
X124524Y208464D01*
X123693Y206456D01*
X122875Y205638D01*
X122814Y205560D01*
X122746Y205488D01*
X122717Y205434D01*
X122680Y205387D01*
X122640Y205296D01*
X122592Y205209D01*
X122577Y205150D01*
X122553Y205095D01*
X122538Y204997D01*
X122513Y204901D01*
X122507Y204801D01*
X122503Y204781D01*
X122505Y204768D01*
X122503Y204740D01*
X122503Y203502D01*
X122518Y203384D01*
X122525Y203265D01*
X122538Y203227D01*
X122543Y203186D01*
X122586Y203076D01*
X122623Y202963D01*
X122645Y202928D01*
X122660Y202891D01*
X122729Y202795D01*
X122793Y202694D01*
X122823Y202666D01*
X122846Y202633D01*
X122938Y202557D01*
X123025Y202476D01*
X123060Y202456D01*
X123091Y202431D01*
X123199Y202380D01*
X123303Y202322D01*
X123343Y202312D01*
X123379Y202295D01*
X123496Y202273D01*
X123611Y202243D01*
X123671Y202239D01*
X123691Y202235D01*
X123712Y202237D01*
X123772Y202233D01*
X127542Y202233D01*
X128733Y201042D01*
X128733Y197101D01*
X128744Y197009D01*
X128746Y196917D01*
X128764Y196852D01*
X128773Y196785D01*
X128807Y196699D01*
X128831Y196610D01*
X128883Y196505D01*
X128890Y196490D01*
X128895Y196483D01*
X128903Y196466D01*
X129068Y196181D01*
X129241Y195534D01*
X129241Y195219D01*
X119200Y195219D01*
X108889Y195219D01*
X108868Y195242D01*
X108816Y195315D01*
X108762Y195360D01*
X108715Y195411D01*
X108640Y195461D01*
X108571Y195518D01*
X108507Y195548D01*
X108449Y195586D01*
X108364Y195615D01*
X108283Y195653D01*
X108214Y195667D01*
X108148Y195689D01*
X108059Y195696D01*
X107971Y195713D01*
X107901Y195709D01*
X107831Y195714D01*
X107743Y195699D01*
X107653Y195694D01*
X107587Y195672D01*
X107518Y195660D01*
X107436Y195623D01*
X107351Y195595D01*
X107292Y195558D01*
X107228Y195529D01*
X107158Y195473D01*
X107082Y195425D01*
X107034Y195375D01*
X106980Y195331D01*
X106925Y195259D01*
X106864Y195194D01*
X106830Y195133D01*
X106788Y195077D01*
X106717Y194932D01*
X106230Y193756D01*
X104694Y192220D01*
X102686Y191388D01*
X100514Y191388D01*
X98506Y192220D01*
X96970Y193756D01*
X96138Y195764D01*
X96138Y197936D01*
X96970Y199944D01*
X98506Y201480D01*
X99614Y201939D01*
X99639Y201954D01*
X99667Y201963D01*
X99777Y202032D01*
X99890Y202097D01*
X99911Y202117D01*
X99936Y202133D01*
X100025Y202228D01*
X100118Y202318D01*
X100134Y202343D01*
X100154Y202365D01*
X100217Y202478D01*
X100285Y202589D01*
X100293Y202617D01*
X100308Y202643D01*
X100340Y202769D01*
X100378Y202893D01*
X100380Y202922D01*
X100387Y202951D01*
X100397Y203112D01*
X100397Y203648D01*
X100382Y203766D01*
X100375Y203885D01*
X100362Y203923D01*
X100357Y203964D01*
X100314Y204074D01*
X100277Y204187D01*
X100255Y204222D01*
X100240Y204259D01*
X100171Y204355D01*
X100107Y204456D01*
X100077Y204484D01*
X100054Y204517D01*
X99962Y204593D01*
X99875Y204674D01*
X99840Y204694D01*
X99809Y204719D01*
X99701Y204770D01*
X99597Y204828D01*
X99557Y204838D01*
X99521Y204855D01*
X99404Y204877D01*
X99289Y204907D01*
X99229Y204911D01*
X99209Y204915D01*
X99188Y204913D01*
X99128Y204917D01*
X73272Y204917D01*
X73154Y204902D01*
X73035Y204895D01*
X72997Y204882D01*
X72956Y204877D01*
X72846Y204834D01*
X72733Y204797D01*
X72698Y204775D01*
X72661Y204760D01*
X72565Y204691D01*
X72464Y204627D01*
X72436Y204597D01*
X72403Y204574D01*
X72327Y204482D01*
X72246Y204395D01*
X72226Y204360D01*
X72201Y204329D01*
X72150Y204221D01*
X72092Y204117D01*
X72082Y204077D01*
X72065Y204041D01*
X72043Y203924D01*
X72013Y203809D01*
X72009Y203749D01*
X72005Y203729D01*
X72007Y203708D01*
X72003Y203648D01*
X72003Y200682D01*
X61968Y190647D01*
X44002Y190647D01*
X43884Y190632D01*
X43765Y190625D01*
X43727Y190612D01*
X43686Y190607D01*
X43576Y190564D01*
X43463Y190527D01*
X43428Y190505D01*
X43391Y190490D01*
X43295Y190421D01*
X43194Y190357D01*
X43166Y190327D01*
X43133Y190304D01*
X43057Y190212D01*
X42976Y190125D01*
X42956Y190090D01*
X42931Y190059D01*
X42880Y189951D01*
X42822Y189847D01*
X42812Y189807D01*
X42795Y189771D01*
X42773Y189654D01*
X42743Y189539D01*
X42739Y189479D01*
X42735Y189459D01*
X42737Y189438D01*
X42733Y189378D01*
X42733Y167101D01*
X42744Y167009D01*
X42746Y166917D01*
X42764Y166852D01*
X42773Y166785D01*
X42807Y166699D01*
X42831Y166610D01*
X42883Y166505D01*
X42890Y166490D01*
X42895Y166483D01*
X42903Y166466D01*
X43068Y166181D01*
X43241Y165534D01*
X43241Y165219D01*
X33200Y165219D01*
X23159Y165219D01*
X23159Y165534D01*
X23332Y166181D01*
X23497Y166466D01*
X23533Y166551D01*
X23578Y166632D01*
X23594Y166697D01*
X23620Y166759D01*
X23634Y166851D01*
X23657Y166940D01*
X23664Y167057D01*
X23667Y167074D01*
X23666Y167082D01*
X23667Y167101D01*
X23667Y189378D01*
X23652Y189495D01*
X23645Y189614D01*
X23633Y189653D01*
X23627Y189693D01*
X23584Y189803D01*
X23547Y189917D01*
X23525Y189951D01*
X23510Y189989D01*
X23441Y190085D01*
X23377Y190185D01*
X23347Y190213D01*
X23324Y190246D01*
X23232Y190322D01*
X23145Y190403D01*
X23110Y190423D01*
X23079Y190449D01*
X22971Y190500D01*
X22867Y190557D01*
X22827Y190567D01*
X22791Y190584D01*
X22675Y190607D01*
X22559Y190637D01*
X22498Y190640D01*
X22479Y190644D01*
X22458Y190643D01*
X22398Y190647D01*
X21510Y190647D01*
X21392Y190632D01*
X21273Y190625D01*
X21235Y190612D01*
X21195Y190607D01*
X21084Y190564D01*
X20971Y190527D01*
X20937Y190505D01*
X20899Y190490D01*
X20803Y190421D01*
X20702Y190357D01*
X20674Y190327D01*
X20642Y190304D01*
X20566Y190212D01*
X20484Y190125D01*
X20465Y190090D01*
X20439Y190059D01*
X20388Y189951D01*
X20330Y189846D01*
X20320Y189808D01*
X20303Y189771D01*
X20281Y189654D01*
X20251Y189539D01*
X20247Y189479D01*
X20243Y189459D01*
X20245Y189438D01*
X20241Y189378D01*
X20241Y187679D01*
X13930Y187679D01*
X13812Y187664D01*
X13693Y187657D01*
X13655Y187644D01*
X13615Y187639D01*
X13504Y187596D01*
X13391Y187559D01*
X13357Y187537D01*
X13319Y187522D01*
X13223Y187453D01*
X13122Y187389D01*
X13094Y187359D01*
X13062Y187336D01*
X12986Y187244D01*
X12904Y187157D01*
X12885Y187122D01*
X12859Y187091D01*
X12808Y186983D01*
X12751Y186879D01*
X12741Y186839D01*
X12723Y186803D01*
X12701Y186686D01*
X12671Y186571D01*
X12667Y186511D01*
X12664Y186491D01*
X12665Y186470D01*
X12661Y186410D01*
X12661Y185219D01*
X11470Y185219D01*
X11352Y185204D01*
X11233Y185197D01*
X11195Y185184D01*
X11154Y185179D01*
X11044Y185135D01*
X10931Y185099D01*
X10896Y185077D01*
X10859Y185062D01*
X10762Y184992D01*
X10662Y184929D01*
X10634Y184899D01*
X10601Y184875D01*
X10525Y184784D01*
X10444Y184697D01*
X10424Y184662D01*
X10399Y184630D01*
X10348Y184523D01*
X10290Y184418D01*
X10280Y184379D01*
X10263Y184343D01*
X10241Y184226D01*
X10211Y184110D01*
X10207Y184050D01*
X10203Y184030D01*
X10205Y184010D01*
X10201Y183950D01*
X10201Y177139D01*
X7366Y177139D01*
X6719Y177312D01*
X6140Y177647D01*
X5978Y177809D01*
X5868Y177894D01*
X5761Y177983D01*
X5742Y177992D01*
X5726Y178004D01*
X5598Y178060D01*
X5473Y178119D01*
X5453Y178123D01*
X5434Y178131D01*
X5297Y178152D01*
X5160Y178179D01*
X5140Y178177D01*
X5120Y178181D01*
X4982Y178168D01*
X4843Y178159D01*
X4824Y178153D01*
X4804Y178151D01*
X4673Y178104D01*
X4541Y178061D01*
X4523Y178050D01*
X4504Y178043D01*
X4389Y177965D01*
X4272Y177891D01*
X4258Y177876D01*
X4241Y177865D01*
X4149Y177760D01*
X4054Y177659D01*
X4044Y177641D01*
X4031Y177626D01*
X3967Y177502D01*
X3900Y177381D01*
X3895Y177361D01*
X3886Y177343D01*
X3856Y177207D01*
X3821Y177073D01*
X3819Y177045D01*
X3816Y177033D01*
X3817Y177012D01*
X3811Y176912D01*
X3811Y163690D01*
X3828Y163552D01*
X3833Y163501D01*
X3833Y163499D01*
X3841Y163413D01*
X3848Y163394D01*
X3851Y163374D01*
X3902Y163245D01*
X3949Y163114D01*
X3960Y163097D01*
X3968Y163078D01*
X4049Y162966D01*
X4127Y162851D01*
X4143Y162838D01*
X4154Y162821D01*
X4262Y162732D01*
X4366Y162640D01*
X4384Y162631D01*
X4399Y162618D01*
X4525Y162559D01*
X4649Y162496D01*
X4669Y162491D01*
X4687Y162483D01*
X4824Y162457D01*
X4959Y162426D01*
X4980Y162427D01*
X4999Y162423D01*
X5138Y162432D01*
X5277Y162436D01*
X5297Y162441D01*
X5317Y162443D01*
X5449Y162485D01*
X5583Y162524D01*
X5600Y162535D01*
X5619Y162541D01*
X5737Y162615D01*
X5857Y162686D01*
X5878Y162704D01*
X5888Y162711D01*
X5902Y162726D01*
X5977Y162792D01*
X6863Y163678D01*
X6894Y163677D01*
X7001Y163699D01*
X7111Y163713D01*
X7157Y163731D01*
X7205Y163741D01*
X7304Y163789D01*
X7406Y163830D01*
X7446Y163859D01*
X7491Y163881D01*
X7575Y163952D01*
X7664Y164016D01*
X7695Y164055D01*
X7733Y164087D01*
X7796Y164177D01*
X7866Y164261D01*
X7888Y164306D01*
X7916Y164347D01*
X7955Y164450D01*
X8002Y164549D01*
X8011Y164598D01*
X8029Y164644D01*
X8041Y164754D01*
X8062Y164861D01*
X8059Y164911D01*
X8064Y164960D01*
X8049Y165069D01*
X8042Y165179D01*
X8027Y165226D01*
X8020Y165275D01*
X7968Y165428D01*
X7238Y167189D01*
X7238Y169361D01*
X8070Y171369D01*
X9606Y172905D01*
X11614Y173737D01*
X13786Y173737D01*
X15794Y172905D01*
X17330Y171369D01*
X18162Y169361D01*
X18162Y167189D01*
X17432Y165428D01*
X17419Y165380D01*
X17398Y165335D01*
X17377Y165227D01*
X17348Y165121D01*
X17348Y165071D01*
X17338Y165022D01*
X17345Y164913D01*
X17343Y164803D01*
X17355Y164755D01*
X17358Y164705D01*
X17392Y164601D01*
X17418Y164494D01*
X17441Y164450D01*
X17456Y164403D01*
X17515Y164310D01*
X17566Y164213D01*
X17600Y164176D01*
X17626Y164134D01*
X17706Y164059D01*
X17780Y163977D01*
X17822Y163950D01*
X17858Y163916D01*
X17954Y163863D01*
X18046Y163803D01*
X18093Y163786D01*
X18136Y163762D01*
X18243Y163735D01*
X18347Y163699D01*
X18396Y163695D01*
X18444Y163683D01*
X18538Y163677D01*
X19590Y162624D01*
X19669Y162564D01*
X19741Y162496D01*
X19794Y162467D01*
X19842Y162430D01*
X19932Y162390D01*
X20019Y162342D01*
X20078Y162327D01*
X20133Y162303D01*
X20231Y162288D01*
X20327Y162263D01*
X20427Y162257D01*
X20447Y162253D01*
X20460Y162255D01*
X20488Y162253D01*
X21890Y162253D01*
X22008Y162268D01*
X22127Y162275D01*
X22165Y162288D01*
X22206Y162293D01*
X22316Y162336D01*
X22429Y162373D01*
X22464Y162395D01*
X22501Y162410D01*
X22597Y162479D01*
X22698Y162543D01*
X22726Y162573D01*
X22759Y162596D01*
X22828Y162681D01*
X33200Y162681D01*
X43565Y162681D01*
X43584Y162653D01*
X43676Y162577D01*
X43763Y162496D01*
X43798Y162476D01*
X43829Y162451D01*
X43937Y162400D01*
X44041Y162342D01*
X44081Y162332D01*
X44117Y162315D01*
X44234Y162293D01*
X44349Y162263D01*
X44409Y162259D01*
X44429Y162255D01*
X44450Y162257D01*
X44510Y162253D01*
X86893Y162253D01*
X87737Y161408D01*
X87816Y161348D01*
X87888Y161280D01*
X87941Y161251D01*
X87989Y161214D01*
X88080Y161174D01*
X88166Y161126D01*
X88225Y161111D01*
X88280Y161087D01*
X88378Y161072D01*
X88474Y161047D01*
X88574Y161041D01*
X88595Y161037D01*
X88607Y161039D01*
X88635Y161037D01*
X89986Y161037D01*
X91994Y160205D01*
X93530Y158669D01*
X94362Y156661D01*
X94362Y154489D01*
X93530Y152481D01*
X91994Y150945D01*
X89986Y150113D01*
X87814Y150113D01*
X85806Y150945D01*
X84270Y152481D01*
X83421Y154530D01*
X83416Y154615D01*
X83403Y154653D01*
X83398Y154694D01*
X83355Y154804D01*
X83318Y154917D01*
X83296Y154952D01*
X83281Y154989D01*
X83212Y155085D01*
X83148Y155186D01*
X83118Y155214D01*
X83095Y155247D01*
X83003Y155323D01*
X82916Y155404D01*
X82881Y155424D01*
X82850Y155449D01*
X82742Y155500D01*
X82638Y155558D01*
X82598Y155568D01*
X82562Y155585D01*
X82445Y155607D01*
X82330Y155637D01*
X82270Y155641D01*
X82250Y155645D01*
X82229Y155643D01*
X82169Y155647D01*
X44002Y155647D01*
X43884Y155632D01*
X43765Y155625D01*
X43727Y155612D01*
X43686Y155607D01*
X43576Y155564D01*
X43463Y155527D01*
X43428Y155505D01*
X43391Y155490D01*
X43295Y155421D01*
X43194Y155357D01*
X43166Y155327D01*
X43133Y155304D01*
X43057Y155212D01*
X42976Y155125D01*
X42956Y155090D01*
X42931Y155059D01*
X42880Y154951D01*
X42822Y154847D01*
X42812Y154807D01*
X42795Y154771D01*
X42773Y154654D01*
X42743Y154539D01*
X42739Y154479D01*
X42735Y154459D01*
X42737Y154438D01*
X42733Y154378D01*
X42733Y145868D01*
X42750Y145730D01*
X42763Y145591D01*
X42770Y145572D01*
X42773Y145552D01*
X42824Y145423D01*
X42871Y145292D01*
X42882Y145275D01*
X42890Y145257D01*
X42971Y145144D01*
X43049Y145029D01*
X43065Y145016D01*
X43076Y144999D01*
X43184Y144910D01*
X43288Y144818D01*
X43306Y144809D01*
X43321Y144796D01*
X43447Y144737D01*
X43571Y144674D01*
X43591Y144669D01*
X43609Y144661D01*
X43746Y144635D01*
X43881Y144604D01*
X43902Y144605D01*
X43921Y144601D01*
X44060Y144610D01*
X44199Y144614D01*
X44219Y144620D01*
X44239Y144621D01*
X44371Y144664D01*
X44505Y144702D01*
X44522Y144713D01*
X44541Y144719D01*
X44659Y144793D01*
X44779Y144864D01*
X44800Y144882D01*
X44810Y144889D01*
X44824Y144904D01*
X44899Y144970D01*
X46107Y146178D01*
X71218Y146178D01*
X74696Y142699D01*
X75302Y142093D01*
X75397Y142020D01*
X75486Y141942D01*
X75522Y141923D01*
X75554Y141898D01*
X75663Y141851D01*
X75769Y141797D01*
X75808Y141788D01*
X75846Y141772D01*
X75963Y141753D01*
X76079Y141727D01*
X76120Y141728D01*
X76160Y141722D01*
X76278Y141733D01*
G37*
G36*
X29026Y3832D02*
X29026Y3832D01*
X29174Y3850D01*
X29174Y3851D01*
X29175Y3851D01*
X29332Y3913D01*
X29470Y3967D01*
X29470Y3968D01*
X29589Y4054D01*
X29727Y4154D01*
X29728Y4154D01*
X29822Y4268D01*
X29930Y4399D01*
X29931Y4399D01*
X29984Y4512D01*
X30066Y4686D01*
X30066Y4687D01*
X30090Y4810D01*
X30126Y4999D01*
X30118Y5120D01*
X30106Y5316D01*
X30106Y5317D01*
X30106Y5318D01*
X30066Y5472D01*
X29610Y6875D01*
X29337Y8603D01*
X29337Y15511D01*
X39180Y15511D01*
X39298Y15526D01*
X39417Y15533D01*
X39455Y15546D01*
X39495Y15551D01*
X39606Y15594D01*
X39719Y15631D01*
X39753Y15653D01*
X39791Y15668D01*
X39887Y15738D01*
X39988Y15801D01*
X40016Y15831D01*
X40048Y15854D01*
X40124Y15946D01*
X40206Y16033D01*
X40225Y16068D01*
X40251Y16099D01*
X40302Y16207D01*
X40359Y16311D01*
X40370Y16351D01*
X40387Y16387D01*
X40409Y16504D01*
X40439Y16619D01*
X40443Y16680D01*
X40447Y16700D01*
X40445Y16720D01*
X40449Y16780D01*
X40449Y18051D01*
X40451Y18051D01*
X40451Y16780D01*
X40466Y16662D01*
X40473Y16543D01*
X40486Y16505D01*
X40491Y16464D01*
X40535Y16354D01*
X40571Y16241D01*
X40593Y16206D01*
X40608Y16169D01*
X40678Y16073D01*
X40741Y15972D01*
X40771Y15944D01*
X40795Y15911D01*
X40886Y15836D01*
X40973Y15754D01*
X41008Y15734D01*
X41040Y15709D01*
X41147Y15658D01*
X41252Y15600D01*
X41291Y15590D01*
X41327Y15573D01*
X41444Y15551D01*
X41559Y15521D01*
X41620Y15517D01*
X41640Y15513D01*
X41660Y15515D01*
X41720Y15511D01*
X42390Y15511D01*
X74930Y15511D01*
X75048Y15526D01*
X75167Y15533D01*
X75205Y15546D01*
X75245Y15551D01*
X75356Y15594D01*
X75469Y15631D01*
X75504Y15653D01*
X75541Y15668D01*
X75637Y15738D01*
X75738Y15801D01*
X75766Y15831D01*
X75798Y15855D01*
X75874Y15946D01*
X75956Y16033D01*
X75975Y16068D01*
X76001Y16099D01*
X76052Y16207D01*
X76109Y16311D01*
X76120Y16351D01*
X76137Y16387D01*
X76159Y16504D01*
X76189Y16619D01*
X76193Y16680D01*
X76197Y16700D01*
X76195Y16720D01*
X76199Y16780D01*
X76199Y18051D01*
X76201Y18051D01*
X76201Y16780D01*
X76216Y16662D01*
X76223Y16543D01*
X76236Y16505D01*
X76241Y16465D01*
X76285Y16354D01*
X76321Y16241D01*
X76343Y16206D01*
X76358Y16169D01*
X76428Y16073D01*
X76491Y15972D01*
X76521Y15944D01*
X76545Y15911D01*
X76636Y15836D01*
X76723Y15754D01*
X76758Y15734D01*
X76790Y15709D01*
X76897Y15658D01*
X77001Y15600D01*
X77041Y15590D01*
X77077Y15573D01*
X77194Y15551D01*
X77309Y15521D01*
X77370Y15517D01*
X77390Y15513D01*
X77410Y15515D01*
X77470Y15511D01*
X110009Y15511D01*
X110010Y15511D01*
X110680Y15511D01*
X110798Y15526D01*
X110917Y15533D01*
X110955Y15546D01*
X110995Y15551D01*
X111106Y15594D01*
X111219Y15631D01*
X111253Y15653D01*
X111291Y15668D01*
X111387Y15738D01*
X111488Y15801D01*
X111516Y15831D01*
X111548Y15854D01*
X111624Y15946D01*
X111706Y16033D01*
X111725Y16068D01*
X111751Y16099D01*
X111802Y16207D01*
X111859Y16311D01*
X111870Y16351D01*
X111887Y16387D01*
X111909Y16504D01*
X111939Y16619D01*
X111943Y16680D01*
X111947Y16700D01*
X111945Y16720D01*
X111949Y16780D01*
X111949Y18051D01*
X111951Y18051D01*
X111951Y16780D01*
X111966Y16662D01*
X111973Y16543D01*
X111986Y16505D01*
X111991Y16464D01*
X112035Y16354D01*
X112071Y16241D01*
X112093Y16206D01*
X112108Y16169D01*
X112178Y16073D01*
X112241Y15972D01*
X112271Y15944D01*
X112295Y15911D01*
X112386Y15836D01*
X112473Y15754D01*
X112508Y15734D01*
X112540Y15709D01*
X112647Y15658D01*
X112752Y15600D01*
X112791Y15590D01*
X112827Y15573D01*
X112944Y15551D01*
X113059Y15521D01*
X113120Y15517D01*
X113140Y15513D01*
X113160Y15515D01*
X113220Y15511D01*
X123063Y15511D01*
X123063Y8603D01*
X122790Y6875D01*
X122334Y5472D01*
X122297Y5281D01*
X122274Y5160D01*
X122285Y4985D01*
X122294Y4843D01*
X122294Y4842D01*
X122346Y4683D01*
X122392Y4541D01*
X122392Y4540D01*
X122481Y4399D01*
X122562Y4272D01*
X122563Y4271D01*
X122659Y4181D01*
X122794Y4054D01*
X122924Y3982D01*
X123072Y3900D01*
X123073Y3900D01*
X123239Y3857D01*
X123380Y3821D01*
X123381Y3821D01*
X123382Y3821D01*
X123541Y3811D01*
X147320Y3811D01*
X147438Y3826D01*
X147557Y3833D01*
X147595Y3846D01*
X147636Y3851D01*
X147746Y3894D01*
X147859Y3931D01*
X147894Y3953D01*
X147931Y3968D01*
X148027Y4037D01*
X148128Y4101D01*
X148156Y4131D01*
X148189Y4154D01*
X148265Y4246D01*
X148346Y4333D01*
X148366Y4368D01*
X148391Y4399D01*
X148442Y4507D01*
X148500Y4611D01*
X148510Y4651D01*
X148527Y4687D01*
X148549Y4804D01*
X148579Y4919D01*
X148583Y4979D01*
X148587Y4999D01*
X148585Y5020D01*
X148589Y5080D01*
X148589Y16091D01*
X148572Y16229D01*
X148559Y16367D01*
X148552Y16386D01*
X148549Y16406D01*
X148498Y16535D01*
X148451Y16666D01*
X148440Y16683D01*
X148432Y16702D01*
X148351Y16814D01*
X148273Y16929D01*
X148257Y16943D01*
X148246Y16959D01*
X148138Y17048D01*
X148034Y17140D01*
X148016Y17149D01*
X148001Y17162D01*
X147875Y17221D01*
X147751Y17284D01*
X147731Y17289D01*
X147713Y17297D01*
X147576Y17324D01*
X147441Y17354D01*
X147420Y17353D01*
X147401Y17357D01*
X147262Y17349D01*
X147123Y17344D01*
X147103Y17339D01*
X147083Y17338D01*
X146951Y17295D01*
X146817Y17256D01*
X146800Y17246D01*
X146781Y17239D01*
X146663Y17165D01*
X146543Y17094D01*
X146522Y17076D01*
X146512Y17069D01*
X146498Y17054D01*
X146423Y16988D01*
X145681Y16247D01*
X144760Y15715D01*
X143732Y15439D01*
X142199Y15439D01*
X142199Y21750D01*
X142184Y21868D01*
X142177Y21987D01*
X142164Y22025D01*
X142159Y22065D01*
X142116Y22176D01*
X142079Y22289D01*
X142057Y22323D01*
X142042Y22361D01*
X141973Y22457D01*
X141909Y22558D01*
X141879Y22586D01*
X141856Y22618D01*
X141764Y22694D01*
X141677Y22776D01*
X141642Y22795D01*
X141611Y22821D01*
X141503Y22872D01*
X141399Y22929D01*
X141359Y22939D01*
X141323Y22957D01*
X141216Y22977D01*
X141246Y22981D01*
X141356Y23025D01*
X141469Y23061D01*
X141504Y23083D01*
X141541Y23098D01*
X141637Y23168D01*
X141738Y23231D01*
X141766Y23261D01*
X141799Y23285D01*
X141875Y23376D01*
X141956Y23463D01*
X141976Y23498D01*
X142001Y23530D01*
X142052Y23637D01*
X142110Y23742D01*
X142120Y23781D01*
X142137Y23817D01*
X142159Y23934D01*
X142189Y24050D01*
X142193Y24110D01*
X142197Y24130D01*
X142195Y24150D01*
X142199Y24210D01*
X142199Y30521D01*
X143732Y30521D01*
X144760Y30245D01*
X145681Y29713D01*
X146423Y28972D01*
X146532Y28887D01*
X146639Y28798D01*
X146658Y28789D01*
X146674Y28777D01*
X146802Y28722D01*
X146927Y28663D01*
X146947Y28659D01*
X146966Y28651D01*
X147104Y28629D01*
X147240Y28603D01*
X147260Y28604D01*
X147280Y28601D01*
X147419Y28614D01*
X147557Y28622D01*
X147576Y28629D01*
X147596Y28631D01*
X147727Y28678D01*
X147859Y28721D01*
X147877Y28731D01*
X147896Y28738D01*
X148010Y28816D01*
X148128Y28891D01*
X148142Y28905D01*
X148159Y28917D01*
X148251Y29021D01*
X148346Y29122D01*
X148356Y29140D01*
X148369Y29155D01*
X148432Y29279D01*
X148500Y29401D01*
X148505Y29420D01*
X148514Y29438D01*
X148544Y29574D01*
X148579Y29709D01*
X148581Y29737D01*
X148584Y29749D01*
X148583Y29769D01*
X148589Y29869D01*
X148589Y34349D01*
X148572Y34486D01*
X148559Y34625D01*
X148552Y34645D01*
X148549Y34665D01*
X148498Y34793D01*
X148451Y34925D01*
X148440Y34941D01*
X148432Y34960D01*
X148351Y35073D01*
X148273Y35188D01*
X148257Y35201D01*
X148246Y35218D01*
X148138Y35306D01*
X148034Y35398D01*
X148016Y35407D01*
X148001Y35420D01*
X147875Y35480D01*
X147751Y35543D01*
X147731Y35547D01*
X147713Y35556D01*
X147577Y35582D01*
X147441Y35613D01*
X147420Y35612D01*
X147401Y35616D01*
X147262Y35607D01*
X147123Y35603D01*
X147103Y35597D01*
X147083Y35596D01*
X146951Y35553D01*
X146817Y35514D01*
X146800Y35504D01*
X146781Y35498D01*
X146663Y35423D01*
X146543Y35353D01*
X146522Y35334D01*
X146512Y35328D01*
X146498Y35313D01*
X146423Y35247D01*
X144663Y33487D01*
X134737Y33487D01*
X132667Y35557D01*
X132667Y45483D01*
X134737Y47553D01*
X135128Y47553D01*
X135246Y47568D01*
X135365Y47575D01*
X135403Y47588D01*
X135444Y47593D01*
X135554Y47636D01*
X135667Y47673D01*
X135702Y47695D01*
X135739Y47710D01*
X135835Y47779D01*
X135936Y47843D01*
X135964Y47873D01*
X135997Y47896D01*
X136073Y47988D01*
X136154Y48075D01*
X136174Y48110D01*
X136199Y48141D01*
X136250Y48249D01*
X136308Y48353D01*
X136318Y48393D01*
X136335Y48429D01*
X136357Y48546D01*
X136387Y48661D01*
X136391Y48721D01*
X136395Y48741D01*
X136393Y48762D01*
X136397Y48822D01*
X136397Y63062D01*
X136380Y63199D01*
X136367Y63339D01*
X136360Y63358D01*
X136357Y63378D01*
X136306Y63507D01*
X136259Y63638D01*
X136248Y63655D01*
X136240Y63673D01*
X136159Y63786D01*
X136081Y63901D01*
X136065Y63914D01*
X136054Y63931D01*
X135946Y64020D01*
X135842Y64112D01*
X135824Y64121D01*
X135809Y64134D01*
X135683Y64193D01*
X135559Y64256D01*
X135539Y64261D01*
X135521Y64269D01*
X135384Y64295D01*
X135249Y64326D01*
X135228Y64325D01*
X135209Y64329D01*
X135070Y64320D01*
X134931Y64316D01*
X134911Y64310D01*
X134891Y64309D01*
X134759Y64266D01*
X134625Y64228D01*
X134608Y64217D01*
X134589Y64211D01*
X134471Y64137D01*
X134351Y64066D01*
X134330Y64048D01*
X134320Y64041D01*
X134306Y64026D01*
X134231Y63960D01*
X132571Y62300D01*
X129986Y61230D01*
X127189Y61230D01*
X124604Y62300D01*
X122625Y64279D01*
X121555Y66864D01*
X121555Y69661D01*
X122625Y72246D01*
X124604Y74225D01*
X127189Y75295D01*
X129986Y75295D01*
X132571Y74225D01*
X134231Y72565D01*
X134340Y72480D01*
X134447Y72391D01*
X134466Y72383D01*
X134482Y72370D01*
X134610Y72315D01*
X134735Y72256D01*
X134755Y72252D01*
X134774Y72244D01*
X134912Y72222D01*
X135048Y72196D01*
X135068Y72197D01*
X135088Y72194D01*
X135227Y72207D01*
X135365Y72216D01*
X135384Y72222D01*
X135404Y72224D01*
X135536Y72271D01*
X135667Y72314D01*
X135685Y72325D01*
X135704Y72332D01*
X135819Y72410D01*
X135936Y72484D01*
X135950Y72499D01*
X135967Y72510D01*
X136059Y72614D01*
X136154Y72716D01*
X136164Y72733D01*
X136177Y72749D01*
X136241Y72873D01*
X136308Y72994D01*
X136313Y73014D01*
X136322Y73032D01*
X136352Y73168D01*
X136387Y73302D01*
X136389Y73330D01*
X136392Y73342D01*
X136391Y73363D01*
X136397Y73463D01*
X136397Y81118D01*
X136382Y81236D01*
X136375Y81355D01*
X136362Y81393D01*
X136357Y81434D01*
X136314Y81544D01*
X136277Y81657D01*
X136255Y81692D01*
X136240Y81729D01*
X136171Y81825D01*
X136107Y81926D01*
X136077Y81954D01*
X136054Y81987D01*
X135962Y82063D01*
X135875Y82144D01*
X135840Y82164D01*
X135809Y82189D01*
X135701Y82240D01*
X135597Y82298D01*
X135557Y82308D01*
X135521Y82325D01*
X135404Y82347D01*
X135289Y82377D01*
X135229Y82381D01*
X135209Y82385D01*
X135188Y82383D01*
X135128Y82387D01*
X133858Y82387D01*
X132950Y83296D01*
X132850Y83373D01*
X132755Y83455D01*
X132725Y83470D01*
X132698Y83491D01*
X132583Y83541D01*
X132470Y83597D01*
X132437Y83604D01*
X132406Y83617D01*
X132282Y83637D01*
X132159Y83663D01*
X132126Y83662D01*
X132092Y83667D01*
X131967Y83655D01*
X131842Y83650D01*
X131809Y83640D01*
X131776Y83637D01*
X131657Y83594D01*
X131537Y83558D01*
X131508Y83541D01*
X131476Y83529D01*
X131372Y83459D01*
X131265Y83394D01*
X131241Y83370D01*
X131213Y83351D01*
X131130Y83257D01*
X131042Y83167D01*
X131015Y83126D01*
X131003Y83112D01*
X130993Y83093D01*
X130953Y83033D01*
X130853Y82860D01*
X130380Y82387D01*
X129801Y82052D01*
X129154Y81879D01*
X126319Y81879D01*
X126319Y88690D01*
X126304Y88808D01*
X126297Y88927D01*
X126284Y88965D01*
X126279Y89005D01*
X126236Y89116D01*
X126199Y89229D01*
X126177Y89263D01*
X126162Y89301D01*
X126093Y89397D01*
X126029Y89498D01*
X125999Y89526D01*
X125976Y89558D01*
X125884Y89634D01*
X125797Y89716D01*
X125762Y89735D01*
X125731Y89761D01*
X125623Y89812D01*
X125519Y89869D01*
X125479Y89879D01*
X125443Y89897D01*
X125326Y89919D01*
X125211Y89949D01*
X125151Y89953D01*
X125131Y89956D01*
X125110Y89955D01*
X125050Y89959D01*
X123859Y89959D01*
X123859Y91150D01*
X123844Y91268D01*
X123837Y91387D01*
X123824Y91425D01*
X123819Y91466D01*
X123775Y91576D01*
X123739Y91689D01*
X123717Y91724D01*
X123702Y91761D01*
X123632Y91857D01*
X123569Y91958D01*
X123539Y91986D01*
X123515Y92019D01*
X123424Y92095D01*
X123337Y92176D01*
X123302Y92196D01*
X123270Y92221D01*
X123163Y92272D01*
X123058Y92330D01*
X123019Y92340D01*
X122983Y92357D01*
X122866Y92379D01*
X122750Y92409D01*
X122690Y92413D01*
X122670Y92417D01*
X122650Y92415D01*
X122590Y92419D01*
X109970Y92419D01*
X109852Y92404D01*
X109733Y92397D01*
X109695Y92384D01*
X109655Y92379D01*
X109544Y92336D01*
X109431Y92299D01*
X109397Y92277D01*
X109359Y92262D01*
X109263Y92193D01*
X109162Y92129D01*
X109134Y92099D01*
X109102Y92076D01*
X109026Y91984D01*
X108944Y91897D01*
X108925Y91862D01*
X108899Y91831D01*
X108848Y91723D01*
X108791Y91619D01*
X108781Y91579D01*
X108763Y91543D01*
X108743Y91436D01*
X108739Y91466D01*
X108695Y91576D01*
X108659Y91689D01*
X108637Y91724D01*
X108622Y91761D01*
X108552Y91857D01*
X108489Y91958D01*
X108459Y91986D01*
X108435Y92019D01*
X108344Y92095D01*
X108257Y92176D01*
X108222Y92196D01*
X108190Y92221D01*
X108083Y92272D01*
X107978Y92330D01*
X107939Y92340D01*
X107903Y92357D01*
X107786Y92379D01*
X107670Y92409D01*
X107610Y92413D01*
X107590Y92417D01*
X107570Y92415D01*
X107510Y92419D01*
X100601Y92419D01*
X100483Y92404D01*
X100364Y92397D01*
X100326Y92384D01*
X100285Y92379D01*
X100175Y92336D01*
X100062Y92299D01*
X100027Y92277D01*
X99990Y92262D01*
X99894Y92193D01*
X99793Y92129D01*
X99765Y92099D01*
X99732Y92076D01*
X99656Y91984D01*
X99575Y91897D01*
X99555Y91862D01*
X99530Y91831D01*
X99479Y91723D01*
X99421Y91619D01*
X99411Y91579D01*
X99394Y91543D01*
X99372Y91426D01*
X99342Y91311D01*
X99338Y91251D01*
X99334Y91231D01*
X99336Y91210D01*
X99332Y91150D01*
X99332Y90294D01*
X90896Y90294D01*
X90826Y90285D01*
X90786Y90288D01*
X90766Y90292D01*
X90746Y90290D01*
X90686Y90294D01*
X81772Y90294D01*
X81695Y90362D01*
X81677Y90371D01*
X81662Y90384D01*
X81536Y90443D01*
X81412Y90506D01*
X81392Y90511D01*
X81374Y90520D01*
X81237Y90546D01*
X81102Y90576D01*
X81081Y90576D01*
X81062Y90579D01*
X80923Y90571D01*
X80784Y90566D01*
X80764Y90561D01*
X80744Y90560D01*
X80612Y90517D01*
X80478Y90478D01*
X80461Y90468D01*
X80442Y90462D01*
X80324Y90387D01*
X80204Y90317D01*
X80183Y90298D01*
X80173Y90291D01*
X80159Y90276D01*
X80084Y90210D01*
X79100Y89226D01*
X79099Y89226D01*
X75926Y86053D01*
X75926Y86052D01*
X74735Y84860D01*
X73046Y84860D01*
X73045Y84860D01*
X72879Y84860D01*
X72781Y84848D01*
X72682Y84845D01*
X72624Y84828D01*
X72563Y84820D01*
X72472Y84784D01*
X72377Y84756D01*
X72324Y84725D01*
X72268Y84703D01*
X72188Y84645D01*
X72103Y84595D01*
X72027Y84528D01*
X72011Y84516D01*
X72003Y84507D01*
X71982Y84488D01*
X71631Y84137D01*
X57947Y84137D01*
X57621Y84463D01*
X57543Y84524D01*
X57470Y84592D01*
X57417Y84621D01*
X57370Y84658D01*
X57279Y84698D01*
X57192Y84746D01*
X57133Y84761D01*
X57078Y84785D01*
X56980Y84800D01*
X56884Y84825D01*
X56784Y84831D01*
X56764Y84835D01*
X56751Y84833D01*
X56723Y84835D01*
X42766Y84835D01*
X40691Y86911D01*
X40596Y86984D01*
X40507Y87063D01*
X40471Y87081D01*
X40439Y87106D01*
X40330Y87153D01*
X40224Y87207D01*
X40185Y87216D01*
X40148Y87232D01*
X40030Y87251D01*
X39914Y87277D01*
X39873Y87276D01*
X39833Y87282D01*
X39715Y87271D01*
X39596Y87267D01*
X39557Y87256D01*
X39517Y87252D01*
X39405Y87212D01*
X39290Y87179D01*
X39256Y87158D01*
X39218Y87145D01*
X39119Y87078D01*
X39016Y87017D01*
X38971Y86978D01*
X38954Y86966D01*
X38941Y86951D01*
X38896Y86911D01*
X38502Y86517D01*
X21794Y86517D01*
X21790Y86521D01*
X21683Y86610D01*
X21664Y86618D01*
X21648Y86631D01*
X21520Y86686D01*
X21395Y86745D01*
X21375Y86749D01*
X21356Y86757D01*
X21219Y86779D01*
X21082Y86805D01*
X21062Y86804D01*
X21042Y86807D01*
X20904Y86794D01*
X20765Y86785D01*
X20746Y86779D01*
X20726Y86777D01*
X20595Y86730D01*
X20463Y86687D01*
X20445Y86676D01*
X20426Y86670D01*
X20311Y86591D01*
X20194Y86517D01*
X20180Y86502D01*
X20163Y86491D01*
X20071Y86387D01*
X19976Y86285D01*
X19966Y86268D01*
X19953Y86253D01*
X19889Y86129D01*
X19822Y86007D01*
X19817Y85987D01*
X19808Y85969D01*
X19778Y85834D01*
X19743Y85699D01*
X19741Y85671D01*
X19738Y85659D01*
X19739Y85639D01*
X19733Y85538D01*
X19733Y83578D01*
X18542Y82387D01*
X17272Y82387D01*
X17154Y82372D01*
X17035Y82365D01*
X16997Y82352D01*
X16956Y82347D01*
X16846Y82304D01*
X16733Y82267D01*
X16698Y82245D01*
X16661Y82230D01*
X16565Y82161D01*
X16464Y82097D01*
X16436Y82067D01*
X16403Y82044D01*
X16327Y81952D01*
X16246Y81865D01*
X16226Y81830D01*
X16201Y81799D01*
X16150Y81691D01*
X16092Y81587D01*
X16082Y81547D01*
X16065Y81511D01*
X16043Y81394D01*
X16013Y81279D01*
X16009Y81219D01*
X16005Y81199D01*
X16007Y81178D01*
X16003Y81118D01*
X16003Y48822D01*
X16018Y48704D01*
X16025Y48585D01*
X16038Y48547D01*
X16043Y48506D01*
X16086Y48396D01*
X16123Y48283D01*
X16145Y48248D01*
X16160Y48211D01*
X16229Y48115D01*
X16293Y48014D01*
X16323Y47986D01*
X16346Y47953D01*
X16438Y47877D01*
X16525Y47796D01*
X16560Y47776D01*
X16591Y47751D01*
X16699Y47700D01*
X16803Y47642D01*
X16843Y47632D01*
X16879Y47615D01*
X16996Y47593D01*
X17111Y47563D01*
X17171Y47559D01*
X17191Y47555D01*
X17212Y47557D01*
X17272Y47553D01*
X17663Y47553D01*
X19733Y45483D01*
X19733Y35557D01*
X17663Y33487D01*
X7737Y33487D01*
X5977Y35247D01*
X5868Y35332D01*
X5761Y35420D01*
X5742Y35429D01*
X5726Y35441D01*
X5598Y35497D01*
X5473Y35556D01*
X5453Y35560D01*
X5434Y35568D01*
X5296Y35590D01*
X5160Y35616D01*
X5140Y35614D01*
X5120Y35618D01*
X4981Y35605D01*
X4843Y35596D01*
X4824Y35590D01*
X4804Y35588D01*
X4672Y35541D01*
X4541Y35498D01*
X4523Y35487D01*
X4504Y35480D01*
X4389Y35402D01*
X4272Y35328D01*
X4258Y35313D01*
X4241Y35302D01*
X4149Y35197D01*
X4054Y35096D01*
X4044Y35078D01*
X4031Y35063D01*
X3967Y34939D01*
X3900Y34818D01*
X3895Y34798D01*
X3886Y34780D01*
X3856Y34644D01*
X3821Y34510D01*
X3819Y34482D01*
X3816Y34470D01*
X3817Y34449D01*
X3811Y34349D01*
X3811Y29869D01*
X3828Y29731D01*
X3841Y29593D01*
X3848Y29574D01*
X3851Y29554D01*
X3902Y29425D01*
X3949Y29294D01*
X3960Y29277D01*
X3968Y29258D01*
X4049Y29146D01*
X4127Y29031D01*
X4143Y29017D01*
X4154Y29001D01*
X4262Y28912D01*
X4366Y28820D01*
X4384Y28811D01*
X4399Y28798D01*
X4525Y28739D01*
X4649Y28676D01*
X4669Y28671D01*
X4687Y28663D01*
X4824Y28636D01*
X4959Y28606D01*
X4980Y28607D01*
X4999Y28603D01*
X5138Y28611D01*
X5277Y28616D01*
X5297Y28621D01*
X5317Y28622D01*
X5449Y28665D01*
X5583Y28704D01*
X5600Y28714D01*
X5619Y28721D01*
X5737Y28795D01*
X5857Y28866D01*
X5878Y28884D01*
X5888Y28891D01*
X5902Y28906D01*
X5977Y28972D01*
X6719Y29713D01*
X7640Y30245D01*
X8668Y30521D01*
X10201Y30521D01*
X10201Y24210D01*
X10216Y24092D01*
X10223Y23973D01*
X10235Y23935D01*
X10241Y23895D01*
X10284Y23784D01*
X10321Y23671D01*
X10343Y23637D01*
X10358Y23599D01*
X10427Y23503D01*
X10491Y23402D01*
X10521Y23374D01*
X10544Y23342D01*
X10636Y23266D01*
X10723Y23184D01*
X10758Y23165D01*
X10789Y23139D01*
X10897Y23088D01*
X11001Y23031D01*
X11041Y23021D01*
X11077Y23003D01*
X11184Y22983D01*
X11154Y22979D01*
X11044Y22935D01*
X10931Y22899D01*
X10896Y22877D01*
X10859Y22862D01*
X10762Y22792D01*
X10662Y22729D01*
X10634Y22699D01*
X10601Y22675D01*
X10525Y22584D01*
X10444Y22497D01*
X10424Y22462D01*
X10399Y22430D01*
X10348Y22323D01*
X10290Y22218D01*
X10280Y22179D01*
X10263Y22143D01*
X10241Y22026D01*
X10211Y21910D01*
X10207Y21850D01*
X10203Y21830D01*
X10205Y21810D01*
X10201Y21750D01*
X10201Y15439D01*
X8668Y15439D01*
X7640Y15715D01*
X6719Y16247D01*
X5977Y16988D01*
X5868Y17073D01*
X5761Y17162D01*
X5742Y17171D01*
X5726Y17183D01*
X5598Y17238D01*
X5473Y17297D01*
X5453Y17301D01*
X5434Y17309D01*
X5296Y17331D01*
X5160Y17357D01*
X5140Y17356D01*
X5120Y17359D01*
X4981Y17346D01*
X4843Y17338D01*
X4824Y17331D01*
X4804Y17329D01*
X4673Y17282D01*
X4541Y17239D01*
X4523Y17229D01*
X4504Y17222D01*
X4390Y17144D01*
X4272Y17069D01*
X4258Y17055D01*
X4241Y17043D01*
X4149Y16939D01*
X4054Y16838D01*
X4044Y16820D01*
X4031Y16805D01*
X3968Y16681D01*
X3900Y16559D01*
X3895Y16540D01*
X3886Y16522D01*
X3856Y16386D01*
X3821Y16251D01*
X3819Y16223D01*
X3816Y16211D01*
X3817Y16191D01*
X3811Y16091D01*
X3811Y5080D01*
X3826Y4962D01*
X3833Y4843D01*
X3846Y4805D01*
X3851Y4764D01*
X3894Y4654D01*
X3931Y4541D01*
X3953Y4506D01*
X3968Y4469D01*
X4037Y4373D01*
X4101Y4272D01*
X4131Y4244D01*
X4154Y4211D01*
X4246Y4135D01*
X4333Y4054D01*
X4368Y4034D01*
X4399Y4009D01*
X4507Y3958D01*
X4611Y3900D01*
X4651Y3890D01*
X4687Y3873D01*
X4804Y3851D01*
X4919Y3821D01*
X4979Y3817D01*
X4999Y3813D01*
X5020Y3815D01*
X5080Y3811D01*
X28859Y3811D01*
X29026Y3832D01*
G37*
%LPC*%
G36*
X131076Y236219D02*
X131076Y236219D01*
X126875Y237959D01*
X123659Y241175D01*
X121919Y245376D01*
X121919Y249924D01*
X122200Y250600D01*
X122218Y250668D01*
X122246Y250732D01*
X122260Y250821D01*
X122284Y250907D01*
X122285Y250977D01*
X122296Y251046D01*
X122287Y251135D01*
X122289Y251225D01*
X122272Y251293D01*
X122266Y251363D01*
X122235Y251447D01*
X122214Y251534D01*
X122182Y251596D01*
X122158Y251662D01*
X122108Y251736D01*
X122066Y251816D01*
X122019Y251867D01*
X121980Y251925D01*
X121912Y251984D01*
X121852Y252051D01*
X121794Y252089D01*
X121741Y252135D01*
X121661Y252176D01*
X121586Y252226D01*
X121520Y252248D01*
X121458Y252280D01*
X121370Y252300D01*
X121285Y252329D01*
X121216Y252334D01*
X121148Y252350D01*
X121058Y252347D01*
X120968Y252354D01*
X120900Y252342D01*
X120830Y252340D01*
X120743Y252315D01*
X120655Y252300D01*
X120591Y252271D01*
X120524Y252252D01*
X120447Y252206D01*
X120365Y252169D01*
X120310Y252126D01*
X120250Y252090D01*
X120129Y251984D01*
X118524Y250379D01*
X118464Y250300D01*
X118396Y250228D01*
X118367Y250175D01*
X118330Y250127D01*
X118290Y250036D01*
X118242Y249950D01*
X118227Y249891D01*
X118203Y249836D01*
X118188Y249738D01*
X118163Y249642D01*
X118157Y249542D01*
X118153Y249522D01*
X118155Y249509D01*
X118153Y249481D01*
X118153Y242338D01*
X116962Y241147D01*
X105278Y241147D01*
X104087Y242338D01*
X104087Y255022D01*
X105348Y256283D01*
X105421Y256377D01*
X105500Y256466D01*
X105518Y256502D01*
X105543Y256534D01*
X105590Y256643D01*
X105644Y256749D01*
X105653Y256788D01*
X105669Y256826D01*
X105688Y256943D01*
X105714Y257059D01*
X105713Y257100D01*
X105719Y257140D01*
X105708Y257258D01*
X105704Y257377D01*
X105693Y257416D01*
X105689Y257456D01*
X105649Y257568D01*
X105616Y257683D01*
X105595Y257718D01*
X105582Y257756D01*
X105515Y257854D01*
X105454Y257957D01*
X105414Y258002D01*
X105403Y258019D01*
X105388Y258032D01*
X105348Y258078D01*
X104087Y259338D01*
X104087Y272022D01*
X105278Y273213D01*
X106402Y273213D01*
X106540Y273230D01*
X106679Y273243D01*
X106698Y273250D01*
X106718Y273253D01*
X106847Y273304D01*
X106978Y273351D01*
X106995Y273362D01*
X107013Y273370D01*
X107126Y273451D01*
X107241Y273529D01*
X107254Y273545D01*
X107271Y273556D01*
X107360Y273664D01*
X107452Y273768D01*
X107461Y273786D01*
X107474Y273801D01*
X107533Y273927D01*
X107596Y274051D01*
X107601Y274071D01*
X107609Y274089D01*
X107635Y274225D01*
X107666Y274361D01*
X107665Y274382D01*
X107669Y274401D01*
X107660Y274540D01*
X107656Y274679D01*
X107650Y274699D01*
X107649Y274719D01*
X107606Y274851D01*
X107568Y274985D01*
X107557Y275002D01*
X107551Y275021D01*
X107477Y275139D01*
X107406Y275259D01*
X107388Y275280D01*
X107381Y275290D01*
X107366Y275304D01*
X107300Y275380D01*
X106954Y275726D01*
X106875Y275786D01*
X106803Y275854D01*
X106750Y275883D01*
X106702Y275920D01*
X106611Y275960D01*
X106525Y276008D01*
X106466Y276023D01*
X106411Y276047D01*
X106313Y276062D01*
X106217Y276087D01*
X106117Y276093D01*
X106096Y276097D01*
X106084Y276095D01*
X106056Y276097D01*
X74832Y276097D01*
X66547Y284382D01*
X66547Y290322D01*
X66532Y290440D01*
X66525Y290559D01*
X66512Y290597D01*
X66507Y290638D01*
X66464Y290748D01*
X66427Y290861D01*
X66405Y290896D01*
X66390Y290933D01*
X66321Y291029D01*
X66257Y291130D01*
X66227Y291158D01*
X66204Y291191D01*
X66112Y291267D01*
X66025Y291348D01*
X65990Y291368D01*
X65959Y291393D01*
X65855Y291442D01*
X64661Y292637D01*
X64561Y292714D01*
X64466Y292796D01*
X64436Y292811D01*
X64409Y292832D01*
X64294Y292881D01*
X64181Y292938D01*
X64148Y292945D01*
X64118Y292958D01*
X63993Y292978D01*
X63870Y293004D01*
X63837Y293003D01*
X63803Y293008D01*
X63678Y292996D01*
X63553Y292991D01*
X63520Y292981D01*
X63487Y292978D01*
X63368Y292935D01*
X63248Y292899D01*
X63219Y292882D01*
X63188Y292870D01*
X63083Y292800D01*
X62976Y292735D01*
X62952Y292711D01*
X62924Y292692D01*
X62841Y292597D01*
X62753Y292508D01*
X62726Y292467D01*
X62714Y292453D01*
X62704Y292434D01*
X62664Y292374D01*
X62485Y292064D01*
X62012Y291591D01*
X61433Y291256D01*
X60786Y291083D01*
X58800Y291083D01*
X58800Y303403D01*
X58785Y303521D01*
X58778Y303640D01*
X58765Y303678D01*
X58760Y303718D01*
X58738Y303774D01*
X58760Y303889D01*
X58790Y304005D01*
X58794Y304065D01*
X58798Y304085D01*
X58796Y304105D01*
X58800Y304165D01*
X58800Y316485D01*
X60786Y316485D01*
X61433Y316312D01*
X62012Y315977D01*
X62485Y315504D01*
X62664Y315194D01*
X62740Y315094D01*
X62811Y314990D01*
X62836Y314968D01*
X62856Y314941D01*
X62955Y314863D01*
X63049Y314780D01*
X63079Y314764D01*
X63105Y314743D01*
X63220Y314692D01*
X63332Y314635D01*
X63365Y314628D01*
X63396Y314614D01*
X63520Y314593D01*
X63643Y314565D01*
X63676Y314566D01*
X63709Y314561D01*
X63835Y314571D01*
X63960Y314575D01*
X63993Y314584D01*
X64026Y314587D01*
X64145Y314628D01*
X64266Y314663D01*
X64295Y314680D01*
X64327Y314692D01*
X64432Y314761D01*
X64540Y314825D01*
X64576Y314857D01*
X64592Y314867D01*
X64606Y314883D01*
X64661Y314931D01*
X65842Y316112D01*
X65852Y316119D01*
X65889Y316134D01*
X65985Y316203D01*
X66086Y316267D01*
X66114Y316297D01*
X66147Y316320D01*
X66223Y316412D01*
X66304Y316499D01*
X66324Y316534D01*
X66349Y316565D01*
X66400Y316673D01*
X66458Y316777D01*
X66468Y316817D01*
X66485Y316853D01*
X66507Y316970D01*
X66537Y317085D01*
X66541Y317145D01*
X66545Y317165D01*
X66543Y317186D01*
X66547Y317246D01*
X66547Y328306D01*
X66535Y328404D01*
X66532Y328503D01*
X66515Y328562D01*
X66507Y328622D01*
X66471Y328714D01*
X66443Y328809D01*
X66413Y328861D01*
X66390Y328917D01*
X66332Y328997D01*
X66282Y329083D01*
X66216Y329158D01*
X66204Y329175D01*
X66194Y329183D01*
X66176Y329204D01*
X64282Y331098D01*
X64203Y331158D01*
X64131Y331226D01*
X64078Y331255D01*
X64030Y331292D01*
X63939Y331332D01*
X63853Y331380D01*
X63794Y331395D01*
X63739Y331419D01*
X63641Y331434D01*
X63545Y331459D01*
X63445Y331465D01*
X63424Y331469D01*
X63412Y331467D01*
X63384Y331469D01*
X61226Y331469D01*
X57025Y333209D01*
X53809Y336425D01*
X52069Y340626D01*
X52069Y345174D01*
X53809Y349375D01*
X57025Y352591D01*
X61226Y354331D01*
X65774Y354331D01*
X69975Y352591D01*
X73191Y349375D01*
X74931Y345174D01*
X74931Y340626D01*
X73191Y336425D01*
X71641Y334875D01*
X71568Y334781D01*
X71489Y334692D01*
X71471Y334656D01*
X71446Y334624D01*
X71398Y334514D01*
X71344Y334409D01*
X71335Y334369D01*
X71319Y334332D01*
X71301Y334214D01*
X71275Y334098D01*
X71276Y334058D01*
X71269Y334018D01*
X71281Y333899D01*
X71284Y333780D01*
X71296Y333742D01*
X71299Y333701D01*
X71340Y333589D01*
X71373Y333475D01*
X71393Y333440D01*
X71407Y333402D01*
X71474Y333303D01*
X71534Y333201D01*
X71574Y333156D01*
X71585Y333139D01*
X71601Y333125D01*
X71641Y333080D01*
X73153Y331568D01*
X73153Y317246D01*
X73168Y317128D01*
X73175Y317009D01*
X73188Y316971D01*
X73193Y316930D01*
X73236Y316820D01*
X73273Y316707D01*
X73295Y316672D01*
X73310Y316635D01*
X73379Y316539D01*
X73443Y316438D01*
X73473Y316410D01*
X73496Y316377D01*
X73588Y316301D01*
X73675Y316220D01*
X73710Y316200D01*
X73741Y316175D01*
X73845Y316126D01*
X75303Y314668D01*
X75397Y314595D01*
X75486Y314516D01*
X75522Y314498D01*
X75554Y314473D01*
X75663Y314426D01*
X75769Y314372D01*
X75808Y314363D01*
X75846Y314347D01*
X75963Y314328D01*
X76079Y314302D01*
X76120Y314303D01*
X76160Y314297D01*
X76278Y314308D01*
X76397Y314312D01*
X76436Y314323D01*
X76476Y314327D01*
X76588Y314367D01*
X76703Y314400D01*
X76738Y314421D01*
X76776Y314434D01*
X76874Y314501D01*
X76977Y314562D01*
X77022Y314602D01*
X77039Y314613D01*
X77052Y314628D01*
X77098Y314668D01*
X78542Y316112D01*
X78552Y316119D01*
X78589Y316134D01*
X78685Y316203D01*
X78786Y316267D01*
X78814Y316297D01*
X78847Y316320D01*
X78923Y316412D01*
X79004Y316499D01*
X79024Y316534D01*
X79049Y316565D01*
X79100Y316673D01*
X79158Y316777D01*
X79168Y316817D01*
X79185Y316853D01*
X79207Y316970D01*
X79237Y317085D01*
X79241Y317145D01*
X79245Y317165D01*
X79243Y317186D01*
X79247Y317246D01*
X79247Y331568D01*
X80759Y333080D01*
X80832Y333174D01*
X80911Y333263D01*
X80929Y333299D01*
X80954Y333331D01*
X81002Y333441D01*
X81056Y333547D01*
X81065Y333586D01*
X81081Y333623D01*
X81099Y333741D01*
X81125Y333857D01*
X81124Y333897D01*
X81131Y333937D01*
X81119Y334056D01*
X81116Y334175D01*
X81104Y334214D01*
X81101Y334254D01*
X81060Y334366D01*
X81027Y334480D01*
X81007Y334515D01*
X80993Y334553D01*
X80926Y334652D01*
X80866Y334754D01*
X80826Y334799D01*
X80815Y334816D01*
X80799Y334830D01*
X80759Y334875D01*
X79209Y336425D01*
X77469Y340626D01*
X77469Y345174D01*
X79209Y349375D01*
X82425Y352591D01*
X86626Y354331D01*
X91174Y354331D01*
X95375Y352591D01*
X98591Y349375D01*
X100230Y345416D01*
X100294Y345304D01*
X100353Y345189D01*
X100373Y345166D01*
X100388Y345140D01*
X100478Y345047D01*
X100563Y344950D01*
X100588Y344933D01*
X100609Y344912D01*
X100720Y344844D01*
X100826Y344771D01*
X100855Y344761D01*
X100880Y344745D01*
X101004Y344707D01*
X101125Y344664D01*
X101155Y344661D01*
X101184Y344652D01*
X101313Y344646D01*
X101442Y344633D01*
X101472Y344638D01*
X101502Y344637D01*
X101628Y344663D01*
X101756Y344683D01*
X101784Y344695D01*
X101813Y344701D01*
X101930Y344758D01*
X102048Y344809D01*
X102072Y344827D01*
X102099Y344841D01*
X102197Y344925D01*
X102300Y345004D01*
X102318Y345027D01*
X102341Y345047D01*
X102415Y345153D01*
X102495Y345255D01*
X102507Y345282D01*
X102524Y345307D01*
X102570Y345428D01*
X102621Y345547D01*
X102631Y345588D01*
X102637Y345604D01*
X102639Y345626D01*
X102654Y345691D01*
X103236Y347483D01*
X104089Y349157D01*
X105194Y350678D01*
X106522Y352006D01*
X108043Y353111D01*
X109717Y353964D01*
X111504Y354545D01*
X111761Y354585D01*
X111761Y344170D01*
X111776Y344052D01*
X111783Y343933D01*
X111796Y343895D01*
X111801Y343855D01*
X111844Y343744D01*
X111881Y343631D01*
X111903Y343597D01*
X111918Y343559D01*
X111988Y343463D01*
X112051Y343362D01*
X112081Y343334D01*
X112104Y343302D01*
X112196Y343226D01*
X112283Y343144D01*
X112318Y343125D01*
X112349Y343099D01*
X112457Y343048D01*
X112561Y342991D01*
X112601Y342980D01*
X112637Y342963D01*
X112754Y342941D01*
X112869Y342911D01*
X112930Y342907D01*
X112950Y342903D01*
X112970Y342905D01*
X113030Y342901D01*
X114301Y342901D01*
X114301Y342899D01*
X113030Y342899D01*
X112912Y342884D01*
X112793Y342877D01*
X112755Y342864D01*
X112714Y342859D01*
X112604Y342815D01*
X112491Y342779D01*
X112456Y342757D01*
X112419Y342742D01*
X112323Y342672D01*
X112222Y342609D01*
X112194Y342579D01*
X112161Y342555D01*
X112086Y342464D01*
X112004Y342377D01*
X111984Y342342D01*
X111959Y342310D01*
X111908Y342203D01*
X111850Y342098D01*
X111840Y342059D01*
X111823Y342023D01*
X111801Y341906D01*
X111771Y341791D01*
X111767Y341730D01*
X111763Y341710D01*
X111765Y341690D01*
X111761Y341630D01*
X111761Y331215D01*
X111504Y331255D01*
X109717Y331836D01*
X108043Y332689D01*
X106522Y333794D01*
X105194Y335122D01*
X104089Y336643D01*
X103236Y338317D01*
X102646Y340134D01*
X102620Y340220D01*
X102590Y340346D01*
X102576Y340373D01*
X102568Y340402D01*
X102502Y340513D01*
X102442Y340627D01*
X102421Y340650D01*
X102406Y340676D01*
X102315Y340767D01*
X102228Y340863D01*
X102203Y340879D01*
X102181Y340901D01*
X102070Y340966D01*
X101962Y341037D01*
X101933Y341047D01*
X101908Y341063D01*
X101784Y341099D01*
X101661Y341141D01*
X101631Y341143D01*
X101602Y341151D01*
X101473Y341156D01*
X101344Y341166D01*
X101314Y341161D01*
X101284Y341162D01*
X101158Y341134D01*
X101031Y341111D01*
X101003Y341099D01*
X100974Y341092D01*
X100859Y341034D01*
X100741Y340981D01*
X100717Y340962D01*
X100690Y340948D01*
X100593Y340863D01*
X100492Y340782D01*
X100474Y340758D01*
X100452Y340738D01*
X100379Y340631D01*
X100301Y340528D01*
X100282Y340489D01*
X100273Y340475D01*
X100265Y340455D01*
X100230Y340384D01*
X98591Y336425D01*
X95375Y333209D01*
X91174Y331469D01*
X89016Y331469D01*
X88918Y331457D01*
X88819Y331454D01*
X88760Y331437D01*
X88700Y331429D01*
X88608Y331393D01*
X88513Y331365D01*
X88461Y331335D01*
X88405Y331312D01*
X88325Y331254D01*
X88239Y331204D01*
X88164Y331138D01*
X88147Y331126D01*
X88139Y331116D01*
X88118Y331098D01*
X86340Y329319D01*
X86255Y329210D01*
X86166Y329103D01*
X86158Y329084D01*
X86145Y329068D01*
X86090Y328940D01*
X86031Y328815D01*
X86027Y328795D01*
X86019Y328776D01*
X85997Y328638D01*
X85971Y328502D01*
X85972Y328482D01*
X85969Y328462D01*
X85982Y328323D01*
X85991Y328185D01*
X85997Y328166D01*
X85999Y328146D01*
X86046Y328014D01*
X86089Y327883D01*
X86100Y327865D01*
X86107Y327846D01*
X86185Y327731D01*
X86259Y327614D01*
X86274Y327600D01*
X86285Y327583D01*
X86389Y327491D01*
X86491Y327396D01*
X86508Y327386D01*
X86524Y327373D01*
X86647Y327309D01*
X86769Y327242D01*
X86789Y327237D01*
X86807Y327228D01*
X86943Y327198D01*
X87077Y327163D01*
X87105Y327161D01*
X87117Y327158D01*
X87138Y327159D01*
X87238Y327153D01*
X108048Y327153D01*
X126406Y308794D01*
X126430Y308776D01*
X126449Y308754D01*
X126508Y308712D01*
X126549Y308674D01*
X126594Y308649D01*
X126658Y308600D01*
X126685Y308588D01*
X126709Y308571D01*
X126795Y308538D01*
X126827Y308520D01*
X126860Y308512D01*
X126949Y308473D01*
X126979Y308469D01*
X127006Y308458D01*
X127116Y308446D01*
X127135Y308441D01*
X127164Y308439D01*
X127264Y308423D01*
X127293Y308426D01*
X127322Y308423D01*
X127451Y308441D01*
X127580Y308453D01*
X127608Y308463D01*
X127637Y308467D01*
X127790Y308519D01*
X131076Y309881D01*
X135624Y309881D01*
X139825Y308141D01*
X143041Y304925D01*
X144781Y300724D01*
X144781Y296176D01*
X143041Y291975D01*
X139825Y288759D01*
X135624Y287019D01*
X131076Y287019D01*
X126875Y288759D01*
X123659Y291975D01*
X121919Y296176D01*
X121919Y300724D01*
X122537Y302214D01*
X122545Y302243D01*
X122558Y302269D01*
X122586Y302396D01*
X122621Y302521D01*
X122621Y302551D01*
X122628Y302579D01*
X122624Y302709D01*
X122626Y302839D01*
X122619Y302868D01*
X122618Y302897D01*
X122582Y303022D01*
X122552Y303148D01*
X122538Y303175D01*
X122530Y303203D01*
X122464Y303314D01*
X122403Y303430D01*
X122383Y303451D01*
X122368Y303477D01*
X122262Y303598D01*
X105684Y320176D01*
X105605Y320236D01*
X105533Y320304D01*
X105480Y320333D01*
X105432Y320370D01*
X105341Y320410D01*
X105255Y320458D01*
X105196Y320473D01*
X105141Y320497D01*
X105043Y320512D01*
X104947Y320537D01*
X104847Y320543D01*
X104826Y320547D01*
X104814Y320545D01*
X104786Y320547D01*
X87122Y320547D01*
X87004Y320532D01*
X86885Y320525D01*
X86847Y320512D01*
X86806Y320507D01*
X86696Y320464D01*
X86583Y320427D01*
X86548Y320405D01*
X86511Y320390D01*
X86415Y320321D01*
X86314Y320257D01*
X86286Y320227D01*
X86253Y320204D01*
X86177Y320112D01*
X86096Y320025D01*
X86076Y319990D01*
X86051Y319959D01*
X86000Y319851D01*
X85942Y319747D01*
X85932Y319707D01*
X85915Y319671D01*
X85893Y319554D01*
X85863Y319439D01*
X85859Y319379D01*
X85855Y319359D01*
X85857Y319338D01*
X85853Y319278D01*
X85853Y317246D01*
X85868Y317128D01*
X85875Y317009D01*
X85888Y316971D01*
X85893Y316930D01*
X85936Y316820D01*
X85973Y316707D01*
X85995Y316672D01*
X86010Y316635D01*
X86079Y316539D01*
X86143Y316438D01*
X86173Y316410D01*
X86196Y316377D01*
X86288Y316301D01*
X86375Y316220D01*
X86410Y316200D01*
X86441Y316175D01*
X86545Y316126D01*
X88003Y314668D01*
X88097Y314595D01*
X88186Y314516D01*
X88222Y314498D01*
X88254Y314473D01*
X88363Y314426D01*
X88469Y314372D01*
X88508Y314363D01*
X88546Y314347D01*
X88663Y314328D01*
X88779Y314302D01*
X88820Y314303D01*
X88860Y314297D01*
X88978Y314308D01*
X89097Y314312D01*
X89136Y314323D01*
X89176Y314327D01*
X89288Y314367D01*
X89403Y314400D01*
X89438Y314421D01*
X89476Y314434D01*
X89574Y314501D01*
X89677Y314562D01*
X89722Y314602D01*
X89739Y314613D01*
X89752Y314628D01*
X89798Y314668D01*
X91106Y315977D01*
X99394Y315977D01*
X100585Y314786D01*
X100585Y292782D01*
X99394Y291591D01*
X91106Y291591D01*
X89798Y292900D01*
X89703Y292973D01*
X89614Y293052D01*
X89578Y293070D01*
X89546Y293095D01*
X89437Y293142D01*
X89331Y293196D01*
X89292Y293205D01*
X89254Y293221D01*
X89137Y293240D01*
X89021Y293266D01*
X88980Y293265D01*
X88940Y293271D01*
X88822Y293260D01*
X88703Y293256D01*
X88664Y293245D01*
X88624Y293241D01*
X88511Y293201D01*
X88397Y293168D01*
X88363Y293147D01*
X88324Y293134D01*
X88226Y293067D01*
X88123Y293006D01*
X88078Y292966D01*
X88061Y292955D01*
X88048Y292940D01*
X88003Y292900D01*
X86694Y291591D01*
X78406Y291591D01*
X77098Y292900D01*
X77003Y292973D01*
X76914Y293052D01*
X76878Y293070D01*
X76846Y293095D01*
X76737Y293142D01*
X76631Y293196D01*
X76592Y293205D01*
X76554Y293221D01*
X76437Y293240D01*
X76321Y293266D01*
X76280Y293265D01*
X76240Y293271D01*
X76122Y293260D01*
X76003Y293256D01*
X75964Y293245D01*
X75924Y293241D01*
X75811Y293201D01*
X75697Y293168D01*
X75663Y293147D01*
X75624Y293134D01*
X75526Y293067D01*
X75423Y293006D01*
X75378Y292966D01*
X75361Y292955D01*
X75348Y292940D01*
X75303Y292900D01*
X73858Y291456D01*
X73848Y291449D01*
X73811Y291434D01*
X73715Y291365D01*
X73614Y291301D01*
X73586Y291271D01*
X73553Y291248D01*
X73477Y291156D01*
X73396Y291069D01*
X73376Y291034D01*
X73351Y291003D01*
X73300Y290895D01*
X73242Y290791D01*
X73232Y290751D01*
X73215Y290715D01*
X73193Y290598D01*
X73163Y290483D01*
X73159Y290423D01*
X73155Y290403D01*
X73157Y290382D01*
X73153Y290322D01*
X73153Y287644D01*
X73165Y287546D01*
X73168Y287447D01*
X73185Y287388D01*
X73193Y287328D01*
X73229Y287236D01*
X73257Y287141D01*
X73287Y287089D01*
X73310Y287033D01*
X73368Y286953D01*
X73418Y286867D01*
X73484Y286792D01*
X73496Y286775D01*
X73506Y286767D01*
X73524Y286746D01*
X77196Y283074D01*
X77275Y283014D01*
X77347Y282946D01*
X77400Y282917D01*
X77448Y282880D01*
X77539Y282840D01*
X77625Y282792D01*
X77684Y282777D01*
X77739Y282753D01*
X77837Y282738D01*
X77933Y282713D01*
X78033Y282707D01*
X78054Y282703D01*
X78066Y282705D01*
X78094Y282703D01*
X109318Y282703D01*
X112122Y279899D01*
X112128Y279894D01*
X113445Y278576D01*
X114428Y277592D01*
X114428Y276211D01*
X114428Y274482D01*
X114443Y274364D01*
X114450Y274245D01*
X114463Y274207D01*
X114468Y274166D01*
X114511Y274056D01*
X114548Y273943D01*
X114570Y273908D01*
X114585Y273871D01*
X114654Y273775D01*
X114718Y273674D01*
X114748Y273646D01*
X114771Y273613D01*
X114863Y273537D01*
X114950Y273456D01*
X114985Y273436D01*
X115016Y273411D01*
X115124Y273360D01*
X115228Y273302D01*
X115268Y273292D01*
X115304Y273275D01*
X115421Y273253D01*
X115536Y273223D01*
X115596Y273219D01*
X115616Y273215D01*
X115637Y273217D01*
X115697Y273213D01*
X116962Y273213D01*
X117242Y272933D01*
X117336Y272860D01*
X117425Y272781D01*
X117461Y272763D01*
X117493Y272738D01*
X117603Y272690D01*
X117709Y272636D01*
X117748Y272628D01*
X117785Y272611D01*
X117903Y272593D01*
X118019Y272567D01*
X118059Y272568D01*
X118099Y272562D01*
X118218Y272573D01*
X118337Y272576D01*
X118376Y272588D01*
X118416Y272591D01*
X118528Y272632D01*
X118642Y272665D01*
X118677Y272685D01*
X118715Y272699D01*
X118814Y272766D01*
X118916Y272826D01*
X118961Y272866D01*
X118978Y272878D01*
X118992Y272893D01*
X119037Y272933D01*
X120151Y274046D01*
X122088Y275984D01*
X122094Y275991D01*
X122101Y275997D01*
X122191Y276117D01*
X122283Y276235D01*
X122287Y276244D01*
X122292Y276251D01*
X122363Y276396D01*
X123659Y279525D01*
X126875Y282741D01*
X131076Y284481D01*
X135624Y284481D01*
X139825Y282741D01*
X143041Y279525D01*
X144781Y275324D01*
X144781Y270776D01*
X143041Y266575D01*
X139825Y263359D01*
X135624Y261619D01*
X131076Y261619D01*
X126875Y263359D01*
X126119Y264115D01*
X126010Y264200D01*
X125903Y264289D01*
X125884Y264298D01*
X125868Y264310D01*
X125740Y264365D01*
X125615Y264424D01*
X125595Y264428D01*
X125576Y264436D01*
X125438Y264458D01*
X125302Y264484D01*
X125282Y264483D01*
X125262Y264486D01*
X125123Y264473D01*
X124985Y264464D01*
X124966Y264458D01*
X124946Y264456D01*
X124814Y264409D01*
X124683Y264366D01*
X124665Y264356D01*
X124646Y264349D01*
X124531Y264271D01*
X124414Y264196D01*
X124400Y264182D01*
X124383Y264170D01*
X124291Y264066D01*
X124196Y263965D01*
X124186Y263947D01*
X124173Y263932D01*
X124110Y263808D01*
X124042Y263686D01*
X124037Y263667D01*
X124028Y263649D01*
X123998Y263513D01*
X123963Y263378D01*
X123961Y263350D01*
X123958Y263338D01*
X123959Y263318D01*
X123953Y263218D01*
X123953Y257482D01*
X123970Y257344D01*
X123983Y257206D01*
X123990Y257187D01*
X123993Y257167D01*
X124044Y257038D01*
X124091Y256907D01*
X124102Y256890D01*
X124110Y256871D01*
X124191Y256759D01*
X124269Y256644D01*
X124285Y256630D01*
X124296Y256614D01*
X124404Y256525D01*
X124508Y256433D01*
X124526Y256424D01*
X124541Y256411D01*
X124667Y256352D01*
X124791Y256289D01*
X124811Y256284D01*
X124829Y256276D01*
X124966Y256249D01*
X125101Y256219D01*
X125122Y256220D01*
X125141Y256216D01*
X125280Y256224D01*
X125419Y256229D01*
X125439Y256234D01*
X125459Y256236D01*
X125591Y256278D01*
X125725Y256317D01*
X125742Y256327D01*
X125761Y256334D01*
X125879Y256408D01*
X125999Y256479D01*
X126020Y256497D01*
X126030Y256504D01*
X126044Y256519D01*
X126119Y256585D01*
X126875Y257341D01*
X131076Y259081D01*
X135624Y259081D01*
X139825Y257341D01*
X143041Y254125D01*
X144781Y249924D01*
X144781Y245376D01*
X143041Y241175D01*
X139825Y237959D01*
X135624Y236219D01*
X131076Y236219D01*
G37*
%LPD*%
%LPC*%
G36*
X80366Y38509D02*
X80366Y38509D01*
X79719Y38682D01*
X79434Y38847D01*
X79349Y38883D01*
X79268Y38928D01*
X79203Y38944D01*
X79141Y38970D01*
X79049Y38984D01*
X78960Y39007D01*
X78843Y39014D01*
X78826Y39017D01*
X78818Y39016D01*
X78799Y39017D01*
X60358Y39017D01*
X59167Y40208D01*
X59167Y48059D01*
X59155Y48157D01*
X59152Y48256D01*
X59135Y48313D01*
X59135Y63178D01*
X59123Y63276D01*
X59120Y63375D01*
X59103Y63434D01*
X59095Y63494D01*
X59059Y63586D01*
X59031Y63681D01*
X59001Y63733D01*
X58978Y63789D01*
X58920Y63869D01*
X58870Y63955D01*
X58804Y64030D01*
X58792Y64047D01*
X58782Y64054D01*
X58764Y64076D01*
X55726Y67114D01*
X55647Y67174D01*
X55575Y67242D01*
X55522Y67271D01*
X55474Y67308D01*
X55383Y67348D01*
X55297Y67396D01*
X55238Y67411D01*
X55182Y67435D01*
X55084Y67450D01*
X54989Y67475D01*
X54889Y67481D01*
X54868Y67485D01*
X54856Y67483D01*
X54828Y67485D01*
X40962Y67485D01*
X40844Y67470D01*
X40725Y67463D01*
X40687Y67450D01*
X40646Y67445D01*
X40536Y67402D01*
X40423Y67365D01*
X40388Y67343D01*
X40351Y67328D01*
X40255Y67259D01*
X40154Y67195D01*
X40126Y67165D01*
X40093Y67142D01*
X40017Y67050D01*
X39936Y66963D01*
X39916Y66928D01*
X39891Y66897D01*
X39840Y66789D01*
X39782Y66685D01*
X39772Y66645D01*
X39755Y66609D01*
X39733Y66492D01*
X39703Y66377D01*
X39699Y66317D01*
X39695Y66297D01*
X39697Y66276D01*
X39693Y66216D01*
X39693Y65708D01*
X38283Y64298D01*
X38222Y64220D01*
X38154Y64147D01*
X38125Y64094D01*
X38088Y64047D01*
X38048Y63956D01*
X38000Y63869D01*
X37985Y63810D01*
X37961Y63755D01*
X37946Y63657D01*
X37921Y63561D01*
X37915Y63461D01*
X37911Y63441D01*
X37913Y63428D01*
X37911Y63400D01*
X37911Y55589D01*
X29600Y55589D01*
X29610Y55652D01*
X30151Y57316D01*
X30945Y58875D01*
X31973Y60290D01*
X33210Y61527D01*
X34166Y62221D01*
X34224Y62276D01*
X34289Y62322D01*
X34340Y62384D01*
X34398Y62439D01*
X34441Y62506D01*
X34491Y62567D01*
X34526Y62640D01*
X34568Y62707D01*
X34593Y62783D01*
X34627Y62855D01*
X34642Y62934D01*
X34667Y63010D01*
X34672Y63089D01*
X34687Y63168D01*
X34682Y63247D01*
X34687Y63327D01*
X34672Y63405D01*
X34667Y63485D01*
X34642Y63561D01*
X34627Y63640D01*
X34594Y63712D01*
X34569Y63787D01*
X34526Y63855D01*
X34492Y63927D01*
X34441Y63989D01*
X34399Y64056D01*
X34341Y64111D01*
X34290Y64173D01*
X34225Y64220D01*
X34167Y64274D01*
X34097Y64313D01*
X34033Y64360D01*
X33958Y64389D01*
X33889Y64428D01*
X33811Y64448D01*
X33737Y64477D01*
X33658Y64487D01*
X33581Y64507D01*
X33423Y64517D01*
X33421Y64517D01*
X33420Y64517D01*
X21818Y64517D01*
X20627Y65708D01*
X20627Y77392D01*
X21818Y78583D01*
X38502Y78583D01*
X39693Y77392D01*
X39693Y76884D01*
X39708Y76766D01*
X39715Y76647D01*
X39728Y76609D01*
X39733Y76568D01*
X39776Y76458D01*
X39813Y76345D01*
X39835Y76310D01*
X39850Y76273D01*
X39919Y76177D01*
X39983Y76076D01*
X40013Y76048D01*
X40036Y76015D01*
X40128Y75939D01*
X40215Y75858D01*
X40250Y75838D01*
X40281Y75813D01*
X40389Y75762D01*
X40493Y75704D01*
X40533Y75694D01*
X40569Y75677D01*
X40686Y75655D01*
X40801Y75625D01*
X40861Y75621D01*
X40881Y75617D01*
X40902Y75619D01*
X40962Y75615D01*
X58721Y75615D01*
X59256Y75080D01*
X60703Y73633D01*
X60742Y73602D01*
X60776Y73566D01*
X60868Y73505D01*
X60954Y73438D01*
X61000Y73418D01*
X61041Y73391D01*
X61145Y73355D01*
X61246Y73312D01*
X61295Y73304D01*
X61342Y73288D01*
X61452Y73279D01*
X61560Y73262D01*
X61610Y73266D01*
X61659Y73262D01*
X61767Y73281D01*
X61877Y73292D01*
X61924Y73308D01*
X61973Y73317D01*
X62073Y73362D01*
X62176Y73399D01*
X62217Y73427D01*
X62263Y73447D01*
X62348Y73516D01*
X62439Y73578D01*
X62472Y73615D01*
X62511Y73646D01*
X62577Y73734D01*
X62650Y73816D01*
X62672Y73860D01*
X62702Y73900D01*
X62773Y74045D01*
X63632Y76119D01*
X65169Y77655D01*
X67176Y78487D01*
X69349Y78487D01*
X71356Y77655D01*
X72921Y76090D01*
X73015Y76017D01*
X73105Y75939D01*
X73141Y75920D01*
X73173Y75895D01*
X73282Y75848D01*
X73388Y75794D01*
X73427Y75785D01*
X73464Y75769D01*
X73582Y75750D01*
X73698Y75724D01*
X73738Y75726D01*
X73778Y75719D01*
X73897Y75730D01*
X74016Y75734D01*
X74055Y75745D01*
X74095Y75749D01*
X74207Y75789D01*
X74321Y75822D01*
X74356Y75843D01*
X74394Y75857D01*
X74493Y75924D01*
X74595Y75984D01*
X74641Y76024D01*
X74658Y76035D01*
X74671Y76050D01*
X74716Y76090D01*
X76281Y77655D01*
X78289Y78487D01*
X80461Y78487D01*
X82469Y77655D01*
X84005Y76119D01*
X84837Y74111D01*
X84837Y71939D01*
X84005Y69931D01*
X82469Y68395D01*
X80286Y67491D01*
X80261Y67476D01*
X80233Y67467D01*
X80123Y67398D01*
X80010Y67333D01*
X79989Y67313D01*
X79964Y67297D01*
X79875Y67202D01*
X79782Y67112D01*
X79766Y67087D01*
X79746Y67065D01*
X79683Y66952D01*
X79615Y66841D01*
X79607Y66813D01*
X79592Y66787D01*
X79560Y66661D01*
X79522Y66537D01*
X79520Y66507D01*
X79513Y66479D01*
X79503Y66318D01*
X79503Y63360D01*
X79518Y63242D01*
X79525Y63123D01*
X79538Y63085D01*
X79543Y63044D01*
X79586Y62934D01*
X79623Y62821D01*
X79645Y62786D01*
X79660Y62749D01*
X79729Y62653D01*
X79793Y62552D01*
X79823Y62524D01*
X79846Y62491D01*
X79938Y62415D01*
X80025Y62334D01*
X80060Y62314D01*
X80091Y62289D01*
X80199Y62238D01*
X80303Y62180D01*
X80343Y62170D01*
X80379Y62153D01*
X80496Y62131D01*
X80611Y62101D01*
X80671Y62097D01*
X80691Y62093D01*
X80712Y62095D01*
X80772Y62091D01*
X81431Y62091D01*
X81431Y50300D01*
X81431Y38509D01*
X80366Y38509D01*
G37*
%LPD*%
G36*
X55354Y92980D02*
X55354Y92980D01*
X55480Y92990D01*
X55512Y93000D01*
X55545Y93005D01*
X55662Y93051D01*
X55781Y93091D01*
X55809Y93109D01*
X55841Y93122D01*
X55942Y93195D01*
X56048Y93264D01*
X56071Y93289D01*
X56098Y93308D01*
X56178Y93405D01*
X56263Y93498D01*
X56279Y93528D01*
X56301Y93553D01*
X56354Y93667D01*
X56414Y93778D01*
X56422Y93811D01*
X56436Y93841D01*
X56460Y93964D01*
X56490Y94087D01*
X56490Y94120D01*
X56496Y94153D01*
X56488Y94279D01*
X56487Y94405D01*
X56477Y94453D01*
X56476Y94471D01*
X56470Y94491D01*
X56455Y94563D01*
X56248Y95336D01*
X56248Y97046D01*
X64684Y97046D01*
X64802Y97061D01*
X64921Y97068D01*
X64959Y97080D01*
X64999Y97086D01*
X65110Y97129D01*
X65223Y97166D01*
X65257Y97188D01*
X65295Y97203D01*
X65391Y97272D01*
X65492Y97336D01*
X65520Y97366D01*
X65552Y97389D01*
X65628Y97481D01*
X65710Y97568D01*
X65729Y97603D01*
X65755Y97634D01*
X65806Y97742D01*
X65863Y97846D01*
X65873Y97886D01*
X65891Y97922D01*
X65913Y98039D01*
X65943Y98154D01*
X65947Y98214D01*
X65950Y98234D01*
X65949Y98255D01*
X65953Y98315D01*
X65953Y98525D01*
X65938Y98643D01*
X65931Y98762D01*
X65918Y98800D01*
X65913Y98841D01*
X65869Y98951D01*
X65833Y99064D01*
X65811Y99099D01*
X65796Y99136D01*
X65726Y99232D01*
X65663Y99333D01*
X65633Y99361D01*
X65609Y99394D01*
X65518Y99470D01*
X65431Y99551D01*
X65396Y99571D01*
X65364Y99596D01*
X65257Y99647D01*
X65152Y99705D01*
X65113Y99715D01*
X65077Y99732D01*
X64960Y99754D01*
X64844Y99784D01*
X64784Y99788D01*
X64764Y99792D01*
X64744Y99790D01*
X64684Y99794D01*
X56248Y99794D01*
X56248Y101504D01*
X56421Y102151D01*
X56797Y102801D01*
X56809Y102815D01*
X56828Y102851D01*
X56852Y102882D01*
X56900Y102992D01*
X56954Y103098D01*
X56963Y103137D01*
X56979Y103174D01*
X56997Y103292D01*
X57024Y103409D01*
X57022Y103448D01*
X57029Y103488D01*
X57018Y103607D01*
X57014Y103727D01*
X57003Y103765D01*
X56999Y103805D01*
X56959Y103917D01*
X56926Y104032D01*
X56905Y104066D01*
X56892Y104104D01*
X56825Y104203D01*
X56764Y104306D01*
X56756Y104315D01*
X56756Y111512D01*
X57947Y112703D01*
X71631Y112703D01*
X71947Y112387D01*
X72025Y112326D01*
X72098Y112258D01*
X72151Y112229D01*
X72198Y112192D01*
X72289Y112152D01*
X72376Y112104D01*
X72435Y112089D01*
X72490Y112065D01*
X72588Y112050D01*
X72684Y112025D01*
X72784Y112019D01*
X72804Y112015D01*
X72817Y112017D01*
X72845Y112015D01*
X74709Y112015D01*
X77461Y109262D01*
X80592Y106132D01*
X80701Y106047D01*
X80808Y105958D01*
X80827Y105949D01*
X80843Y105937D01*
X80971Y105881D01*
X81096Y105822D01*
X81116Y105819D01*
X81135Y105811D01*
X81273Y105789D01*
X81409Y105763D01*
X81429Y105764D01*
X81449Y105761D01*
X81588Y105774D01*
X81726Y105782D01*
X81745Y105789D01*
X81765Y105791D01*
X81897Y105838D01*
X82028Y105880D01*
X82046Y105891D01*
X82065Y105898D01*
X82180Y105976D01*
X82297Y106051D01*
X82311Y106065D01*
X82328Y106077D01*
X82420Y106181D01*
X82515Y106282D01*
X82525Y106300D01*
X82538Y106315D01*
X82602Y106439D01*
X82669Y106561D01*
X82674Y106580D01*
X82683Y106598D01*
X82713Y106734D01*
X82748Y106869D01*
X82750Y106897D01*
X82753Y106909D01*
X82752Y106929D01*
X82758Y107029D01*
X82758Y111512D01*
X83949Y112703D01*
X97633Y112703D01*
X98739Y111597D01*
X98817Y111536D01*
X98889Y111468D01*
X98942Y111439D01*
X98990Y111402D01*
X99081Y111363D01*
X99168Y111315D01*
X99226Y111300D01*
X99282Y111276D01*
X99380Y111260D01*
X99476Y111235D01*
X99575Y111229D01*
X99596Y111226D01*
X99608Y111227D01*
X99637Y111225D01*
X100438Y111226D01*
X100556Y111241D01*
X100675Y111248D01*
X100714Y111260D01*
X100754Y111266D01*
X100864Y111309D01*
X100977Y111346D01*
X101012Y111368D01*
X101050Y111383D01*
X101146Y111452D01*
X101246Y111516D01*
X101274Y111546D01*
X101307Y111570D01*
X101383Y111661D01*
X101464Y111748D01*
X101484Y111783D01*
X101510Y111815D01*
X101560Y111922D01*
X101618Y112026D01*
X101628Y112066D01*
X101645Y112102D01*
X101667Y112219D01*
X101697Y112334D01*
X101701Y112395D01*
X101705Y112415D01*
X101703Y112435D01*
X101707Y112495D01*
X101707Y113262D01*
X102909Y114463D01*
X102982Y114557D01*
X103060Y114647D01*
X103079Y114683D01*
X103103Y114715D01*
X103151Y114824D01*
X103205Y114930D01*
X103214Y114969D01*
X103230Y115006D01*
X103248Y115124D01*
X103275Y115240D01*
X103273Y115280D01*
X103280Y115320D01*
X103268Y115439D01*
X103265Y115558D01*
X103254Y115597D01*
X103250Y115637D01*
X103210Y115749D01*
X103176Y115863D01*
X103156Y115898D01*
X103142Y115936D01*
X103075Y116035D01*
X103015Y116137D01*
X102975Y116183D01*
X102964Y116199D01*
X102948Y116213D01*
X102909Y116258D01*
X101129Y118038D01*
X101051Y118098D01*
X100979Y118166D01*
X100926Y118195D01*
X100878Y118232D01*
X100787Y118272D01*
X100700Y118320D01*
X100642Y118335D01*
X100586Y118359D01*
X100488Y118374D01*
X100392Y118399D01*
X100292Y118405D01*
X100272Y118409D01*
X100260Y118407D01*
X100232Y118409D01*
X99969Y118409D01*
X99969Y128450D01*
X99954Y128568D01*
X99947Y128687D01*
X99935Y128725D01*
X99930Y128765D01*
X99886Y128876D01*
X99849Y128989D01*
X99827Y129023D01*
X99813Y129061D01*
X99743Y129157D01*
X99679Y129258D01*
X99649Y129286D01*
X99626Y129318D01*
X99534Y129394D01*
X99447Y129476D01*
X99412Y129495D01*
X99381Y129521D01*
X99273Y129572D01*
X99169Y129629D01*
X99130Y129639D01*
X99093Y129657D01*
X98976Y129679D01*
X98861Y129709D01*
X98801Y129713D01*
X98781Y129716D01*
X98780Y129716D01*
X98760Y129715D01*
X98700Y129719D01*
X98582Y129704D01*
X98463Y129697D01*
X98424Y129684D01*
X98384Y129679D01*
X98274Y129635D01*
X98160Y129599D01*
X98126Y129577D01*
X98089Y129562D01*
X97992Y129492D01*
X97892Y129428D01*
X97864Y129399D01*
X97831Y129375D01*
X97755Y129283D01*
X97674Y129197D01*
X97654Y129161D01*
X97628Y129130D01*
X97578Y129023D01*
X97520Y128918D01*
X97510Y128879D01*
X97493Y128843D01*
X97471Y128726D01*
X97441Y128610D01*
X97437Y128550D01*
X97433Y128530D01*
X97434Y128510D01*
X97431Y128450D01*
X97431Y118409D01*
X97116Y118409D01*
X96469Y118582D01*
X96184Y118747D01*
X96099Y118783D01*
X96018Y118828D01*
X95953Y118844D01*
X95891Y118870D01*
X95799Y118884D01*
X95710Y118907D01*
X95593Y118914D01*
X95576Y118917D01*
X95568Y118916D01*
X95549Y118917D01*
X46608Y118917D01*
X45417Y120108D01*
X45417Y133082D01*
X45400Y133220D01*
X45387Y133359D01*
X45380Y133378D01*
X45377Y133398D01*
X45326Y133527D01*
X45279Y133658D01*
X45268Y133675D01*
X45260Y133693D01*
X45179Y133806D01*
X45101Y133921D01*
X45085Y133934D01*
X45074Y133951D01*
X44966Y134039D01*
X44862Y134132D01*
X44844Y134141D01*
X44829Y134154D01*
X44703Y134213D01*
X44579Y134276D01*
X44559Y134281D01*
X44541Y134289D01*
X44405Y134315D01*
X44269Y134346D01*
X44248Y134345D01*
X44229Y134349D01*
X44090Y134340D01*
X43951Y134336D01*
X43931Y134330D01*
X43911Y134329D01*
X43779Y134286D01*
X43645Y134248D01*
X43628Y134237D01*
X43609Y134231D01*
X43491Y134157D01*
X43371Y134086D01*
X43350Y134068D01*
X43340Y134061D01*
X43326Y134046D01*
X43251Y133980D01*
X33687Y124416D01*
X31381Y122110D01*
X22906Y122110D01*
X22808Y122097D01*
X22709Y122094D01*
X22651Y122078D01*
X22591Y122070D01*
X22498Y122033D01*
X22403Y122006D01*
X22351Y121975D01*
X22295Y121953D01*
X22215Y121895D01*
X22129Y121844D01*
X22054Y121778D01*
X22037Y121766D01*
X22030Y121757D01*
X22009Y121738D01*
X16890Y116619D01*
X16805Y116510D01*
X16716Y116403D01*
X16707Y116384D01*
X16695Y116368D01*
X16640Y116240D01*
X16581Y116115D01*
X16577Y116095D01*
X16569Y116076D01*
X16547Y115938D01*
X16521Y115802D01*
X16522Y115782D01*
X16519Y115762D01*
X16532Y115623D01*
X16541Y115485D01*
X16547Y115466D01*
X16549Y115446D01*
X16596Y115314D01*
X16639Y115183D01*
X16649Y115165D01*
X16656Y115146D01*
X16734Y115031D01*
X16809Y114914D01*
X16824Y114900D01*
X16835Y114883D01*
X16939Y114791D01*
X17040Y114696D01*
X17058Y114686D01*
X17073Y114673D01*
X17197Y114609D01*
X17319Y114542D01*
X17338Y114537D01*
X17357Y114528D01*
X17492Y114498D01*
X17627Y114463D01*
X17655Y114461D01*
X17667Y114458D01*
X17687Y114459D01*
X17787Y114453D01*
X18542Y114453D01*
X18942Y114052D01*
X19036Y113979D01*
X19126Y113900D01*
X19162Y113882D01*
X19194Y113857D01*
X19303Y113810D01*
X19409Y113756D01*
X19448Y113747D01*
X19486Y113731D01*
X19603Y113712D01*
X19719Y113686D01*
X19760Y113687D01*
X19800Y113681D01*
X19918Y113692D01*
X20037Y113696D01*
X20076Y113707D01*
X20116Y113711D01*
X20228Y113751D01*
X20343Y113784D01*
X20378Y113805D01*
X20416Y113818D01*
X20514Y113885D01*
X20617Y113946D01*
X20662Y113986D01*
X20679Y113997D01*
X20692Y114012D01*
X20737Y114052D01*
X21668Y114983D01*
X34352Y114983D01*
X35336Y113998D01*
X35436Y113921D01*
X35531Y113839D01*
X35561Y113824D01*
X35588Y113803D01*
X35703Y113753D01*
X35816Y113697D01*
X35849Y113690D01*
X35880Y113677D01*
X36004Y113657D01*
X36127Y113631D01*
X36160Y113632D01*
X36194Y113627D01*
X36319Y113639D01*
X36444Y113644D01*
X36477Y113654D01*
X36510Y113657D01*
X36629Y113699D01*
X36749Y113736D01*
X36778Y113753D01*
X36810Y113764D01*
X36914Y113835D01*
X37021Y113900D01*
X37045Y113924D01*
X37073Y113943D01*
X37156Y114037D01*
X37244Y114127D01*
X37271Y114168D01*
X37283Y114181D01*
X37293Y114201D01*
X37333Y114261D01*
X37477Y114510D01*
X37950Y114983D01*
X38529Y115318D01*
X39176Y115491D01*
X42511Y115491D01*
X42511Y109180D01*
X42526Y109062D01*
X42533Y108943D01*
X42545Y108905D01*
X42551Y108865D01*
X42594Y108754D01*
X42631Y108641D01*
X42653Y108607D01*
X42668Y108569D01*
X42737Y108473D01*
X42801Y108372D01*
X42831Y108344D01*
X42854Y108312D01*
X42946Y108236D01*
X43033Y108154D01*
X43068Y108135D01*
X43099Y108109D01*
X43207Y108058D01*
X43311Y108001D01*
X43351Y107991D01*
X43387Y107973D01*
X43494Y107953D01*
X43464Y107949D01*
X43354Y107905D01*
X43241Y107869D01*
X43206Y107847D01*
X43169Y107832D01*
X43072Y107762D01*
X42972Y107699D01*
X42944Y107669D01*
X42911Y107645D01*
X42835Y107554D01*
X42754Y107467D01*
X42734Y107432D01*
X42709Y107400D01*
X42658Y107293D01*
X42600Y107188D01*
X42590Y107149D01*
X42573Y107113D01*
X42551Y106996D01*
X42521Y106880D01*
X42517Y106820D01*
X42513Y106800D01*
X42515Y106780D01*
X42511Y106720D01*
X42511Y100409D01*
X40962Y100409D01*
X40844Y100394D01*
X40725Y100387D01*
X40687Y100374D01*
X40646Y100369D01*
X40536Y100326D01*
X40423Y100289D01*
X40388Y100267D01*
X40351Y100252D01*
X40255Y100183D01*
X40154Y100119D01*
X40126Y100089D01*
X40093Y100066D01*
X40017Y99974D01*
X39936Y99887D01*
X39916Y99852D01*
X39891Y99821D01*
X39840Y99713D01*
X39782Y99609D01*
X39772Y99569D01*
X39755Y99533D01*
X39733Y99416D01*
X39703Y99301D01*
X39699Y99240D01*
X39695Y99221D01*
X39697Y99200D01*
X39693Y99140D01*
X39693Y98884D01*
X39708Y98766D01*
X39715Y98647D01*
X39728Y98609D01*
X39733Y98568D01*
X39776Y98458D01*
X39813Y98345D01*
X39835Y98310D01*
X39850Y98273D01*
X39919Y98177D01*
X39983Y98076D01*
X40013Y98048D01*
X40036Y98015D01*
X40128Y97939D01*
X40215Y97858D01*
X40250Y97838D01*
X40281Y97813D01*
X40389Y97762D01*
X40493Y97704D01*
X40533Y97694D01*
X40569Y97677D01*
X40686Y97655D01*
X40801Y97625D01*
X40861Y97621D01*
X40881Y97617D01*
X40902Y97619D01*
X40962Y97615D01*
X41484Y97615D01*
X45762Y93336D01*
X45840Y93276D01*
X45912Y93208D01*
X45965Y93179D01*
X46013Y93142D01*
X46104Y93102D01*
X46191Y93054D01*
X46249Y93039D01*
X46305Y93015D01*
X46403Y93000D01*
X46499Y92975D01*
X46599Y92969D01*
X46619Y92965D01*
X46631Y92967D01*
X46659Y92965D01*
X55229Y92965D01*
X55354Y92980D01*
G37*
G36*
X147419Y113214D02*
X147419Y113214D01*
X147557Y113223D01*
X147576Y113229D01*
X147596Y113231D01*
X147728Y113278D01*
X147859Y113321D01*
X147877Y113332D01*
X147896Y113338D01*
X148011Y113417D01*
X148128Y113491D01*
X148142Y113506D01*
X148159Y113517D01*
X148251Y113621D01*
X148346Y113723D01*
X148356Y113740D01*
X148369Y113755D01*
X148432Y113879D01*
X148500Y114001D01*
X148505Y114021D01*
X148514Y114039D01*
X148544Y114175D01*
X148579Y114309D01*
X148581Y114337D01*
X148584Y114349D01*
X148583Y114369D01*
X148589Y114470D01*
X148589Y134626D01*
X148572Y134764D01*
X148559Y134902D01*
X148552Y134921D01*
X148549Y134942D01*
X148498Y135071D01*
X148451Y135202D01*
X148440Y135218D01*
X148432Y135237D01*
X148351Y135350D01*
X148273Y135465D01*
X148257Y135478D01*
X148246Y135495D01*
X148138Y135583D01*
X148034Y135675D01*
X148016Y135684D01*
X148001Y135697D01*
X147875Y135757D01*
X147751Y135820D01*
X147731Y135824D01*
X147713Y135833D01*
X147576Y135859D01*
X147441Y135889D01*
X147420Y135889D01*
X147401Y135893D01*
X147262Y135884D01*
X147123Y135880D01*
X147103Y135874D01*
X147083Y135873D01*
X146951Y135830D01*
X146817Y135791D01*
X146800Y135781D01*
X146781Y135775D01*
X146663Y135701D01*
X146543Y135630D01*
X146522Y135611D01*
X146512Y135605D01*
X146498Y135590D01*
X146422Y135523D01*
X145969Y135070D01*
X143961Y134238D01*
X141789Y134238D01*
X139781Y135070D01*
X138245Y136606D01*
X137413Y138614D01*
X137413Y140786D01*
X138313Y142958D01*
X138325Y143002D01*
X138341Y143035D01*
X138341Y143039D01*
X138347Y143051D01*
X138368Y143159D01*
X138397Y143265D01*
X138398Y143315D01*
X138407Y143364D01*
X138400Y143473D01*
X138402Y143583D01*
X138390Y143631D01*
X138387Y143681D01*
X138353Y143785D01*
X138328Y143892D01*
X138304Y143936D01*
X138289Y143983D01*
X138230Y144076D01*
X138179Y144173D01*
X138146Y144210D01*
X138119Y144252D01*
X138039Y144327D01*
X137965Y144409D01*
X137924Y144436D01*
X137887Y144470D01*
X137791Y144523D01*
X137768Y144539D01*
X136402Y145904D01*
X136402Y155716D01*
X136590Y155903D01*
X136663Y155997D01*
X136741Y156087D01*
X136760Y156123D01*
X136785Y156155D01*
X136832Y156264D01*
X136886Y156370D01*
X136895Y156409D01*
X136911Y156446D01*
X136930Y156564D01*
X136956Y156680D01*
X136954Y156720D01*
X136961Y156760D01*
X136950Y156879D01*
X136946Y156998D01*
X136935Y157037D01*
X136931Y157077D01*
X136891Y157189D01*
X136858Y157304D01*
X136837Y157338D01*
X136823Y157376D01*
X136756Y157475D01*
X136696Y157578D01*
X136656Y157623D01*
X136645Y157640D01*
X136629Y157653D01*
X136590Y157698D01*
X136402Y157886D01*
X136067Y158465D01*
X135894Y159112D01*
X135894Y161479D01*
X142118Y161479D01*
X142236Y161494D01*
X142355Y161501D01*
X142393Y161513D01*
X142433Y161519D01*
X142544Y161562D01*
X142657Y161599D01*
X142691Y161621D01*
X142729Y161636D01*
X142825Y161705D01*
X142926Y161769D01*
X142954Y161799D01*
X142986Y161822D01*
X143062Y161914D01*
X143144Y162001D01*
X143163Y162036D01*
X143189Y162067D01*
X143240Y162175D01*
X143297Y162279D01*
X143307Y162319D01*
X143325Y162355D01*
X143347Y162472D01*
X143377Y162587D01*
X143381Y162647D01*
X143384Y162667D01*
X143383Y162688D01*
X143387Y162748D01*
X143387Y164272D01*
X143372Y164390D01*
X143365Y164509D01*
X143352Y164547D01*
X143347Y164588D01*
X143303Y164698D01*
X143267Y164811D01*
X143245Y164846D01*
X143230Y164883D01*
X143160Y164979D01*
X143097Y165080D01*
X143067Y165108D01*
X143043Y165141D01*
X142952Y165217D01*
X142865Y165298D01*
X142830Y165318D01*
X142798Y165343D01*
X142691Y165394D01*
X142586Y165452D01*
X142547Y165462D01*
X142511Y165479D01*
X142394Y165501D01*
X142278Y165531D01*
X142218Y165535D01*
X142198Y165539D01*
X142178Y165537D01*
X142118Y165541D01*
X135894Y165541D01*
X135894Y167908D01*
X136067Y168555D01*
X136377Y169091D01*
X136401Y169149D01*
X136434Y169203D01*
X136463Y169295D01*
X136500Y169384D01*
X136509Y169446D01*
X136528Y169507D01*
X136533Y169603D01*
X136547Y169699D01*
X136540Y169761D01*
X136543Y169824D01*
X136524Y169919D01*
X136514Y170015D01*
X136492Y170074D01*
X136479Y170136D01*
X136436Y170222D01*
X136403Y170313D01*
X136367Y170365D01*
X136339Y170422D01*
X136276Y170495D01*
X136222Y170574D01*
X136174Y170615D01*
X136133Y170664D01*
X136054Y170719D01*
X135981Y170782D01*
X135924Y170810D01*
X135873Y170847D01*
X135783Y170881D01*
X135696Y170924D01*
X135634Y170937D01*
X135575Y170959D01*
X135480Y170970D01*
X135385Y170990D01*
X135322Y170988D01*
X135259Y170995D01*
X135164Y170981D01*
X135067Y170977D01*
X135007Y170959D01*
X134944Y170950D01*
X134792Y170898D01*
X134436Y170751D01*
X132264Y170751D01*
X130488Y171486D01*
X130440Y171499D01*
X130395Y171521D01*
X130287Y171541D01*
X130181Y171570D01*
X130131Y171571D01*
X130082Y171580D01*
X129973Y171574D01*
X129863Y171575D01*
X129815Y171564D01*
X129765Y171561D01*
X129661Y171527D01*
X129554Y171501D01*
X129510Y171478D01*
X129463Y171463D01*
X129370Y171404D01*
X129273Y171352D01*
X129236Y171319D01*
X129194Y171292D01*
X129119Y171212D01*
X129037Y171139D01*
X129010Y171097D01*
X128976Y171061D01*
X128923Y170965D01*
X128863Y170873D01*
X128846Y170826D01*
X128822Y170782D01*
X128795Y170676D01*
X128759Y170572D01*
X128755Y170522D01*
X128743Y170474D01*
X128733Y170314D01*
X128733Y141858D01*
X127542Y140667D01*
X114718Y140667D01*
X114580Y140650D01*
X114441Y140637D01*
X114422Y140630D01*
X114402Y140627D01*
X114273Y140576D01*
X114142Y140529D01*
X114125Y140518D01*
X114107Y140510D01*
X113994Y140429D01*
X113879Y140351D01*
X113866Y140335D01*
X113849Y140324D01*
X113760Y140216D01*
X113668Y140112D01*
X113659Y140094D01*
X113646Y140079D01*
X113587Y139953D01*
X113524Y139829D01*
X113519Y139809D01*
X113511Y139791D01*
X113485Y139655D01*
X113454Y139519D01*
X113455Y139498D01*
X113451Y139479D01*
X113460Y139340D01*
X113464Y139201D01*
X113470Y139181D01*
X113471Y139161D01*
X113514Y139029D01*
X113552Y138895D01*
X113563Y138878D01*
X113569Y138859D01*
X113643Y138741D01*
X113714Y138621D01*
X113732Y138600D01*
X113739Y138590D01*
X113754Y138576D01*
X113820Y138501D01*
X120059Y132262D01*
X120137Y132201D01*
X120209Y132133D01*
X120262Y132104D01*
X120310Y132067D01*
X120401Y132028D01*
X120488Y131980D01*
X120546Y131965D01*
X120602Y131941D01*
X120700Y131925D01*
X120796Y131900D01*
X120896Y131894D01*
X120916Y131891D01*
X120928Y131892D01*
X120956Y131890D01*
X133131Y131890D01*
X135437Y129584D01*
X140696Y124324D01*
X143003Y122018D01*
X143003Y115722D01*
X143018Y115604D01*
X143025Y115485D01*
X143038Y115447D01*
X143043Y115406D01*
X143086Y115296D01*
X143123Y115183D01*
X143145Y115148D01*
X143160Y115111D01*
X143229Y115015D01*
X143293Y114914D01*
X143323Y114886D01*
X143346Y114853D01*
X143438Y114777D01*
X143525Y114696D01*
X143560Y114676D01*
X143591Y114651D01*
X143699Y114600D01*
X143803Y114542D01*
X143843Y114532D01*
X143879Y114515D01*
X143996Y114493D01*
X144111Y114463D01*
X144171Y114459D01*
X144191Y114455D01*
X144212Y114457D01*
X144272Y114453D01*
X145542Y114453D01*
X146423Y113572D01*
X146532Y113487D01*
X146639Y113398D01*
X146658Y113390D01*
X146674Y113377D01*
X146801Y113322D01*
X146927Y113263D01*
X146947Y113259D01*
X146966Y113251D01*
X147104Y113229D01*
X147240Y113203D01*
X147260Y113204D01*
X147280Y113201D01*
X147419Y113214D01*
G37*
G36*
X5138Y113212D02*
X5138Y113212D01*
X5277Y113216D01*
X5297Y113221D01*
X5317Y113223D01*
X5449Y113265D01*
X5583Y113304D01*
X5600Y113315D01*
X5619Y113321D01*
X5737Y113395D01*
X5857Y113466D01*
X5878Y113484D01*
X5888Y113491D01*
X5902Y113506D01*
X5977Y113572D01*
X6858Y114453D01*
X8128Y114453D01*
X8246Y114468D01*
X8365Y114475D01*
X8403Y114488D01*
X8444Y114493D01*
X8554Y114536D01*
X8667Y114573D01*
X8702Y114595D01*
X8739Y114610D01*
X8835Y114679D01*
X8936Y114743D01*
X8964Y114773D01*
X8997Y114796D01*
X9073Y114888D01*
X9154Y114975D01*
X9174Y115010D01*
X9199Y115041D01*
X9250Y115149D01*
X9308Y115253D01*
X9318Y115293D01*
X9335Y115329D01*
X9357Y115446D01*
X9387Y115561D01*
X9391Y115621D01*
X9395Y115641D01*
X9393Y115662D01*
X9397Y115722D01*
X9397Y118468D01*
X19644Y128715D01*
X28119Y128715D01*
X28217Y128728D01*
X28316Y128731D01*
X28374Y128747D01*
X28434Y128755D01*
X28526Y128792D01*
X28621Y128819D01*
X28674Y128850D01*
X28730Y128872D01*
X28810Y128930D01*
X28895Y128981D01*
X28971Y129047D01*
X28987Y129059D01*
X28995Y129068D01*
X29016Y129087D01*
X38430Y138501D01*
X38515Y138610D01*
X38604Y138717D01*
X38612Y138736D01*
X38625Y138752D01*
X38680Y138880D01*
X38739Y139005D01*
X38743Y139025D01*
X38751Y139044D01*
X38773Y139182D01*
X38799Y139318D01*
X38798Y139338D01*
X38801Y139358D01*
X38788Y139497D01*
X38779Y139635D01*
X38773Y139654D01*
X38771Y139674D01*
X38724Y139806D01*
X38681Y139937D01*
X38670Y139955D01*
X38663Y139974D01*
X38585Y140089D01*
X38511Y140206D01*
X38496Y140220D01*
X38485Y140237D01*
X38381Y140329D01*
X38279Y140424D01*
X38262Y140434D01*
X38246Y140447D01*
X38122Y140511D01*
X38001Y140578D01*
X37981Y140583D01*
X37963Y140592D01*
X37827Y140622D01*
X37693Y140657D01*
X37665Y140659D01*
X37653Y140662D01*
X37632Y140661D01*
X37532Y140667D01*
X24858Y140667D01*
X23667Y141858D01*
X23667Y154378D01*
X23652Y154496D01*
X23645Y154615D01*
X23632Y154653D01*
X23627Y154694D01*
X23584Y154804D01*
X23547Y154917D01*
X23525Y154952D01*
X23510Y154989D01*
X23441Y155085D01*
X23377Y155186D01*
X23347Y155214D01*
X23324Y155247D01*
X23232Y155323D01*
X23145Y155404D01*
X23110Y155424D01*
X23079Y155449D01*
X22971Y155500D01*
X22867Y155558D01*
X22827Y155568D01*
X22791Y155585D01*
X22674Y155607D01*
X22559Y155637D01*
X22499Y155641D01*
X22479Y155645D01*
X22458Y155643D01*
X22398Y155647D01*
X21002Y155647D01*
X20884Y155632D01*
X20765Y155625D01*
X20727Y155612D01*
X20686Y155607D01*
X20576Y155564D01*
X20463Y155527D01*
X20428Y155505D01*
X20391Y155490D01*
X20295Y155421D01*
X20194Y155357D01*
X20166Y155327D01*
X20133Y155304D01*
X20057Y155212D01*
X19976Y155125D01*
X19956Y155090D01*
X19931Y155059D01*
X19880Y154951D01*
X19822Y154847D01*
X19812Y154807D01*
X19795Y154771D01*
X19773Y154654D01*
X19743Y154539D01*
X19739Y154479D01*
X19735Y154459D01*
X19737Y154438D01*
X19733Y154378D01*
X19733Y149798D01*
X18748Y148814D01*
X18671Y148714D01*
X18589Y148619D01*
X18574Y148589D01*
X18553Y148562D01*
X18503Y148447D01*
X18447Y148334D01*
X18440Y148301D01*
X18427Y148270D01*
X18407Y148146D01*
X18381Y148023D01*
X18382Y147990D01*
X18377Y147956D01*
X18389Y147831D01*
X18394Y147706D01*
X18404Y147673D01*
X18407Y147640D01*
X18449Y147521D01*
X18486Y147401D01*
X18503Y147372D01*
X18514Y147340D01*
X18585Y147236D01*
X18650Y147129D01*
X18674Y147105D01*
X18693Y147077D01*
X18787Y146994D01*
X18877Y146906D01*
X18918Y146879D01*
X18931Y146867D01*
X18951Y146857D01*
X19011Y146817D01*
X19260Y146673D01*
X19733Y146200D01*
X20068Y145621D01*
X20241Y144974D01*
X20241Y141639D01*
X13930Y141639D01*
X13812Y141624D01*
X13693Y141617D01*
X13655Y141604D01*
X13615Y141599D01*
X13504Y141556D01*
X13391Y141519D01*
X13357Y141497D01*
X13319Y141482D01*
X13223Y141413D01*
X13122Y141349D01*
X13094Y141319D01*
X13062Y141296D01*
X12986Y141204D01*
X12904Y141117D01*
X12885Y141082D01*
X12859Y141051D01*
X12808Y140943D01*
X12751Y140839D01*
X12741Y140799D01*
X12723Y140763D01*
X12701Y140646D01*
X12671Y140531D01*
X12667Y140471D01*
X12664Y140451D01*
X12665Y140430D01*
X12661Y140370D01*
X12661Y139179D01*
X11470Y139179D01*
X11352Y139164D01*
X11233Y139157D01*
X11195Y139144D01*
X11154Y139139D01*
X11044Y139095D01*
X10931Y139059D01*
X10896Y139037D01*
X10859Y139022D01*
X10762Y138952D01*
X10662Y138889D01*
X10634Y138859D01*
X10601Y138835D01*
X10525Y138744D01*
X10444Y138657D01*
X10424Y138622D01*
X10399Y138590D01*
X10348Y138483D01*
X10290Y138378D01*
X10280Y138339D01*
X10263Y138303D01*
X10241Y138186D01*
X10211Y138070D01*
X10207Y138010D01*
X10203Y137990D01*
X10205Y137970D01*
X10201Y137910D01*
X10201Y131099D01*
X7366Y131099D01*
X6719Y131272D01*
X6140Y131607D01*
X5978Y131769D01*
X5868Y131854D01*
X5761Y131943D01*
X5742Y131952D01*
X5726Y131964D01*
X5598Y132020D01*
X5473Y132079D01*
X5453Y132083D01*
X5434Y132091D01*
X5297Y132112D01*
X5160Y132139D01*
X5140Y132137D01*
X5120Y132141D01*
X4982Y132128D01*
X4843Y132119D01*
X4824Y132113D01*
X4804Y132111D01*
X4673Y132064D01*
X4541Y132021D01*
X4523Y132010D01*
X4504Y132003D01*
X4389Y131925D01*
X4272Y131851D01*
X4258Y131836D01*
X4241Y131825D01*
X4149Y131720D01*
X4054Y131619D01*
X4044Y131601D01*
X4031Y131586D01*
X3967Y131462D01*
X3900Y131341D01*
X3895Y131321D01*
X3886Y131303D01*
X3856Y131167D01*
X3821Y131033D01*
X3819Y131005D01*
X3816Y130993D01*
X3817Y130972D01*
X3811Y130872D01*
X3811Y114470D01*
X3828Y114332D01*
X3841Y114193D01*
X3848Y114174D01*
X3851Y114154D01*
X3902Y114025D01*
X3949Y113894D01*
X3960Y113877D01*
X3968Y113858D01*
X4049Y113746D01*
X4127Y113631D01*
X4143Y113618D01*
X4154Y113601D01*
X4262Y113512D01*
X4366Y113420D01*
X4384Y113411D01*
X4399Y113398D01*
X4525Y113339D01*
X4649Y113276D01*
X4669Y113271D01*
X4687Y113263D01*
X4824Y113237D01*
X4959Y113206D01*
X4980Y113207D01*
X4999Y113203D01*
X5138Y113212D01*
G37*
%LPC*%
G36*
X42989Y20589D02*
X42989Y20589D01*
X42989Y50511D01*
X51563Y50511D01*
X51563Y35030D01*
X51290Y33303D01*
X50948Y32252D01*
X50912Y32061D01*
X50889Y31940D01*
X50900Y31752D01*
X50908Y31623D01*
X50909Y31623D01*
X50909Y31622D01*
X50957Y31472D01*
X51006Y31321D01*
X51007Y31320D01*
X51082Y31202D01*
X51177Y31052D01*
X51177Y31051D01*
X51286Y30949D01*
X51408Y30834D01*
X51409Y30834D01*
X51541Y30761D01*
X51687Y30680D01*
X51854Y30637D01*
X51995Y30601D01*
X51996Y30601D01*
X52155Y30591D01*
X73661Y30591D01*
X73661Y20589D01*
X42989Y20589D01*
G37*
%LPD*%
%LPC*%
G36*
X78739Y20589D02*
X78739Y20589D01*
X78739Y30591D01*
X100245Y30591D01*
X100411Y30612D01*
X100559Y30630D01*
X100560Y30631D01*
X100718Y30693D01*
X100855Y30747D01*
X100856Y30747D01*
X100856Y30748D01*
X100975Y30834D01*
X101113Y30934D01*
X101212Y31054D01*
X101316Y31179D01*
X101369Y31292D01*
X101451Y31466D01*
X101451Y31467D01*
X101452Y31467D01*
X101473Y31577D01*
X101511Y31779D01*
X101502Y31923D01*
X101492Y32096D01*
X101492Y32097D01*
X101491Y32097D01*
X101452Y32252D01*
X101110Y33303D01*
X100837Y35030D01*
X100837Y50511D01*
X109411Y50511D01*
X109411Y20589D01*
X78739Y20589D01*
G37*
%LPD*%
G36*
X22496Y197688D02*
X22496Y197688D01*
X22635Y197697D01*
X22654Y197703D01*
X22674Y197705D01*
X22805Y197752D01*
X22937Y197795D01*
X22954Y197806D01*
X22973Y197812D01*
X23089Y197891D01*
X23206Y197965D01*
X23220Y197980D01*
X23236Y197991D01*
X23329Y198095D01*
X23424Y198197D01*
X23434Y198214D01*
X23447Y198229D01*
X23510Y198353D01*
X23578Y198475D01*
X23583Y198495D01*
X23592Y198512D01*
X23622Y198649D01*
X23657Y198783D01*
X23659Y198811D01*
X23661Y198823D01*
X23661Y198843D01*
X23667Y198944D01*
X23667Y201042D01*
X24858Y202233D01*
X29328Y202233D01*
X29446Y202248D01*
X29565Y202255D01*
X29603Y202268D01*
X29644Y202273D01*
X29754Y202316D01*
X29867Y202353D01*
X29902Y202375D01*
X29939Y202390D01*
X30035Y202459D01*
X30136Y202523D01*
X30164Y202553D01*
X30197Y202576D01*
X30273Y202668D01*
X30354Y202755D01*
X30374Y202790D01*
X30399Y202821D01*
X30450Y202929D01*
X30508Y203033D01*
X30518Y203073D01*
X30535Y203109D01*
X30557Y203226D01*
X30587Y203341D01*
X30591Y203401D01*
X30595Y203421D01*
X30593Y203442D01*
X30597Y203502D01*
X30597Y204040D01*
X30585Y204139D01*
X30582Y204238D01*
X30565Y204296D01*
X30557Y204356D01*
X30521Y204448D01*
X30493Y204543D01*
X30463Y204595D01*
X30440Y204652D01*
X30382Y204732D01*
X30332Y204817D01*
X30266Y204892D01*
X30254Y204909D01*
X30244Y204917D01*
X30226Y204938D01*
X28707Y206456D01*
X27876Y208464D01*
X27876Y210636D01*
X28707Y212644D01*
X29114Y213050D01*
X29199Y213160D01*
X29288Y213267D01*
X29296Y213286D01*
X29309Y213302D01*
X29364Y213430D01*
X29423Y213555D01*
X29427Y213575D01*
X29435Y213594D01*
X29457Y213732D01*
X29483Y213868D01*
X29482Y213888D01*
X29485Y213908D01*
X29472Y214047D01*
X29463Y214185D01*
X29457Y214204D01*
X29455Y214224D01*
X29408Y214355D01*
X29365Y214487D01*
X29355Y214505D01*
X29348Y214524D01*
X29270Y214638D01*
X29195Y214756D01*
X29180Y214770D01*
X29169Y214787D01*
X29065Y214879D01*
X28964Y214974D01*
X28946Y214984D01*
X28931Y214997D01*
X28807Y215060D01*
X28685Y215128D01*
X28666Y215133D01*
X28647Y215142D01*
X28511Y215172D01*
X28377Y215207D01*
X28349Y215209D01*
X28337Y215212D01*
X28317Y215211D01*
X28216Y215217D01*
X27558Y215217D01*
X26574Y216202D01*
X26474Y216279D01*
X26379Y216361D01*
X26349Y216376D01*
X26322Y216397D01*
X26207Y216447D01*
X26094Y216503D01*
X26061Y216510D01*
X26030Y216523D01*
X25906Y216543D01*
X25783Y216569D01*
X25750Y216568D01*
X25716Y216573D01*
X25591Y216561D01*
X25466Y216556D01*
X25433Y216546D01*
X25400Y216543D01*
X25281Y216501D01*
X25161Y216464D01*
X25132Y216447D01*
X25100Y216436D01*
X24996Y216365D01*
X24889Y216300D01*
X24865Y216276D01*
X24837Y216257D01*
X24754Y216163D01*
X24666Y216073D01*
X24639Y216032D01*
X24627Y216019D01*
X24617Y215999D01*
X24577Y215939D01*
X24433Y215690D01*
X23960Y215217D01*
X23381Y214882D01*
X22734Y214709D01*
X19399Y214709D01*
X19399Y221020D01*
X19384Y221138D01*
X19377Y221257D01*
X19364Y221295D01*
X19359Y221335D01*
X19316Y221446D01*
X19279Y221559D01*
X19257Y221593D01*
X19242Y221631D01*
X19173Y221727D01*
X19109Y221828D01*
X19079Y221856D01*
X19056Y221888D01*
X18964Y221964D01*
X18877Y222046D01*
X18842Y222065D01*
X18811Y222091D01*
X18703Y222142D01*
X18599Y222199D01*
X18559Y222209D01*
X18523Y222227D01*
X18416Y222247D01*
X18446Y222251D01*
X18556Y222295D01*
X18669Y222331D01*
X18704Y222353D01*
X18741Y222368D01*
X18837Y222438D01*
X18938Y222501D01*
X18966Y222531D01*
X18999Y222555D01*
X19075Y222646D01*
X19156Y222733D01*
X19176Y222768D01*
X19201Y222800D01*
X19252Y222907D01*
X19310Y223012D01*
X19320Y223051D01*
X19337Y223087D01*
X19359Y223204D01*
X19389Y223320D01*
X19393Y223380D01*
X19397Y223400D01*
X19395Y223420D01*
X19399Y223480D01*
X19399Y229791D01*
X22734Y229791D01*
X23381Y229618D01*
X23960Y229283D01*
X24433Y228810D01*
X24577Y228561D01*
X24653Y228461D01*
X24723Y228357D01*
X24749Y228335D01*
X24769Y228308D01*
X24868Y228230D01*
X24962Y228146D01*
X24992Y228131D01*
X25018Y228110D01*
X25133Y228059D01*
X25245Y228002D01*
X25278Y227994D01*
X25309Y227981D01*
X25433Y227960D01*
X25555Y227932D01*
X25589Y227933D01*
X25622Y227928D01*
X25748Y227938D01*
X25873Y227942D01*
X25906Y227951D01*
X25939Y227954D01*
X26058Y227995D01*
X26179Y228030D01*
X26208Y228047D01*
X26240Y228058D01*
X26344Y228128D01*
X26453Y228192D01*
X26489Y228224D01*
X26505Y228234D01*
X26519Y228250D01*
X26574Y228298D01*
X27558Y229283D01*
X29328Y229283D01*
X29446Y229298D01*
X29565Y229305D01*
X29603Y229318D01*
X29644Y229323D01*
X29754Y229366D01*
X29867Y229403D01*
X29902Y229425D01*
X29939Y229440D01*
X30035Y229509D01*
X30136Y229573D01*
X30164Y229603D01*
X30197Y229626D01*
X30273Y229718D01*
X30354Y229805D01*
X30374Y229840D01*
X30399Y229871D01*
X30450Y229979D01*
X30508Y230083D01*
X30518Y230123D01*
X30535Y230159D01*
X30557Y230276D01*
X30587Y230391D01*
X30591Y230451D01*
X30595Y230471D01*
X30593Y230492D01*
X30597Y230552D01*
X30597Y230906D01*
X30585Y231004D01*
X30582Y231103D01*
X30565Y231162D01*
X30557Y231222D01*
X30521Y231314D01*
X30493Y231409D01*
X30463Y231461D01*
X30440Y231517D01*
X30382Y231597D01*
X30332Y231683D01*
X30266Y231758D01*
X30254Y231775D01*
X30244Y231783D01*
X30226Y231804D01*
X25096Y236934D01*
X25072Y236952D01*
X25053Y236974D01*
X24947Y237049D01*
X24844Y237129D01*
X24817Y237140D01*
X24793Y237157D01*
X24672Y237203D01*
X24553Y237255D01*
X24523Y237259D01*
X24496Y237270D01*
X24367Y237284D01*
X24238Y237305D01*
X24209Y237302D01*
X24180Y237305D01*
X24051Y237287D01*
X23922Y237275D01*
X23894Y237265D01*
X23865Y237261D01*
X23712Y237209D01*
X21324Y236219D01*
X16776Y236219D01*
X12575Y237959D01*
X10232Y240303D01*
X10122Y240388D01*
X10015Y240476D01*
X9997Y240485D01*
X9981Y240497D01*
X9853Y240553D01*
X9727Y240612D01*
X9708Y240616D01*
X9689Y240624D01*
X9551Y240646D01*
X9415Y240672D01*
X9395Y240670D01*
X9375Y240674D01*
X9236Y240661D01*
X9098Y240652D01*
X9078Y240646D01*
X9058Y240644D01*
X8927Y240597D01*
X8795Y240554D01*
X8778Y240543D01*
X8759Y240536D01*
X8644Y240458D01*
X8526Y240384D01*
X8512Y240369D01*
X8496Y240358D01*
X8404Y240253D01*
X8308Y240152D01*
X8299Y240134D01*
X8285Y240119D01*
X8222Y239995D01*
X8155Y239874D01*
X8150Y239854D01*
X8141Y239836D01*
X8110Y239700D01*
X8075Y239566D01*
X8074Y239538D01*
X8071Y239526D01*
X8072Y239505D01*
X8065Y239405D01*
X8065Y230457D01*
X8082Y230326D01*
X8093Y230194D01*
X8102Y230168D01*
X8105Y230141D01*
X8154Y230018D01*
X8197Y229893D01*
X8212Y229871D01*
X8222Y229846D01*
X8300Y229739D01*
X8373Y229628D01*
X8393Y229610D01*
X8409Y229588D01*
X8511Y229504D01*
X8609Y229415D01*
X8633Y229403D01*
X8654Y229385D01*
X8774Y229329D01*
X8891Y229268D01*
X8917Y229261D01*
X8942Y229250D01*
X9071Y229225D01*
X9201Y229195D01*
X9228Y229195D01*
X9254Y229190D01*
X9386Y229198D01*
X9518Y229201D01*
X9545Y229208D01*
X9571Y229210D01*
X9697Y229251D01*
X9825Y229286D01*
X9859Y229303D01*
X9874Y229308D01*
X9892Y229320D01*
X9969Y229358D01*
X10419Y229618D01*
X11066Y229791D01*
X14401Y229791D01*
X14401Y223480D01*
X14416Y223362D01*
X14423Y223243D01*
X14435Y223205D01*
X14441Y223165D01*
X14484Y223054D01*
X14521Y222941D01*
X14543Y222907D01*
X14558Y222869D01*
X14627Y222773D01*
X14691Y222672D01*
X14721Y222644D01*
X14744Y222612D01*
X14836Y222536D01*
X14923Y222454D01*
X14958Y222435D01*
X14989Y222409D01*
X15097Y222358D01*
X15201Y222301D01*
X15241Y222291D01*
X15277Y222273D01*
X15384Y222253D01*
X15354Y222249D01*
X15244Y222205D01*
X15131Y222169D01*
X15096Y222147D01*
X15059Y222132D01*
X14962Y222062D01*
X14862Y221999D01*
X14834Y221969D01*
X14801Y221945D01*
X14725Y221854D01*
X14644Y221767D01*
X14624Y221732D01*
X14599Y221700D01*
X14548Y221593D01*
X14490Y221488D01*
X14480Y221449D01*
X14463Y221413D01*
X14441Y221296D01*
X14411Y221180D01*
X14407Y221120D01*
X14403Y221100D01*
X14405Y221080D01*
X14401Y221020D01*
X14401Y214709D01*
X11066Y214709D01*
X10419Y214882D01*
X9969Y215142D01*
X9847Y215194D01*
X9727Y215250D01*
X9701Y215255D01*
X9676Y215266D01*
X9545Y215285D01*
X9415Y215310D01*
X9388Y215308D01*
X9361Y215312D01*
X9230Y215298D01*
X9098Y215290D01*
X9072Y215282D01*
X9045Y215279D01*
X8921Y215233D01*
X8795Y215192D01*
X8772Y215178D01*
X8747Y215168D01*
X8638Y215093D01*
X8526Y215022D01*
X8508Y215002D01*
X8486Y214987D01*
X8399Y214887D01*
X8308Y214790D01*
X8295Y214767D01*
X8278Y214746D01*
X8219Y214628D01*
X8155Y214512D01*
X8148Y214486D01*
X8136Y214462D01*
X8109Y214332D01*
X8075Y214204D01*
X8073Y214166D01*
X8070Y214150D01*
X8071Y214129D01*
X8065Y214043D01*
X8065Y212007D01*
X8078Y211909D01*
X8081Y211810D01*
X8098Y211751D01*
X8105Y211692D01*
X8142Y211599D01*
X8169Y211504D01*
X8200Y211452D01*
X8222Y211396D01*
X8280Y211316D01*
X8331Y211230D01*
X8397Y211155D01*
X8409Y211139D01*
X8418Y211131D01*
X8437Y211109D01*
X9463Y210084D01*
X9541Y210024D01*
X9613Y209956D01*
X9666Y209927D01*
X9714Y209889D01*
X9805Y209850D01*
X9892Y209802D01*
X9950Y209787D01*
X10006Y209763D01*
X10104Y209748D01*
X10200Y209723D01*
X10300Y209717D01*
X10320Y209713D01*
X10332Y209715D01*
X10360Y209713D01*
X18542Y209713D01*
X19733Y208522D01*
X19733Y200341D01*
X19745Y200243D01*
X19748Y200144D01*
X19765Y200085D01*
X19773Y200025D01*
X19809Y199933D01*
X19836Y199838D01*
X19867Y199786D01*
X19890Y199729D01*
X19948Y199649D01*
X19998Y199564D01*
X20064Y199489D01*
X20076Y199472D01*
X20086Y199464D01*
X20104Y199443D01*
X21500Y198047D01*
X21610Y197961D01*
X21717Y197872D01*
X21736Y197864D01*
X21751Y197852D01*
X21879Y197796D01*
X22005Y197737D01*
X22025Y197733D01*
X22043Y197725D01*
X22181Y197703D01*
X22318Y197677D01*
X22338Y197678D01*
X22357Y197675D01*
X22496Y197688D01*
G37*
%LPC*%
G36*
X35826Y331469D02*
X35826Y331469D01*
X31625Y333209D01*
X28409Y336425D01*
X26669Y340626D01*
X26669Y345174D01*
X28409Y349375D01*
X31625Y352591D01*
X35826Y354331D01*
X40374Y354331D01*
X44575Y352591D01*
X47791Y349375D01*
X49531Y345174D01*
X49531Y340626D01*
X47791Y336425D01*
X44575Y333209D01*
X40374Y331469D01*
X35826Y331469D01*
G37*
%LPD*%
%LPC*%
G36*
X16776Y287019D02*
X16776Y287019D01*
X12575Y288759D01*
X9359Y291975D01*
X7619Y296176D01*
X7619Y300724D01*
X9359Y304925D01*
X12575Y308141D01*
X16776Y309881D01*
X21324Y309881D01*
X25525Y308141D01*
X28741Y304925D01*
X30481Y300724D01*
X30481Y296176D01*
X28741Y291975D01*
X25525Y288759D01*
X21324Y287019D01*
X16776Y287019D01*
G37*
%LPD*%
%LPC*%
G36*
X114489Y20589D02*
X114489Y20589D01*
X114489Y50511D01*
X123063Y50511D01*
X123063Y35030D01*
X122790Y33303D01*
X122255Y31656D01*
X122224Y31495D01*
X122195Y31345D01*
X122195Y31344D01*
X122206Y31169D01*
X122215Y31027D01*
X122215Y31026D01*
X122215Y31025D01*
X122255Y30872D01*
X122790Y29225D01*
X123063Y27497D01*
X123063Y20589D01*
X114489Y20589D01*
G37*
%LPD*%
%LPC*%
G36*
X29337Y20589D02*
X29337Y20589D01*
X29337Y27497D01*
X29610Y29225D01*
X30145Y30872D01*
X30174Y31022D01*
X30205Y31183D01*
X30205Y31184D01*
X30196Y31321D01*
X30185Y31500D01*
X30185Y31501D01*
X30185Y31503D01*
X30145Y31656D01*
X29610Y33303D01*
X29337Y35030D01*
X29337Y50511D01*
X37911Y50511D01*
X37911Y20589D01*
X29337Y20589D01*
G37*
%LPD*%
%LPC*%
G36*
X136714Y335867D02*
X136714Y335867D01*
X134129Y336938D01*
X132150Y338916D01*
X131080Y341501D01*
X131080Y344299D01*
X132150Y346884D01*
X134129Y348862D01*
X136714Y349933D01*
X139511Y349933D01*
X142096Y348862D01*
X144075Y346884D01*
X145145Y344299D01*
X145145Y341501D01*
X144075Y338916D01*
X142096Y336938D01*
X139511Y335867D01*
X136714Y335867D01*
G37*
%LPD*%
%LPC*%
G36*
X116839Y345439D02*
X116839Y345439D01*
X116839Y354585D01*
X117096Y354545D01*
X118883Y353964D01*
X120557Y353111D01*
X122078Y352006D01*
X123406Y350678D01*
X124511Y349157D01*
X125364Y347483D01*
X125945Y345696D01*
X125985Y345439D01*
X116839Y345439D01*
G37*
%LPD*%
%LPC*%
G36*
X116839Y340361D02*
X116839Y340361D01*
X125985Y340361D01*
X125945Y340104D01*
X125364Y338317D01*
X124511Y336643D01*
X123406Y335122D01*
X122078Y333794D01*
X120557Y332689D01*
X118883Y331836D01*
X117096Y331255D01*
X116839Y331215D01*
X116839Y340361D01*
G37*
%LPD*%
%LPC*%
G36*
X103406Y81879D02*
X103406Y81879D01*
X102759Y82052D01*
X102180Y82387D01*
X101707Y82860D01*
X101372Y83439D01*
X101177Y84168D01*
X101166Y84277D01*
X101161Y84289D01*
X101159Y84303D01*
X101106Y84438D01*
X101055Y84575D01*
X101047Y84586D01*
X101042Y84598D01*
X100956Y84717D01*
X100874Y84836D01*
X100863Y84845D01*
X100856Y84856D01*
X100743Y84949D01*
X100633Y85044D01*
X100621Y85050D01*
X100611Y85058D01*
X100479Y85120D01*
X100348Y85185D01*
X100335Y85188D01*
X100323Y85194D01*
X100180Y85221D01*
X100037Y85252D01*
X100024Y85251D01*
X100011Y85254D01*
X99865Y85245D01*
X99719Y85239D01*
X99707Y85235D01*
X99693Y85234D01*
X99554Y85189D01*
X99415Y85147D01*
X99403Y85140D01*
X99391Y85136D01*
X99267Y85058D01*
X99143Y84983D01*
X99133Y84973D01*
X99122Y84966D01*
X99022Y84859D01*
X98920Y84756D01*
X98910Y84740D01*
X98904Y84734D01*
X98896Y84719D01*
X98831Y84622D01*
X98824Y84610D01*
X98351Y84137D01*
X97772Y83802D01*
X97125Y83629D01*
X92165Y83629D01*
X92165Y87546D01*
X100068Y87546D01*
X100132Y87510D01*
X100172Y87500D01*
X100208Y87483D01*
X100325Y87461D01*
X100440Y87431D01*
X100500Y87427D01*
X100520Y87423D01*
X100541Y87425D01*
X100601Y87421D01*
X106241Y87421D01*
X106241Y81879D01*
X103406Y81879D01*
G37*
%LPD*%
%LPC*%
G36*
X111239Y81879D02*
X111239Y81879D01*
X111239Y87421D01*
X121321Y87421D01*
X121321Y81879D01*
X118486Y81879D01*
X117839Y82052D01*
X117260Y82387D01*
X117178Y82469D01*
X117083Y82542D01*
X116994Y82621D01*
X116958Y82639D01*
X116926Y82664D01*
X116817Y82712D01*
X116711Y82766D01*
X116672Y82775D01*
X116634Y82791D01*
X116517Y82809D01*
X116401Y82835D01*
X116360Y82834D01*
X116320Y82840D01*
X116202Y82829D01*
X116083Y82826D01*
X116044Y82814D01*
X116004Y82811D01*
X115892Y82770D01*
X115777Y82737D01*
X115742Y82717D01*
X115704Y82703D01*
X115606Y82636D01*
X115503Y82576D01*
X115458Y82536D01*
X115441Y82525D01*
X115428Y82509D01*
X115383Y82469D01*
X115300Y82387D01*
X114721Y82052D01*
X114074Y81879D01*
X111239Y81879D01*
G37*
%LPD*%
%LPC*%
G36*
X42989Y55589D02*
X42989Y55589D01*
X42989Y63900D01*
X43052Y63890D01*
X44716Y63349D01*
X46275Y62555D01*
X47690Y61527D01*
X48927Y60290D01*
X49955Y58875D01*
X50749Y57316D01*
X51290Y55652D01*
X51300Y55589D01*
X42989Y55589D01*
G37*
%LPD*%
%LPC*%
G36*
X114489Y55589D02*
X114489Y55589D01*
X114489Y63900D01*
X114552Y63890D01*
X116216Y63349D01*
X117775Y62555D01*
X119190Y61527D01*
X120427Y60290D01*
X121455Y58875D01*
X122249Y57316D01*
X122790Y55652D01*
X122800Y55589D01*
X114489Y55589D01*
G37*
%LPD*%
%LPC*%
G36*
X101100Y55589D02*
X101100Y55589D01*
X101110Y55652D01*
X101651Y57316D01*
X102445Y58875D01*
X103473Y60290D01*
X104710Y61527D01*
X106125Y62555D01*
X107684Y63349D01*
X109348Y63890D01*
X109411Y63900D01*
X109411Y55589D01*
X101100Y55589D01*
G37*
%LPD*%
%LPC*%
G36*
X83969Y51569D02*
X83969Y51569D01*
X83969Y62091D01*
X85034Y62091D01*
X85621Y61933D01*
X85713Y61921D01*
X85803Y61899D01*
X85870Y61899D01*
X85937Y61890D01*
X86028Y61901D01*
X86121Y61902D01*
X86236Y61925D01*
X86252Y61927D01*
X86260Y61930D01*
X86279Y61933D01*
X86866Y62091D01*
X87931Y62091D01*
X87931Y51569D01*
X83969Y51569D01*
G37*
%LPD*%
%LPC*%
G36*
X83969Y38509D02*
X83969Y38509D01*
X83969Y49031D01*
X87931Y49031D01*
X87931Y38509D01*
X86866Y38509D01*
X86279Y38667D01*
X86187Y38679D01*
X86097Y38701D01*
X86030Y38701D01*
X85963Y38710D01*
X85872Y38699D01*
X85779Y38698D01*
X85664Y38675D01*
X85648Y38673D01*
X85640Y38670D01*
X85621Y38667D01*
X85034Y38509D01*
X83969Y38509D01*
G37*
%LPD*%
%LPC*%
G36*
X90469Y51569D02*
X90469Y51569D01*
X90469Y62091D01*
X91534Y62091D01*
X92181Y61918D01*
X92760Y61583D01*
X93233Y61110D01*
X93568Y60531D01*
X93741Y59884D01*
X93741Y51569D01*
X90469Y51569D01*
G37*
%LPD*%
%LPC*%
G36*
X90469Y38509D02*
X90469Y38509D01*
X90469Y49031D01*
X93741Y49031D01*
X93741Y40716D01*
X93568Y40069D01*
X93233Y39490D01*
X92760Y39017D01*
X92181Y38682D01*
X91534Y38509D01*
X90469Y38509D01*
G37*
%LPD*%
%LPC*%
G36*
X84457Y83629D02*
X84457Y83629D01*
X83810Y83802D01*
X83231Y84137D01*
X82758Y84610D01*
X82423Y85189D01*
X82250Y85836D01*
X82250Y87546D01*
X89417Y87546D01*
X89417Y83629D01*
X84457Y83629D01*
G37*
%LPD*%
%LPC*%
G36*
X137999Y224749D02*
X137999Y224749D01*
X137999Y229791D01*
X141334Y229791D01*
X141981Y229618D01*
X142560Y229283D01*
X143033Y228810D01*
X143368Y228231D01*
X143541Y227584D01*
X143541Y224749D01*
X137999Y224749D01*
G37*
%LPD*%
%LPC*%
G36*
X47509Y110449D02*
X47509Y110449D01*
X47509Y115491D01*
X50844Y115491D01*
X51491Y115318D01*
X52070Y114983D01*
X52543Y114510D01*
X52878Y113931D01*
X53051Y113284D01*
X53051Y110449D01*
X47509Y110449D01*
G37*
%LPD*%
%LPC*%
G36*
X15199Y131099D02*
X15199Y131099D01*
X15199Y136641D01*
X20241Y136641D01*
X20241Y133306D01*
X20068Y132659D01*
X19733Y132080D01*
X19260Y131607D01*
X18681Y131272D01*
X18034Y131099D01*
X15199Y131099D01*
G37*
%LPD*%
%LPC*%
G36*
X15199Y177139D02*
X15199Y177139D01*
X15199Y182681D01*
X20241Y182681D01*
X20241Y179346D01*
X20068Y178699D01*
X19733Y178120D01*
X19260Y177647D01*
X18681Y177312D01*
X18034Y177139D01*
X15199Y177139D01*
G37*
%LPD*%
%LPC*%
G36*
X35319Y303099D02*
X35319Y303099D01*
X35319Y306434D01*
X35492Y307081D01*
X35827Y307660D01*
X36300Y308133D01*
X36879Y308468D01*
X37526Y308641D01*
X40361Y308641D01*
X40361Y303099D01*
X35319Y303099D01*
G37*
%LPD*%
%LPC*%
G36*
X137999Y214709D02*
X137999Y214709D01*
X137999Y219751D01*
X143541Y219751D01*
X143541Y216916D01*
X143368Y216269D01*
X143033Y215690D01*
X142560Y215217D01*
X141981Y214882D01*
X141334Y214709D01*
X137999Y214709D01*
G37*
%LPD*%
%LPC*%
G36*
X47509Y100409D02*
X47509Y100409D01*
X47509Y105451D01*
X53051Y105451D01*
X53051Y102616D01*
X52878Y101969D01*
X52543Y101390D01*
X52070Y100917D01*
X51491Y100582D01*
X50844Y100409D01*
X47509Y100409D01*
G37*
%LPD*%
%LPC*%
G36*
X15199Y25479D02*
X15199Y25479D01*
X15199Y30521D01*
X16732Y30521D01*
X17760Y30245D01*
X18681Y29713D01*
X19433Y28961D01*
X19965Y28040D01*
X20241Y27012D01*
X20241Y25479D01*
X15199Y25479D01*
G37*
%LPD*%
%LPC*%
G36*
X132159Y25479D02*
X132159Y25479D01*
X132159Y27012D01*
X132435Y28040D01*
X132967Y28961D01*
X133719Y29713D01*
X134640Y30245D01*
X135668Y30521D01*
X137201Y30521D01*
X137201Y25479D01*
X132159Y25479D01*
G37*
%LPD*%
%LPC*%
G36*
X15199Y15439D02*
X15199Y15439D01*
X15199Y20481D01*
X20241Y20481D01*
X20241Y18948D01*
X19965Y17920D01*
X19433Y16999D01*
X18681Y16247D01*
X17760Y15715D01*
X16732Y15439D01*
X15199Y15439D01*
G37*
%LPD*%
%LPC*%
G36*
X135668Y15439D02*
X135668Y15439D01*
X134640Y15715D01*
X133719Y16247D01*
X132967Y16999D01*
X132435Y17920D01*
X132159Y18948D01*
X132159Y20481D01*
X137201Y20481D01*
X137201Y15439D01*
X135668Y15439D01*
G37*
%LPD*%
%LPC*%
G36*
X40449Y53049D02*
X40449Y53049D01*
X40449Y53051D01*
X40451Y53051D01*
X40451Y53049D01*
X40449Y53049D01*
G37*
%LPD*%
%LPC*%
G36*
X111949Y53049D02*
X111949Y53049D01*
X111949Y53051D01*
X111951Y53051D01*
X111951Y53049D01*
X111949Y53049D01*
G37*
%LPD*%
D10*
X64789Y107920D03*
X64789Y98420D03*
X64789Y88920D03*
X90791Y88920D03*
X90791Y107920D03*
D11*
X136200Y26480D02*
X143200Y26480D01*
X143200Y19480D01*
X136200Y19480D01*
X136200Y26480D01*
X136200Y22330D02*
X143200Y22330D01*
X143200Y25180D02*
X136200Y25180D01*
X136200Y44020D02*
X143200Y44020D01*
X143200Y37020D01*
X136200Y37020D01*
X136200Y44020D01*
X136200Y39870D02*
X143200Y39870D01*
X143200Y42720D02*
X136200Y42720D01*
D12*
X45010Y107950D03*
X28010Y107950D03*
D13*
X108740Y106920D03*
X108740Y89920D03*
X139700Y106920D03*
X139700Y89920D03*
D12*
X118500Y222250D03*
X135500Y222250D03*
D13*
X123820Y106920D03*
X123820Y89920D03*
D14*
X33200Y198950D03*
X33200Y193950D03*
X33200Y188950D03*
X33200Y183950D03*
X33200Y178950D03*
X33200Y173950D03*
X33200Y168950D03*
X33200Y163950D03*
X33200Y158950D03*
X33200Y153950D03*
X33200Y148950D03*
X33200Y143950D03*
D15*
X48700Y128450D03*
X53700Y128450D03*
X58700Y128450D03*
X63700Y128450D03*
X68700Y128450D03*
X73700Y128450D03*
X78700Y128450D03*
X83700Y128450D03*
X88700Y128450D03*
X93700Y128450D03*
X98700Y128450D03*
X103700Y128450D03*
D14*
X119200Y143950D03*
X119200Y148950D03*
X119200Y153950D03*
X119200Y158950D03*
X119200Y163950D03*
X119200Y168950D03*
X119200Y173950D03*
X119200Y178950D03*
X119200Y183950D03*
X119200Y188950D03*
X119200Y193950D03*
X119200Y198950D03*
D15*
X103700Y214450D03*
X98700Y214450D03*
X93700Y214450D03*
X88700Y214450D03*
X83700Y214450D03*
X78700Y214450D03*
X73700Y214450D03*
X68700Y214450D03*
X63700Y214450D03*
X58700Y214450D03*
X53700Y214450D03*
X48700Y214450D03*
D16*
X142880Y176210D03*
X142880Y163510D03*
X142880Y188910D03*
X142880Y150810D03*
D11*
X16200Y26480D02*
X9200Y26480D01*
X16200Y26480D02*
X16200Y19480D01*
X9200Y19480D01*
X9200Y26480D01*
X9200Y22330D02*
X16200Y22330D01*
X16200Y25180D02*
X9200Y25180D01*
X9200Y44020D02*
X16200Y44020D01*
X16200Y37020D01*
X9200Y37020D01*
X9200Y44020D01*
X9200Y39870D02*
X16200Y39870D01*
X16200Y42720D02*
X9200Y42720D01*
D13*
X12700Y106920D03*
X12700Y89920D03*
X42860Y283600D03*
X42860Y300600D03*
X111120Y265680D03*
X111120Y248680D03*
D12*
X33900Y222250D03*
X16900Y222250D03*
D13*
X12700Y156140D03*
X12700Y139140D03*
X12700Y185180D03*
X12700Y202180D03*
D17*
X30160Y93550D03*
X30160Y71550D03*
D18*
X76200Y50300D03*
X69700Y50300D03*
X89200Y50300D03*
X82700Y50300D03*
X63200Y50300D03*
D19*
X76200Y18050D03*
D20*
X40450Y9478D02*
X40450Y26623D01*
X111950Y26623D02*
X111950Y9478D01*
X40450Y35905D02*
X40450Y53050D01*
X111950Y53050D02*
X111950Y35905D01*
D21*
X38100Y342900D03*
X63500Y342900D03*
X88900Y342900D03*
X114300Y342900D03*
X19050Y247650D03*
X19050Y273050D03*
X19050Y298450D03*
X133350Y247650D03*
X133350Y273050D03*
X133350Y298450D03*
D22*
X57150Y242316D03*
X69850Y242316D03*
X82550Y242316D03*
X95250Y242316D03*
X95250Y303784D03*
X82550Y303784D03*
X69850Y303784D03*
X57150Y303784D03*
D23*
X138113Y342900D03*
X128588Y68263D03*
D24*
X127000Y46038D03*
X25400Y46038D03*
X95250Y266700D03*
X22225Y211138D03*
D25*
X98700Y128450D02*
X98700Y117750D01*
D24*
X38100Y122238D03*
X52388Y96838D03*
D26*
X53966Y300600D02*
X42860Y300600D01*
X53966Y300600D02*
X57150Y303784D01*
D24*
X25400Y134938D03*
X131763Y136525D03*
X52388Y173038D03*
X41275Y314325D03*
D25*
X90791Y107920D02*
X90789Y100314D01*
X88900Y98425D01*
D24*
X88900Y98425D03*
X33338Y209550D03*
X12700Y168275D03*
X119063Y209550D03*
X142875Y139700D03*
X123825Y120650D03*
D25*
X12700Y156140D02*
X12700Y168275D01*
X33900Y209550D02*
X33900Y222250D01*
X33900Y209550D02*
X33900Y199650D01*
X33200Y198950D01*
X48700Y210063D02*
X48700Y214450D01*
X33900Y209550D02*
X33338Y209550D01*
X33900Y222250D02*
X33900Y232800D01*
X119063Y209550D02*
X119200Y209550D01*
X119200Y198950D01*
X119200Y209550D02*
X119200Y221550D01*
X118500Y222250D01*
X48700Y210063D02*
X48188Y209550D01*
X33338Y209550D01*
X142880Y150810D02*
X142875Y139700D01*
D24*
X88900Y155575D03*
D25*
X85525Y158950D02*
X33200Y158950D01*
X15513Y158950D01*
X12700Y156140D01*
X90791Y107920D02*
X107744Y107925D01*
X103700Y120138D02*
X103700Y128450D01*
X108744Y115094D02*
X108740Y106920D01*
X108744Y115094D02*
X103700Y120138D01*
X123825Y120650D02*
X123820Y106920D01*
X108740Y106920D01*
X107744Y107925D01*
X88900Y155575D02*
X85525Y158950D01*
D24*
X82550Y263525D03*
D26*
X77788Y268288D01*
X46038Y268288D01*
X42863Y271463D01*
X42860Y283600D01*
D25*
X82550Y263525D02*
X82550Y242316D01*
X33900Y232800D02*
X19050Y247650D01*
D24*
X79375Y73025D03*
X104775Y168275D03*
D25*
X91875Y183950D02*
X119200Y183950D01*
X91875Y183950D02*
X88900Y180975D01*
X88900Y171450D01*
X92075Y168275D01*
X104775Y168275D01*
X79375Y73025D02*
X76200Y69850D01*
X76200Y50300D01*
D24*
X68263Y73025D03*
X96838Y176213D03*
D25*
X99575Y178950D02*
X119200Y178950D01*
X99575Y178950D02*
X96838Y176213D01*
D27*
X68263Y73025D02*
X69700Y71588D01*
D25*
X69700Y50300D01*
X139700Y40520D02*
X139700Y89920D01*
X119063Y128588D02*
X104775Y142875D01*
X82550Y142875D01*
X78700Y139025D01*
X78700Y128450D01*
X119063Y128588D02*
X131763Y128588D01*
X139700Y120650D01*
X139700Y106920D01*
X12700Y89920D02*
X12700Y40520D01*
X47475Y142875D02*
X69850Y142875D01*
X73700Y139025D01*
X73700Y128450D01*
X47475Y142875D02*
X30013Y125413D01*
X21012Y125413D01*
X12700Y117100D01*
X12700Y106920D01*
X63700Y214450D02*
X63700Y224038D01*
X66675Y227013D01*
X90488Y227013D02*
X95250Y231775D01*
X90488Y227013D02*
X66675Y227013D01*
X95250Y231775D02*
X95250Y242316D01*
X58700Y240766D02*
X58700Y214450D01*
X58700Y240766D02*
X57150Y242316D01*
X119200Y188950D02*
X142838Y188950D01*
X142880Y188910D01*
X103700Y198950D02*
X103700Y214450D01*
X103700Y198950D02*
X101600Y196850D01*
D24*
X133350Y176213D03*
X101600Y196850D03*
D25*
X133350Y176213D02*
X142880Y176210D01*
X76200Y279400D02*
X69850Y285750D01*
X111125Y276225D02*
X111120Y265680D01*
X111125Y276225D02*
X107950Y279400D01*
X76200Y279400D01*
X69850Y330200D02*
X63500Y336550D01*
X63500Y342900D01*
X69850Y330200D02*
X69850Y303784D01*
X69850Y285750D01*
X82550Y323850D02*
X106680Y323850D01*
X132080Y298450D01*
X133350Y298450D01*
X88900Y336550D02*
X88900Y342900D01*
X88900Y336550D02*
X82550Y330200D01*
X82550Y323850D01*
X82550Y303784D01*
X120650Y269875D02*
X120650Y257175D01*
X120650Y269875D02*
X123825Y273050D01*
X120650Y257175D02*
X112150Y248675D01*
X111120Y248680D01*
X123825Y273050D02*
X133350Y273050D01*
X68700Y214450D02*
X68700Y202050D01*
X60600Y193950D01*
X33200Y193950D01*
X4763Y258763D02*
X19050Y273050D01*
X4763Y258763D02*
X4763Y210113D01*
X12700Y202180D01*
X20925Y193950D02*
X33200Y193950D01*
X20925Y193950D02*
X12700Y202180D01*
D26*
X30160Y71550D02*
X57038Y71550D01*
X57944Y70644D02*
X63200Y65388D01*
D27*
X57944Y70644D02*
X57038Y71550D01*
D26*
X63200Y65388D02*
X63200Y50300D01*
X39800Y93550D02*
X30160Y93550D01*
X39800Y93550D02*
X44450Y88900D01*
X64762Y88900D01*
X64789Y88920D01*
X28013Y95700D02*
X28010Y107950D01*
X28013Y95700D02*
X30160Y93550D01*
X64789Y88920D02*
X73050Y88925D01*
X77788Y93663D01*
X77788Y103188D01*
X73025Y107950D01*
X73000Y107925D01*
X64789Y107920D01*
M02*
