M48
;GenerationSoftware,Autodesk,EAGLE,9.2.2*%
;CreationDate,2018-12-28T12:51:13Z*%
FMAT,2
ICI,OFF
METRIC,TZ,000.000
T3C0.381
T2C1.016
T1C1.143
%
G90
M71
T1
X4045Y1805
X11195Y1805
X4045Y5305
X11195Y5305
T2
X13335Y29845
X3810Y34290
X6350Y34290
X8890Y34290
X11430Y34290
X1905Y24765
X1905Y27305
X1905Y29845
X13335Y24765
X13335Y27305
T3
X14287Y13970
X12382Y12065
X8890Y15557
X8255Y26352
X7937Y7302
X12700Y4604
X6826Y7302
X9684Y17621
X13335Y17621
X10160Y19685
X2540Y4604
X9525Y26670
X2223Y21114
X3810Y12224
X5239Y9684
X2540Y13494
X13176Y13652
X5239Y17304
X4128Y31432
X8890Y9843
X3334Y20955
X1270Y16828
X11906Y20955
X10478Y16828
M30