G04 EAGLE Gerber RS-274X export*
G75*
%MOMM*%
%FSLAX34Y34*%
%LPD*%
%INBottom Copper*%
%IPPOS*%
%AMOC8*
5,1,8,0,0,1.08239X$1,22.5*%
G01*
%ADD10C,1.714500*%
%ADD11C,1.879600*%
%ADD12C,0.685800*%
%ADD13C,0.254000*%
%ADD14C,0.406400*%

G36*
X29026Y3832D02*
X29026Y3832D01*
X29174Y3850D01*
X29174Y3851D01*
X29175Y3851D01*
X29332Y3913D01*
X29470Y3967D01*
X29470Y3968D01*
X29589Y4054D01*
X29727Y4154D01*
X29728Y4154D01*
X29822Y4268D01*
X29930Y4399D01*
X29931Y4399D01*
X29984Y4512D01*
X30066Y4686D01*
X30066Y4687D01*
X30090Y4810D01*
X30126Y4999D01*
X30118Y5120D01*
X30106Y5316D01*
X30106Y5317D01*
X30106Y5318D01*
X30066Y5472D01*
X29610Y6875D01*
X29337Y8603D01*
X29337Y15511D01*
X39180Y15511D01*
X39298Y15526D01*
X39417Y15533D01*
X39455Y15546D01*
X39495Y15551D01*
X39606Y15594D01*
X39719Y15631D01*
X39753Y15653D01*
X39791Y15668D01*
X39887Y15738D01*
X39988Y15801D01*
X40016Y15831D01*
X40048Y15854D01*
X40124Y15946D01*
X40206Y16033D01*
X40225Y16068D01*
X40251Y16099D01*
X40302Y16207D01*
X40359Y16311D01*
X40370Y16351D01*
X40387Y16387D01*
X40409Y16504D01*
X40439Y16619D01*
X40443Y16680D01*
X40447Y16700D01*
X40445Y16720D01*
X40449Y16780D01*
X40449Y18051D01*
X40451Y18051D01*
X40451Y16780D01*
X40466Y16662D01*
X40473Y16543D01*
X40486Y16505D01*
X40491Y16464D01*
X40535Y16354D01*
X40571Y16241D01*
X40593Y16206D01*
X40608Y16169D01*
X40678Y16073D01*
X40741Y15972D01*
X40771Y15944D01*
X40795Y15911D01*
X40886Y15836D01*
X40973Y15754D01*
X41008Y15734D01*
X41040Y15709D01*
X41147Y15658D01*
X41252Y15600D01*
X41291Y15590D01*
X41327Y15573D01*
X41444Y15551D01*
X41559Y15521D01*
X41620Y15517D01*
X41640Y15513D01*
X41660Y15515D01*
X41720Y15511D01*
X51563Y15511D01*
X51563Y8603D01*
X51290Y6875D01*
X50834Y5472D01*
X50797Y5281D01*
X50774Y5160D01*
X50785Y4985D01*
X50794Y4843D01*
X50794Y4842D01*
X50846Y4683D01*
X50892Y4541D01*
X50892Y4540D01*
X50981Y4399D01*
X51062Y4272D01*
X51063Y4271D01*
X51159Y4181D01*
X51294Y4054D01*
X51424Y3982D01*
X51572Y3900D01*
X51573Y3900D01*
X51739Y3857D01*
X51880Y3821D01*
X51881Y3821D01*
X51882Y3821D01*
X52041Y3811D01*
X100359Y3811D01*
X100526Y3832D01*
X100674Y3850D01*
X100674Y3851D01*
X100675Y3851D01*
X100832Y3913D01*
X100970Y3967D01*
X100970Y3968D01*
X101089Y4054D01*
X101227Y4154D01*
X101228Y4154D01*
X101322Y4268D01*
X101430Y4399D01*
X101431Y4399D01*
X101484Y4512D01*
X101566Y4686D01*
X101566Y4687D01*
X101590Y4810D01*
X101626Y4999D01*
X101618Y5120D01*
X101606Y5316D01*
X101606Y5317D01*
X101606Y5318D01*
X101566Y5472D01*
X101110Y6875D01*
X100837Y8603D01*
X100837Y15511D01*
X110680Y15511D01*
X110798Y15526D01*
X110917Y15533D01*
X110955Y15546D01*
X110995Y15551D01*
X111106Y15594D01*
X111219Y15631D01*
X111253Y15653D01*
X111291Y15668D01*
X111387Y15738D01*
X111488Y15801D01*
X111516Y15831D01*
X111548Y15854D01*
X111624Y15946D01*
X111706Y16033D01*
X111725Y16068D01*
X111751Y16099D01*
X111802Y16207D01*
X111859Y16311D01*
X111870Y16351D01*
X111887Y16387D01*
X111909Y16504D01*
X111939Y16619D01*
X111943Y16680D01*
X111947Y16700D01*
X111945Y16720D01*
X111949Y16780D01*
X111949Y18051D01*
X111951Y18051D01*
X111951Y16780D01*
X111966Y16662D01*
X111973Y16543D01*
X111986Y16505D01*
X111991Y16464D01*
X112035Y16354D01*
X112071Y16241D01*
X112093Y16206D01*
X112108Y16169D01*
X112178Y16073D01*
X112241Y15972D01*
X112271Y15944D01*
X112295Y15911D01*
X112386Y15836D01*
X112473Y15754D01*
X112508Y15734D01*
X112540Y15709D01*
X112647Y15658D01*
X112752Y15600D01*
X112791Y15590D01*
X112827Y15573D01*
X112944Y15551D01*
X113059Y15521D01*
X113120Y15517D01*
X113140Y15513D01*
X113160Y15515D01*
X113220Y15511D01*
X123063Y15511D01*
X123063Y8603D01*
X122790Y6875D01*
X122334Y5472D01*
X122297Y5281D01*
X122274Y5160D01*
X122285Y4985D01*
X122294Y4843D01*
X122294Y4842D01*
X122346Y4683D01*
X122392Y4541D01*
X122392Y4540D01*
X122481Y4399D01*
X122562Y4272D01*
X122563Y4271D01*
X122659Y4181D01*
X122794Y4054D01*
X122924Y3982D01*
X123072Y3900D01*
X123073Y3900D01*
X123239Y3857D01*
X123380Y3821D01*
X123381Y3821D01*
X123382Y3821D01*
X123541Y3811D01*
X147320Y3811D01*
X147438Y3826D01*
X147557Y3833D01*
X147595Y3846D01*
X147636Y3851D01*
X147746Y3894D01*
X147859Y3931D01*
X147894Y3953D01*
X147931Y3968D01*
X148027Y4037D01*
X148128Y4101D01*
X148156Y4131D01*
X148189Y4154D01*
X148265Y4246D01*
X148346Y4333D01*
X148366Y4368D01*
X148391Y4399D01*
X148442Y4507D01*
X148500Y4611D01*
X148510Y4651D01*
X148527Y4687D01*
X148549Y4804D01*
X148579Y4919D01*
X148583Y4979D01*
X148587Y4999D01*
X148585Y5020D01*
X148589Y5080D01*
X148589Y131329D01*
X148572Y131467D01*
X148559Y131606D01*
X148552Y131625D01*
X148549Y131645D01*
X148498Y131774D01*
X148451Y131905D01*
X148440Y131922D01*
X148432Y131940D01*
X148351Y132053D01*
X148273Y132168D01*
X148257Y132181D01*
X148246Y132198D01*
X148138Y132287D01*
X148034Y132379D01*
X148016Y132388D01*
X148001Y132401D01*
X147875Y132460D01*
X147751Y132523D01*
X147731Y132528D01*
X147713Y132536D01*
X147577Y132562D01*
X147441Y132593D01*
X147420Y132592D01*
X147401Y132596D01*
X147262Y132587D01*
X147123Y132583D01*
X147103Y132577D01*
X147083Y132576D01*
X146951Y132533D01*
X146817Y132495D01*
X146800Y132484D01*
X146781Y132478D01*
X146663Y132404D01*
X146543Y132333D01*
X146522Y132315D01*
X146512Y132308D01*
X146498Y132293D01*
X146423Y132227D01*
X143871Y129676D01*
X131543Y117347D01*
X128772Y117347D01*
X128674Y117335D01*
X128575Y117332D01*
X128517Y117315D01*
X128457Y117307D01*
X128364Y117271D01*
X128269Y117243D01*
X128217Y117213D01*
X128161Y117190D01*
X128081Y117132D01*
X127995Y117082D01*
X127920Y117016D01*
X127904Y117004D01*
X127896Y116994D01*
X127875Y116976D01*
X126919Y116020D01*
X124911Y115188D01*
X122739Y115188D01*
X120731Y116020D01*
X119195Y117556D01*
X118363Y119564D01*
X118363Y121736D01*
X119195Y123744D01*
X120731Y125280D01*
X122739Y126112D01*
X124911Y126112D01*
X126919Y125280D01*
X127629Y124570D01*
X127723Y124497D01*
X127812Y124418D01*
X127848Y124400D01*
X127880Y124375D01*
X127990Y124328D01*
X128096Y124274D01*
X128135Y124265D01*
X128172Y124249D01*
X128290Y124230D01*
X128406Y124204D01*
X128446Y124205D01*
X128486Y124199D01*
X128605Y124210D01*
X128724Y124214D01*
X128763Y124225D01*
X128803Y124229D01*
X128915Y124269D01*
X129029Y124302D01*
X129064Y124322D01*
X129102Y124336D01*
X129201Y124403D01*
X129303Y124463D01*
X129349Y124503D01*
X129365Y124515D01*
X129379Y124530D01*
X129424Y124570D01*
X138955Y134101D01*
X139028Y134195D01*
X139107Y134284D01*
X139125Y134320D01*
X139150Y134352D01*
X139197Y134462D01*
X139251Y134567D01*
X139260Y134607D01*
X139276Y134644D01*
X139295Y134762D01*
X139321Y134878D01*
X139320Y134918D01*
X139326Y134958D01*
X139315Y135077D01*
X139311Y135196D01*
X139300Y135234D01*
X139296Y135275D01*
X139256Y135387D01*
X139223Y135501D01*
X139203Y135536D01*
X139189Y135574D01*
X139122Y135672D01*
X139061Y135775D01*
X139022Y135820D01*
X139010Y135837D01*
X138995Y135851D01*
X138955Y135896D01*
X138245Y136606D01*
X137413Y138614D01*
X137413Y140786D01*
X138245Y142794D01*
X139781Y144330D01*
X141789Y145162D01*
X143961Y145162D01*
X145969Y144330D01*
X146422Y143877D01*
X146532Y143791D01*
X146639Y143703D01*
X146658Y143694D01*
X146674Y143682D01*
X146802Y143626D01*
X146927Y143567D01*
X146947Y143563D01*
X146966Y143555D01*
X147104Y143533D01*
X147240Y143507D01*
X147260Y143509D01*
X147280Y143505D01*
X147419Y143518D01*
X147557Y143527D01*
X147576Y143533D01*
X147596Y143535D01*
X147727Y143582D01*
X147859Y143625D01*
X147877Y143636D01*
X147896Y143643D01*
X148010Y143721D01*
X148128Y143795D01*
X148142Y143810D01*
X148159Y143821D01*
X148251Y143925D01*
X148346Y144027D01*
X148356Y144045D01*
X148369Y144060D01*
X148432Y144184D01*
X148500Y144305D01*
X148505Y144325D01*
X148514Y144343D01*
X148544Y144479D01*
X148579Y144613D01*
X148581Y144641D01*
X148584Y144653D01*
X148583Y144674D01*
X148589Y144774D01*
X148589Y356870D01*
X148574Y356988D01*
X148567Y357107D01*
X148554Y357145D01*
X148549Y357186D01*
X148506Y357296D01*
X148469Y357409D01*
X148447Y357444D01*
X148432Y357481D01*
X148363Y357577D01*
X148299Y357678D01*
X148269Y357706D01*
X148246Y357739D01*
X148154Y357815D01*
X148067Y357896D01*
X148032Y357916D01*
X148001Y357941D01*
X147893Y357992D01*
X147789Y358050D01*
X147749Y358060D01*
X147713Y358077D01*
X147596Y358099D01*
X147481Y358129D01*
X147421Y358133D01*
X147401Y358137D01*
X147380Y358135D01*
X147320Y358139D01*
X5080Y358139D01*
X4962Y358124D01*
X4843Y358117D01*
X4805Y358104D01*
X4764Y358099D01*
X4654Y358056D01*
X4541Y358019D01*
X4506Y357997D01*
X4469Y357982D01*
X4373Y357913D01*
X4272Y357849D01*
X4244Y357819D01*
X4211Y357796D01*
X4135Y357704D01*
X4054Y357617D01*
X4034Y357582D01*
X4009Y357551D01*
X3958Y357443D01*
X3900Y357339D01*
X3890Y357299D01*
X3873Y357263D01*
X3851Y357146D01*
X3821Y357031D01*
X3817Y356971D01*
X3813Y356951D01*
X3815Y356930D01*
X3811Y356870D01*
X3811Y5080D01*
X3826Y4962D01*
X3833Y4843D01*
X3846Y4805D01*
X3851Y4764D01*
X3894Y4654D01*
X3931Y4541D01*
X3953Y4506D01*
X3968Y4469D01*
X4037Y4373D01*
X4101Y4272D01*
X4131Y4244D01*
X4154Y4211D01*
X4246Y4135D01*
X4333Y4054D01*
X4368Y4034D01*
X4399Y4009D01*
X4507Y3958D01*
X4611Y3900D01*
X4651Y3890D01*
X4687Y3873D01*
X4804Y3851D01*
X4919Y3821D01*
X4979Y3817D01*
X4999Y3813D01*
X5020Y3815D01*
X5080Y3811D01*
X28859Y3811D01*
X29026Y3832D01*
G37*
%LPC*%
G36*
X67176Y67563D02*
X67176Y67563D01*
X65169Y68395D01*
X63632Y69931D01*
X62801Y71939D01*
X62801Y74111D01*
X63632Y76119D01*
X65169Y77655D01*
X67176Y78487D01*
X68528Y78487D01*
X68626Y78499D01*
X68725Y78502D01*
X68783Y78519D01*
X68843Y78527D01*
X68935Y78563D01*
X69030Y78591D01*
X69083Y78621D01*
X69139Y78644D01*
X69219Y78702D01*
X69304Y78752D01*
X69380Y78818D01*
X69396Y78830D01*
X69404Y78840D01*
X69425Y78858D01*
X76419Y85853D01*
X89220Y85853D01*
X89318Y85865D01*
X89417Y85868D01*
X89475Y85885D01*
X89535Y85893D01*
X89628Y85929D01*
X89723Y85957D01*
X89775Y85987D01*
X89831Y86010D01*
X89911Y86068D01*
X89997Y86118D01*
X90072Y86184D01*
X90088Y86196D01*
X90096Y86206D01*
X90117Y86224D01*
X93163Y89270D01*
X93224Y89348D01*
X93292Y89420D01*
X93321Y89473D01*
X93358Y89521D01*
X93397Y89612D01*
X93445Y89699D01*
X93460Y89758D01*
X93484Y89813D01*
X93500Y89911D01*
X93525Y90007D01*
X93531Y90107D01*
X93534Y90127D01*
X93533Y90140D01*
X93535Y90168D01*
X93535Y92533D01*
X93529Y92583D01*
X93531Y92632D01*
X93509Y92740D01*
X93495Y92849D01*
X93477Y92895D01*
X93467Y92944D01*
X93418Y93043D01*
X93378Y93145D01*
X93349Y93185D01*
X93327Y93230D01*
X93256Y93313D01*
X93191Y93402D01*
X93153Y93434D01*
X93121Y93472D01*
X93031Y93535D01*
X92946Y93605D01*
X92901Y93626D01*
X92860Y93655D01*
X92758Y93694D01*
X92658Y93740D01*
X92610Y93750D01*
X92563Y93767D01*
X92454Y93780D01*
X92346Y93800D01*
X92297Y93797D01*
X92247Y93803D01*
X92138Y93787D01*
X92029Y93780D01*
X91981Y93765D01*
X91932Y93758D01*
X91780Y93706D01*
X89986Y92963D01*
X87814Y92963D01*
X85806Y93795D01*
X84270Y95331D01*
X83438Y97339D01*
X83438Y97613D01*
X83426Y97711D01*
X83423Y97810D01*
X83406Y97868D01*
X83398Y97928D01*
X83362Y98020D01*
X83334Y98115D01*
X83304Y98167D01*
X83281Y98224D01*
X83223Y98304D01*
X83173Y98389D01*
X83107Y98465D01*
X83095Y98481D01*
X83085Y98489D01*
X83067Y98510D01*
X65785Y115791D01*
X65785Y252509D01*
X76717Y263440D01*
X76777Y263518D01*
X76845Y263590D01*
X76874Y263643D01*
X76911Y263691D01*
X76951Y263782D01*
X76999Y263869D01*
X77014Y263927D01*
X77038Y263983D01*
X77053Y264081D01*
X77078Y264177D01*
X77084Y264277D01*
X77088Y264297D01*
X77086Y264309D01*
X77088Y264337D01*
X77088Y264611D01*
X77920Y266619D01*
X78114Y266813D01*
X78174Y266891D01*
X78242Y266963D01*
X78271Y267016D01*
X78308Y267064D01*
X78348Y267155D01*
X78396Y267241D01*
X78411Y267300D01*
X78435Y267356D01*
X78450Y267454D01*
X78475Y267549D01*
X78481Y267649D01*
X78485Y267670D01*
X78483Y267682D01*
X78485Y267710D01*
X78485Y292875D01*
X78473Y292973D01*
X78470Y293072D01*
X78453Y293131D01*
X78445Y293191D01*
X78409Y293283D01*
X78381Y293378D01*
X78351Y293430D01*
X78328Y293486D01*
X78270Y293566D01*
X78220Y293652D01*
X78154Y293727D01*
X78142Y293744D01*
X78132Y293751D01*
X78114Y293773D01*
X40789Y331098D01*
X40710Y331158D01*
X40638Y331226D01*
X40585Y331255D01*
X40537Y331292D01*
X40446Y331332D01*
X40360Y331380D01*
X40301Y331395D01*
X40245Y331419D01*
X40147Y331434D01*
X40052Y331459D01*
X39952Y331465D01*
X39931Y331469D01*
X39919Y331467D01*
X39891Y331469D01*
X35826Y331469D01*
X31625Y333209D01*
X28409Y336425D01*
X26669Y340626D01*
X26669Y345174D01*
X28409Y349375D01*
X31625Y352591D01*
X35826Y354331D01*
X40374Y354331D01*
X44575Y352591D01*
X47791Y349375D01*
X49531Y345174D01*
X49531Y340626D01*
X47871Y336620D01*
X47863Y336591D01*
X47850Y336565D01*
X47821Y336438D01*
X47787Y336313D01*
X47787Y336284D01*
X47780Y336255D01*
X47784Y336125D01*
X47782Y335995D01*
X47789Y335966D01*
X47790Y335937D01*
X47826Y335812D01*
X47856Y335686D01*
X47870Y335660D01*
X47878Y335631D01*
X47944Y335520D01*
X48005Y335405D01*
X48025Y335383D01*
X48040Y335357D01*
X48146Y335237D01*
X83862Y299521D01*
X86615Y296768D01*
X86615Y267710D01*
X86627Y267612D01*
X86630Y267513D01*
X86647Y267455D01*
X86655Y267395D01*
X86691Y267302D01*
X86719Y267207D01*
X86749Y267155D01*
X86772Y267099D01*
X86830Y267019D01*
X86880Y266933D01*
X86946Y266858D01*
X86958Y266842D01*
X86968Y266834D01*
X86986Y266813D01*
X87180Y266619D01*
X88012Y264611D01*
X88012Y262439D01*
X87180Y260431D01*
X85644Y258895D01*
X83636Y258063D01*
X83362Y258063D01*
X83264Y258051D01*
X83165Y258048D01*
X83107Y258031D01*
X83047Y258023D01*
X82955Y257987D01*
X82860Y257959D01*
X82808Y257929D01*
X82751Y257906D01*
X82671Y257848D01*
X82586Y257798D01*
X82510Y257732D01*
X82494Y257720D01*
X82486Y257710D01*
X82465Y257692D01*
X74286Y249513D01*
X74226Y249435D01*
X74158Y249363D01*
X74129Y249310D01*
X74092Y249262D01*
X74052Y249171D01*
X74004Y249084D01*
X73989Y249026D01*
X73965Y248970D01*
X73950Y248872D01*
X73925Y248776D01*
X73919Y248676D01*
X73915Y248656D01*
X73917Y248644D01*
X73915Y248616D01*
X73915Y119684D01*
X73927Y119586D01*
X73930Y119487D01*
X73947Y119429D01*
X73955Y119369D01*
X73991Y119277D01*
X74019Y119182D01*
X74049Y119130D01*
X74072Y119073D01*
X74130Y118993D01*
X74180Y118908D01*
X74246Y118832D01*
X74258Y118816D01*
X74268Y118808D01*
X74286Y118787D01*
X83431Y109643D01*
X83540Y109558D01*
X83647Y109469D01*
X83666Y109460D01*
X83682Y109448D01*
X83810Y109392D01*
X83935Y109333D01*
X83955Y109330D01*
X83974Y109322D01*
X84112Y109300D01*
X84248Y109274D01*
X84268Y109275D01*
X84288Y109272D01*
X84427Y109285D01*
X84565Y109293D01*
X84584Y109300D01*
X84604Y109302D01*
X84736Y109349D01*
X84867Y109391D01*
X84885Y109402D01*
X84904Y109409D01*
X85019Y109487D01*
X85136Y109562D01*
X85150Y109576D01*
X85167Y109588D01*
X85259Y109692D01*
X85354Y109793D01*
X85364Y109811D01*
X85377Y109826D01*
X85441Y109950D01*
X85508Y110072D01*
X85513Y110091D01*
X85522Y110109D01*
X85552Y110245D01*
X85587Y110380D01*
X85589Y110408D01*
X85592Y110420D01*
X85591Y110440D01*
X85597Y110540D01*
X85597Y150628D01*
X85585Y150726D01*
X85582Y150825D01*
X85565Y150883D01*
X85557Y150943D01*
X85521Y151036D01*
X85493Y151131D01*
X85463Y151183D01*
X85440Y151239D01*
X85382Y151319D01*
X85332Y151405D01*
X85266Y151480D01*
X85254Y151496D01*
X85244Y151504D01*
X85226Y151525D01*
X84270Y152481D01*
X83438Y154489D01*
X83438Y156661D01*
X84270Y158669D01*
X85226Y159625D01*
X85286Y159703D01*
X85354Y159775D01*
X85383Y159828D01*
X85420Y159876D01*
X85460Y159967D01*
X85508Y160053D01*
X85523Y160112D01*
X85547Y160168D01*
X85562Y160266D01*
X85587Y160361D01*
X85593Y160461D01*
X85597Y160482D01*
X85595Y160494D01*
X85597Y160522D01*
X85597Y201938D01*
X96512Y212853D01*
X114115Y212853D01*
X114214Y212865D01*
X114313Y212868D01*
X114371Y212885D01*
X114431Y212893D01*
X114523Y212929D01*
X114618Y212957D01*
X114670Y212987D01*
X114727Y213010D01*
X114807Y213068D01*
X114892Y213118D01*
X114967Y213184D01*
X114984Y213196D01*
X114992Y213206D01*
X115013Y213225D01*
X115969Y214180D01*
X117976Y215012D01*
X120149Y215012D01*
X122156Y214180D01*
X123693Y212644D01*
X124524Y210636D01*
X124524Y208464D01*
X123693Y206456D01*
X122156Y204920D01*
X120149Y204088D01*
X117976Y204088D01*
X115969Y204920D01*
X115013Y205875D01*
X114935Y205936D01*
X114863Y206004D01*
X114809Y206033D01*
X114762Y206070D01*
X114671Y206110D01*
X114584Y206158D01*
X114525Y206173D01*
X114470Y206197D01*
X114372Y206212D01*
X114276Y206237D01*
X114176Y206243D01*
X114156Y206247D01*
X114143Y206245D01*
X114115Y206247D01*
X99774Y206247D01*
X99676Y206235D01*
X99577Y206232D01*
X99519Y206215D01*
X99459Y206207D01*
X99366Y206171D01*
X99271Y206143D01*
X99219Y206113D01*
X99163Y206090D01*
X99083Y206032D01*
X98997Y205982D01*
X98922Y205916D01*
X98905Y205904D01*
X98898Y205894D01*
X98877Y205876D01*
X92574Y199573D01*
X92514Y199495D01*
X92446Y199423D01*
X92417Y199370D01*
X92380Y199322D01*
X92340Y199231D01*
X92292Y199145D01*
X92277Y199086D01*
X92253Y199030D01*
X92238Y198932D01*
X92213Y198837D01*
X92207Y198737D01*
X92203Y198716D01*
X92205Y198704D01*
X92203Y198676D01*
X92203Y182104D01*
X92209Y182055D01*
X92207Y182005D01*
X92229Y181898D01*
X92243Y181788D01*
X92261Y181742D01*
X92271Y181694D01*
X92319Y181595D01*
X92360Y181493D01*
X92389Y181453D01*
X92411Y181408D01*
X92482Y181324D01*
X92546Y181235D01*
X92585Y181204D01*
X92617Y181166D01*
X92707Y181103D01*
X92791Y181033D01*
X92836Y181011D01*
X92877Y180983D01*
X92980Y180944D01*
X93079Y180897D01*
X93128Y180888D01*
X93174Y180870D01*
X93284Y180858D01*
X93391Y180837D01*
X93441Y180840D01*
X93490Y180835D01*
X93599Y180850D01*
X93709Y180857D01*
X93756Y180872D01*
X93805Y180879D01*
X93958Y180931D01*
X95751Y181674D01*
X97924Y181674D01*
X99931Y180843D01*
X101468Y179306D01*
X102299Y177299D01*
X102299Y175006D01*
X102314Y174888D01*
X102322Y174769D01*
X102334Y174731D01*
X102339Y174690D01*
X102383Y174580D01*
X102420Y174467D01*
X102441Y174432D01*
X102456Y174395D01*
X102526Y174299D01*
X102590Y174198D01*
X102619Y174170D01*
X102643Y174137D01*
X102735Y174061D01*
X102821Y173980D01*
X102857Y173960D01*
X102888Y173935D01*
X102996Y173884D01*
X103100Y173826D01*
X103139Y173816D01*
X103176Y173799D01*
X103292Y173777D01*
X103408Y173747D01*
X103468Y173743D01*
X103488Y173739D01*
X103508Y173741D01*
X103568Y173737D01*
X105861Y173737D01*
X107869Y172905D01*
X109405Y171369D01*
X110237Y169361D01*
X110237Y167189D01*
X109405Y165181D01*
X108449Y164225D01*
X108389Y164147D01*
X108321Y164075D01*
X108292Y164022D01*
X108255Y163974D01*
X108215Y163883D01*
X108167Y163797D01*
X108152Y163738D01*
X108128Y163682D01*
X108113Y163584D01*
X108088Y163489D01*
X108082Y163389D01*
X108078Y163368D01*
X108080Y163356D01*
X108078Y163328D01*
X108078Y85313D01*
X92487Y69722D01*
X84322Y69722D01*
X84224Y69710D01*
X84125Y69707D01*
X84067Y69690D01*
X84007Y69682D01*
X83914Y69646D01*
X83819Y69618D01*
X83767Y69588D01*
X83711Y69565D01*
X83631Y69507D01*
X83545Y69457D01*
X83470Y69391D01*
X83454Y69379D01*
X83446Y69369D01*
X83425Y69351D01*
X82469Y68395D01*
X80461Y67563D01*
X78289Y67563D01*
X76281Y68395D01*
X74716Y69960D01*
X74622Y70033D01*
X74533Y70111D01*
X74497Y70130D01*
X74465Y70155D01*
X74356Y70202D01*
X74250Y70256D01*
X74210Y70265D01*
X74173Y70281D01*
X74055Y70300D01*
X73939Y70326D01*
X73899Y70324D01*
X73859Y70331D01*
X73740Y70320D01*
X73622Y70316D01*
X73583Y70305D01*
X73542Y70301D01*
X73430Y70261D01*
X73316Y70228D01*
X73281Y70207D01*
X73243Y70193D01*
X73145Y70127D01*
X73042Y70066D01*
X72997Y70026D01*
X72980Y70015D01*
X72967Y70000D01*
X72921Y69960D01*
X71356Y68395D01*
X69349Y67563D01*
X67176Y67563D01*
G37*
%LPD*%
%LPC*%
G36*
X111504Y331255D02*
X111504Y331255D01*
X109717Y331836D01*
X108043Y332689D01*
X106522Y333794D01*
X105194Y335122D01*
X104089Y336643D01*
X103236Y338317D01*
X102646Y340134D01*
X102620Y340220D01*
X102590Y340346D01*
X102576Y340373D01*
X102568Y340402D01*
X102502Y340513D01*
X102442Y340627D01*
X102421Y340650D01*
X102406Y340676D01*
X102315Y340767D01*
X102228Y340863D01*
X102203Y340879D01*
X102181Y340901D01*
X102070Y340966D01*
X101962Y341037D01*
X101933Y341047D01*
X101908Y341063D01*
X101784Y341099D01*
X101661Y341141D01*
X101631Y341143D01*
X101602Y341151D01*
X101473Y341156D01*
X101344Y341166D01*
X101314Y341161D01*
X101284Y341162D01*
X101158Y341134D01*
X101031Y341111D01*
X101003Y341099D01*
X100974Y341092D01*
X100859Y341034D01*
X100741Y340981D01*
X100717Y340962D01*
X100690Y340948D01*
X100593Y340863D01*
X100492Y340782D01*
X100474Y340758D01*
X100452Y340738D01*
X100379Y340631D01*
X100301Y340528D01*
X100282Y340489D01*
X100273Y340475D01*
X100265Y340455D01*
X100230Y340384D01*
X98591Y336425D01*
X95375Y333209D01*
X91174Y331469D01*
X86626Y331469D01*
X82425Y333209D01*
X79209Y336425D01*
X77469Y340626D01*
X77469Y345174D01*
X79209Y349375D01*
X82425Y352591D01*
X86626Y354331D01*
X91174Y354331D01*
X95375Y352591D01*
X98591Y349375D01*
X100230Y345416D01*
X100294Y345304D01*
X100353Y345189D01*
X100373Y345166D01*
X100388Y345140D01*
X100478Y345047D01*
X100563Y344950D01*
X100588Y344933D01*
X100609Y344912D01*
X100719Y344844D01*
X100826Y344771D01*
X100854Y344761D01*
X100880Y344745D01*
X101004Y344707D01*
X101125Y344664D01*
X101155Y344661D01*
X101184Y344652D01*
X101313Y344646D01*
X101442Y344633D01*
X101472Y344638D01*
X101502Y344637D01*
X101628Y344663D01*
X101756Y344683D01*
X101784Y344695D01*
X101813Y344701D01*
X101929Y344758D01*
X102048Y344809D01*
X102072Y344827D01*
X102099Y344841D01*
X102197Y344925D01*
X102299Y345004D01*
X102318Y345027D01*
X102341Y345047D01*
X102415Y345153D01*
X102495Y345255D01*
X102507Y345282D01*
X102524Y345307D01*
X102570Y345428D01*
X102621Y345547D01*
X102631Y345589D01*
X102637Y345604D01*
X102639Y345626D01*
X102654Y345691D01*
X103236Y347483D01*
X104089Y349157D01*
X105194Y350678D01*
X106522Y352006D01*
X108043Y353111D01*
X109717Y353964D01*
X111504Y354545D01*
X111761Y354585D01*
X111761Y344170D01*
X111776Y344052D01*
X111783Y343933D01*
X111796Y343895D01*
X111801Y343855D01*
X111844Y343744D01*
X111881Y343631D01*
X111903Y343597D01*
X111918Y343559D01*
X111988Y343463D01*
X112051Y343362D01*
X112081Y343334D01*
X112104Y343302D01*
X112196Y343226D01*
X112283Y343144D01*
X112318Y343125D01*
X112349Y343099D01*
X112457Y343048D01*
X112561Y342991D01*
X112601Y342980D01*
X112637Y342963D01*
X112754Y342941D01*
X112869Y342911D01*
X112930Y342907D01*
X112950Y342903D01*
X112970Y342905D01*
X113030Y342901D01*
X114301Y342901D01*
X114301Y342899D01*
X113030Y342899D01*
X112912Y342884D01*
X112793Y342877D01*
X112755Y342864D01*
X112714Y342859D01*
X112604Y342815D01*
X112491Y342779D01*
X112456Y342757D01*
X112419Y342742D01*
X112323Y342672D01*
X112222Y342609D01*
X112194Y342579D01*
X112161Y342555D01*
X112086Y342464D01*
X112004Y342377D01*
X111984Y342342D01*
X111959Y342310D01*
X111908Y342203D01*
X111850Y342098D01*
X111840Y342059D01*
X111823Y342023D01*
X111801Y341906D01*
X111771Y341791D01*
X111767Y341730D01*
X111763Y341710D01*
X111765Y341690D01*
X111761Y341630D01*
X111761Y331215D01*
X111504Y331255D01*
G37*
%LPD*%
%LPC*%
G36*
X11614Y162813D02*
X11614Y162813D01*
X9606Y163645D01*
X8070Y165181D01*
X7238Y167189D01*
X7238Y169361D01*
X8070Y171369D01*
X9606Y172905D01*
X11614Y173737D01*
X12965Y173737D01*
X13063Y173749D01*
X13162Y173752D01*
X13221Y173769D01*
X13281Y173777D01*
X13373Y173813D01*
X13468Y173841D01*
X13520Y173871D01*
X13576Y173894D01*
X13656Y173952D01*
X13742Y174002D01*
X13817Y174068D01*
X13834Y174080D01*
X13842Y174090D01*
X13863Y174108D01*
X29663Y189909D01*
X29724Y189987D01*
X29792Y190059D01*
X29821Y190112D01*
X29858Y190160D01*
X29897Y190251D01*
X29945Y190338D01*
X29960Y190396D01*
X29984Y190452D01*
X30000Y190550D01*
X30025Y190646D01*
X30031Y190746D01*
X30034Y190766D01*
X30033Y190778D01*
X30035Y190806D01*
X30035Y204603D01*
X30022Y204701D01*
X30019Y204800D01*
X30003Y204858D01*
X29995Y204918D01*
X29959Y205010D01*
X29931Y205106D01*
X29900Y205158D01*
X29878Y205214D01*
X29820Y205294D01*
X29769Y205380D01*
X29703Y205455D01*
X29691Y205472D01*
X29682Y205479D01*
X29663Y205500D01*
X28707Y206456D01*
X27876Y208464D01*
X27876Y210636D01*
X28707Y212644D01*
X30244Y214180D01*
X32251Y215012D01*
X34424Y215012D01*
X36431Y214180D01*
X37968Y212644D01*
X38799Y210636D01*
X38799Y208464D01*
X37968Y206456D01*
X37012Y205500D01*
X36951Y205422D01*
X36883Y205350D01*
X36854Y205297D01*
X36817Y205249D01*
X36778Y205158D01*
X36730Y205072D01*
X36715Y205013D01*
X36691Y204957D01*
X36675Y204859D01*
X36650Y204764D01*
X36644Y204664D01*
X36641Y204643D01*
X36642Y204631D01*
X36640Y204603D01*
X36640Y187544D01*
X18533Y169438D01*
X18473Y169359D01*
X18405Y169287D01*
X18376Y169234D01*
X18339Y169186D01*
X18299Y169095D01*
X18251Y169009D01*
X18236Y168950D01*
X18212Y168895D01*
X18197Y168797D01*
X18172Y168701D01*
X18166Y168601D01*
X18162Y168580D01*
X18164Y168568D01*
X18162Y168540D01*
X18162Y167189D01*
X17330Y165181D01*
X15794Y163645D01*
X13786Y162813D01*
X11614Y162813D01*
G37*
%LPD*%
%LPC*%
G36*
X61226Y331469D02*
X61226Y331469D01*
X57025Y333209D01*
X53809Y336425D01*
X52069Y340626D01*
X52069Y345174D01*
X53809Y349375D01*
X57025Y352591D01*
X61226Y354331D01*
X65774Y354331D01*
X69975Y352591D01*
X73191Y349375D01*
X74931Y345174D01*
X74931Y340626D01*
X73191Y336425D01*
X69975Y333209D01*
X65774Y331469D01*
X61226Y331469D01*
G37*
%LPD*%
%LPC*%
G36*
X16776Y287019D02*
X16776Y287019D01*
X12575Y288759D01*
X9359Y291975D01*
X7619Y296176D01*
X7619Y300724D01*
X9359Y304925D01*
X12575Y308141D01*
X16776Y309881D01*
X21324Y309881D01*
X25525Y308141D01*
X28741Y304925D01*
X30481Y300724D01*
X30481Y296176D01*
X28741Y291975D01*
X25525Y288759D01*
X21324Y287019D01*
X16776Y287019D01*
G37*
%LPD*%
%LPC*%
G36*
X131076Y287019D02*
X131076Y287019D01*
X126875Y288759D01*
X123659Y291975D01*
X121919Y296176D01*
X121919Y300724D01*
X123659Y304925D01*
X126875Y308141D01*
X131076Y309881D01*
X135624Y309881D01*
X139825Y308141D01*
X143041Y304925D01*
X144781Y300724D01*
X144781Y296176D01*
X143041Y291975D01*
X139825Y288759D01*
X135624Y287019D01*
X131076Y287019D01*
G37*
%LPD*%
%LPC*%
G36*
X131076Y261619D02*
X131076Y261619D01*
X126875Y263359D01*
X123659Y266575D01*
X121919Y270776D01*
X121919Y275324D01*
X123659Y279525D01*
X126875Y282741D01*
X131076Y284481D01*
X135624Y284481D01*
X139825Y282741D01*
X143041Y279525D01*
X144781Y275324D01*
X144781Y270776D01*
X143041Y266575D01*
X139825Y263359D01*
X135624Y261619D01*
X131076Y261619D01*
G37*
%LPD*%
%LPC*%
G36*
X16776Y261619D02*
X16776Y261619D01*
X12575Y263359D01*
X9359Y266575D01*
X7619Y270776D01*
X7619Y275324D01*
X9359Y279525D01*
X12575Y282741D01*
X16776Y284481D01*
X21324Y284481D01*
X25525Y282741D01*
X28741Y279525D01*
X30481Y275324D01*
X30481Y270776D01*
X28741Y266575D01*
X25525Y263359D01*
X21324Y261619D01*
X16776Y261619D01*
G37*
%LPD*%
%LPC*%
G36*
X131076Y236219D02*
X131076Y236219D01*
X126875Y237959D01*
X123659Y241175D01*
X121919Y245376D01*
X121919Y249924D01*
X123659Y254125D01*
X126875Y257341D01*
X131076Y259081D01*
X135624Y259081D01*
X139825Y257341D01*
X143041Y254125D01*
X144781Y249924D01*
X144781Y245376D01*
X143041Y241175D01*
X139825Y237959D01*
X135624Y236219D01*
X131076Y236219D01*
G37*
%LPD*%
%LPC*%
G36*
X16776Y236219D02*
X16776Y236219D01*
X12575Y237959D01*
X9359Y241175D01*
X7619Y245376D01*
X7619Y249924D01*
X9359Y254125D01*
X12575Y257341D01*
X16776Y259081D01*
X21324Y259081D01*
X25525Y257341D01*
X28741Y254125D01*
X30481Y249924D01*
X30481Y245376D01*
X28741Y241175D01*
X25525Y237959D01*
X21324Y236219D01*
X16776Y236219D01*
G37*
%LPD*%
%LPC*%
G36*
X132264Y170751D02*
X132264Y170751D01*
X130256Y171582D01*
X129300Y172538D01*
X129222Y172599D01*
X129150Y172667D01*
X129097Y172696D01*
X129049Y172733D01*
X128958Y172772D01*
X128872Y172820D01*
X128813Y172835D01*
X128757Y172859D01*
X128659Y172875D01*
X128564Y172900D01*
X128464Y172906D01*
X128443Y172909D01*
X128431Y172908D01*
X128403Y172910D01*
X120869Y172910D01*
X102763Y191017D01*
X102684Y191077D01*
X102612Y191145D01*
X102559Y191174D01*
X102511Y191211D01*
X102420Y191251D01*
X102334Y191299D01*
X102275Y191314D01*
X102220Y191338D01*
X102122Y191353D01*
X102026Y191378D01*
X101926Y191384D01*
X101906Y191388D01*
X101893Y191386D01*
X101865Y191388D01*
X100514Y191388D01*
X98506Y192220D01*
X96970Y193756D01*
X96138Y195764D01*
X96138Y197936D01*
X96970Y199944D01*
X98506Y201480D01*
X100514Y202312D01*
X102686Y202312D01*
X104694Y201480D01*
X106230Y199944D01*
X107062Y197936D01*
X107062Y196585D01*
X107074Y196487D01*
X107077Y196388D01*
X107094Y196329D01*
X107102Y196269D01*
X107138Y196177D01*
X107166Y196082D01*
X107196Y196030D01*
X107219Y195974D01*
X107277Y195893D01*
X107327Y195808D01*
X107393Y195733D01*
X107405Y195716D01*
X107415Y195708D01*
X107433Y195687D01*
X123234Y179887D01*
X123312Y179826D01*
X123384Y179758D01*
X123437Y179729D01*
X123485Y179692D01*
X123576Y179653D01*
X123663Y179605D01*
X123721Y179590D01*
X123777Y179566D01*
X123875Y179550D01*
X123971Y179525D01*
X124071Y179519D01*
X124091Y179516D01*
X124103Y179517D01*
X124131Y179515D01*
X128403Y179515D01*
X128501Y179528D01*
X128600Y179531D01*
X128658Y179547D01*
X128718Y179555D01*
X128811Y179592D01*
X128906Y179619D01*
X128958Y179650D01*
X129014Y179672D01*
X129094Y179730D01*
X129180Y179781D01*
X129255Y179847D01*
X129271Y179859D01*
X129279Y179868D01*
X129300Y179887D01*
X130256Y180843D01*
X132264Y181674D01*
X134436Y181674D01*
X136444Y180843D01*
X137980Y179306D01*
X138812Y177299D01*
X138812Y175126D01*
X137980Y173119D01*
X136444Y171582D01*
X134436Y170751D01*
X132264Y170751D01*
G37*
%LPD*%
%LPC*%
G36*
X114489Y20589D02*
X114489Y20589D01*
X114489Y50511D01*
X123063Y50511D01*
X123063Y35030D01*
X122790Y33303D01*
X122255Y31656D01*
X122224Y31497D01*
X122195Y31345D01*
X122195Y31344D01*
X122205Y31182D01*
X122215Y31027D01*
X122215Y31026D01*
X122215Y31025D01*
X122255Y30872D01*
X122790Y29225D01*
X123063Y27497D01*
X123063Y20589D01*
X114489Y20589D01*
G37*
%LPD*%
%LPC*%
G36*
X42989Y20589D02*
X42989Y20589D01*
X42989Y50511D01*
X51563Y50511D01*
X51563Y35030D01*
X51290Y33303D01*
X50755Y31656D01*
X50724Y31497D01*
X50695Y31345D01*
X50695Y31344D01*
X50705Y31182D01*
X50715Y31027D01*
X50715Y31026D01*
X50715Y31025D01*
X50755Y30872D01*
X51290Y29225D01*
X51563Y27497D01*
X51563Y20589D01*
X42989Y20589D01*
G37*
%LPD*%
%LPC*%
G36*
X100837Y20589D02*
X100837Y20589D01*
X100837Y27497D01*
X101110Y29225D01*
X101645Y30872D01*
X101675Y31026D01*
X101705Y31183D01*
X101705Y31184D01*
X101695Y31341D01*
X101685Y31500D01*
X101685Y31501D01*
X101685Y31503D01*
X101645Y31656D01*
X101110Y33303D01*
X100837Y35030D01*
X100837Y50511D01*
X109411Y50511D01*
X109411Y20589D01*
X100837Y20589D01*
G37*
%LPD*%
%LPC*%
G36*
X29337Y20589D02*
X29337Y20589D01*
X29337Y27497D01*
X29610Y29225D01*
X30145Y30872D01*
X30175Y31026D01*
X30205Y31183D01*
X30205Y31184D01*
X30195Y31341D01*
X30185Y31500D01*
X30185Y31501D01*
X30185Y31503D01*
X30145Y31656D01*
X29610Y33303D01*
X29337Y35030D01*
X29337Y50511D01*
X37911Y50511D01*
X37911Y20589D01*
X29337Y20589D01*
G37*
%LPD*%
%LPC*%
G36*
X116839Y345439D02*
X116839Y345439D01*
X116839Y354585D01*
X117096Y354545D01*
X118883Y353964D01*
X120557Y353111D01*
X122078Y352006D01*
X123406Y350678D01*
X124511Y349157D01*
X125364Y347483D01*
X125945Y345696D01*
X125985Y345439D01*
X116839Y345439D01*
G37*
%LPD*%
%LPC*%
G36*
X116839Y340361D02*
X116839Y340361D01*
X125985Y340361D01*
X125945Y340104D01*
X125364Y338317D01*
X124511Y336643D01*
X123406Y335122D01*
X122078Y333794D01*
X120557Y332689D01*
X118883Y331836D01*
X117096Y331255D01*
X116839Y331215D01*
X116839Y340361D01*
G37*
%LPD*%
%LPC*%
G36*
X114489Y55589D02*
X114489Y55589D01*
X114489Y63900D01*
X114552Y63890D01*
X116216Y63349D01*
X117775Y62555D01*
X119190Y61527D01*
X120427Y60290D01*
X121455Y58875D01*
X122249Y57316D01*
X122790Y55652D01*
X122800Y55589D01*
X114489Y55589D01*
G37*
%LPD*%
%LPC*%
G36*
X42989Y55589D02*
X42989Y55589D01*
X42989Y63900D01*
X43052Y63890D01*
X44716Y63349D01*
X46275Y62555D01*
X47690Y61527D01*
X48927Y60290D01*
X49955Y58875D01*
X50749Y57316D01*
X51290Y55652D01*
X51300Y55589D01*
X42989Y55589D01*
G37*
%LPD*%
%LPC*%
G36*
X29600Y55589D02*
X29600Y55589D01*
X29610Y55652D01*
X30151Y57316D01*
X30945Y58875D01*
X31973Y60290D01*
X33210Y61527D01*
X34625Y62555D01*
X36184Y63349D01*
X37848Y63890D01*
X37911Y63900D01*
X37911Y55589D01*
X29600Y55589D01*
G37*
%LPD*%
%LPC*%
G36*
X101100Y55589D02*
X101100Y55589D01*
X101110Y55652D01*
X101651Y57316D01*
X102445Y58875D01*
X103473Y60290D01*
X104710Y61527D01*
X106125Y62555D01*
X107684Y63349D01*
X109348Y63890D01*
X109411Y63900D01*
X109411Y55589D01*
X101100Y55589D01*
G37*
%LPD*%
%LPC*%
G36*
X111949Y53049D02*
X111949Y53049D01*
X111949Y53051D01*
X111951Y53051D01*
X111951Y53049D01*
X111949Y53049D01*
G37*
%LPD*%
%LPC*%
G36*
X40449Y53049D02*
X40449Y53049D01*
X40449Y53051D01*
X40451Y53051D01*
X40451Y53049D01*
X40449Y53049D01*
G37*
%LPD*%
D10*
X40450Y9478D02*
X40450Y26623D01*
X111950Y26623D02*
X111950Y9478D01*
X40450Y35905D02*
X40450Y53050D01*
X111950Y53050D02*
X111950Y35905D01*
D11*
X38100Y342900D03*
X63500Y342900D03*
X88900Y342900D03*
X114300Y342900D03*
X19050Y247650D03*
X19050Y273050D03*
X19050Y298450D03*
X133350Y247650D03*
X133350Y273050D03*
X133350Y298450D03*
D12*
X127000Y46038D03*
X25400Y46038D03*
X95250Y266700D03*
X22225Y211138D03*
X38100Y122238D03*
X52388Y96838D03*
X25400Y134938D03*
X131763Y136525D03*
X52388Y173038D03*
X41275Y314325D03*
X88900Y98425D03*
X33338Y209550D03*
X12700Y168275D03*
X119063Y209550D03*
D13*
X88900Y200570D02*
X88900Y155575D01*
X88900Y200570D02*
X97880Y209550D01*
X119063Y209550D01*
D12*
X142875Y139700D03*
X123825Y120650D03*
D13*
X33338Y188913D02*
X12700Y168275D01*
X33338Y188913D02*
X33338Y209550D01*
X130175Y120650D02*
X142875Y133350D01*
X130175Y120650D02*
X123825Y120650D01*
X142875Y133350D02*
X142875Y139700D01*
D12*
X88900Y155575D03*
D13*
X88900Y98425D01*
D14*
X69850Y250825D02*
X82550Y263525D01*
D12*
X82550Y263525D03*
D14*
X82550Y295085D02*
X38100Y339535D01*
X82550Y295085D02*
X82550Y263525D01*
X69850Y250825D02*
X69850Y117475D01*
X38100Y339535D02*
X38100Y342900D01*
X69850Y117475D02*
X88900Y98425D01*
D12*
X79375Y73025D03*
X104775Y168275D03*
D13*
X104775Y86681D01*
X91119Y73025D01*
X79375Y73025D01*
D12*
X68263Y73025D03*
D13*
X77788Y82550D02*
X91114Y82550D01*
X96838Y88274D01*
X96838Y176213D01*
D12*
X96838Y176213D03*
D13*
X77788Y82550D02*
X68263Y73025D01*
D12*
X133350Y176213D03*
D13*
X122238Y176213D01*
X101600Y196850D01*
D12*
X101600Y196850D03*
M02*
