G04 EAGLE Gerber RS-274X export*
G75*
%MOMM*%
%FSLAX34Y34*%
%LPD*%
%INSoldermask Top*%
%IPPOS*%
%AMOC8*
5,1,8,0,0,1.08239X$1,22.5*%
G01*
%ADD10R,1.250800X0.600800*%
%ADD11C,0.346763*%
%ADD12R,1.150800X1.050800*%
%ADD13R,1.050800X1.150800*%
%ADD14R,1.550800X0.300800*%
%ADD15R,0.300800X1.550800*%
%ADD16R,0.939800X0.863600*%
%ADD17R,1.550800X1.050800*%
%ADD18R,0.450800X1.900800*%
%ADD19R,6.050800X2.050800*%
%ADD20C,1.765300*%
%ADD21C,1.930400*%
%ADD22R,0.711200X2.082800*%
%ADD23C,1.050800*%


D10*
X64789Y107920D03*
X64789Y98420D03*
X64789Y88920D03*
X90791Y88920D03*
X90791Y107920D03*
D11*
X136180Y26500D02*
X143220Y26500D01*
X143220Y19460D01*
X136180Y19460D01*
X136180Y26500D01*
X136180Y22755D02*
X143220Y22755D01*
X143220Y26050D02*
X136180Y26050D01*
X136180Y44040D02*
X143220Y44040D01*
X143220Y37000D01*
X136180Y37000D01*
X136180Y44040D01*
X136180Y40295D02*
X143220Y40295D01*
X143220Y43590D02*
X136180Y43590D01*
D12*
X45010Y107950D03*
X28010Y107950D03*
D13*
X108740Y106920D03*
X108740Y89920D03*
X139700Y106920D03*
X139700Y89920D03*
D12*
X118500Y222250D03*
X135500Y222250D03*
D13*
X123820Y106920D03*
X123820Y89920D03*
D14*
X33200Y198950D03*
X33200Y193950D03*
X33200Y188950D03*
X33200Y183950D03*
X33200Y178950D03*
X33200Y173950D03*
X33200Y168950D03*
X33200Y163950D03*
X33200Y158950D03*
X33200Y153950D03*
X33200Y148950D03*
X33200Y143950D03*
D15*
X48700Y128450D03*
X53700Y128450D03*
X58700Y128450D03*
X63700Y128450D03*
X68700Y128450D03*
X73700Y128450D03*
X78700Y128450D03*
X83700Y128450D03*
X88700Y128450D03*
X93700Y128450D03*
X98700Y128450D03*
X103700Y128450D03*
D14*
X119200Y143950D03*
X119200Y148950D03*
X119200Y153950D03*
X119200Y158950D03*
X119200Y163950D03*
X119200Y168950D03*
X119200Y173950D03*
X119200Y178950D03*
X119200Y183950D03*
X119200Y188950D03*
X119200Y193950D03*
X119200Y198950D03*
D15*
X103700Y214450D03*
X98700Y214450D03*
X93700Y214450D03*
X88700Y214450D03*
X83700Y214450D03*
X78700Y214450D03*
X73700Y214450D03*
X68700Y214450D03*
X63700Y214450D03*
X58700Y214450D03*
X53700Y214450D03*
X48700Y214450D03*
D16*
X142880Y176210D03*
X142880Y163510D03*
X142880Y188910D03*
X142880Y150810D03*
D11*
X16220Y26500D02*
X9180Y26500D01*
X16220Y26500D02*
X16220Y19460D01*
X9180Y19460D01*
X9180Y26500D01*
X9180Y22755D02*
X16220Y22755D01*
X16220Y26050D02*
X9180Y26050D01*
X9180Y44040D02*
X16220Y44040D01*
X16220Y37000D01*
X9180Y37000D01*
X9180Y44040D01*
X9180Y40295D02*
X16220Y40295D01*
X16220Y43590D02*
X9180Y43590D01*
D13*
X12700Y106920D03*
X12700Y89920D03*
X42860Y283600D03*
X42860Y300600D03*
X111120Y265680D03*
X111120Y248680D03*
D12*
X33900Y222250D03*
X16900Y222250D03*
D13*
X12700Y156140D03*
X12700Y139140D03*
X12700Y185180D03*
X12700Y202180D03*
D17*
X30160Y93550D03*
X30160Y71550D03*
D18*
X76200Y50300D03*
X69700Y50300D03*
X89200Y50300D03*
X82700Y50300D03*
X63200Y50300D03*
D19*
X76200Y18050D03*
D20*
X40450Y9478D02*
X40450Y26623D01*
X111950Y26623D02*
X111950Y9478D01*
X40450Y35905D02*
X40450Y53050D01*
X111950Y53050D02*
X111950Y35905D01*
D21*
X38100Y342900D03*
X63500Y342900D03*
X88900Y342900D03*
X114300Y342900D03*
X19050Y247650D03*
X19050Y273050D03*
X19050Y298450D03*
X133350Y247650D03*
X133350Y273050D03*
X133350Y298450D03*
D22*
X57150Y242316D03*
X69850Y242316D03*
X82550Y242316D03*
X95250Y242316D03*
X95250Y303784D03*
X82550Y303784D03*
X69850Y303784D03*
X57150Y303784D03*
D23*
X138113Y342900D03*
X128588Y68263D03*
M02*
