G04 EAGLE Gerber RS-274X export*
G75*
%MOMM*%
%FSLAX34Y34*%
%LPD*%
%INSilkscreen Top*%
%IPPOS*%
%AMOC8*
5,1,8,0,0,1.08239X$1,22.5*%
G01*
%ADD10C,0.127000*%
%ADD11C,0.406400*%
%ADD12C,0.203200*%
%ADD13C,0.558800*%
%ADD14R,0.762000X0.457200*%
%ADD15C,0.152400*%
%ADD16C,0.400000*%
%ADD17C,0.050800*%

G36*
X149295Y143837D02*
X149295Y143837D01*
X149361Y143839D01*
X149404Y143857D01*
X149451Y143865D01*
X149508Y143899D01*
X149568Y143924D01*
X149603Y143955D01*
X149644Y143980D01*
X149686Y144031D01*
X149734Y144075D01*
X149756Y144117D01*
X149785Y144154D01*
X149806Y144216D01*
X149837Y144275D01*
X149845Y144329D01*
X149857Y144366D01*
X149856Y144406D01*
X149864Y144460D01*
X149864Y157160D01*
X149853Y157225D01*
X149851Y157291D01*
X149833Y157334D01*
X149825Y157381D01*
X149791Y157438D01*
X149766Y157498D01*
X149735Y157533D01*
X149710Y157574D01*
X149659Y157616D01*
X149615Y157664D01*
X149573Y157686D01*
X149536Y157715D01*
X149474Y157736D01*
X149415Y157767D01*
X149361Y157775D01*
X149324Y157787D01*
X149284Y157786D01*
X149230Y157794D01*
X136530Y157794D01*
X136465Y157783D01*
X136399Y157781D01*
X136356Y157763D01*
X136309Y157755D01*
X136252Y157721D01*
X136192Y157696D01*
X136157Y157665D01*
X136116Y157640D01*
X136075Y157589D01*
X136026Y157545D01*
X136004Y157503D01*
X135975Y157466D01*
X135954Y157404D01*
X135923Y157345D01*
X135915Y157291D01*
X135903Y157254D01*
X135903Y157240D01*
X135903Y157239D01*
X135904Y157212D01*
X135896Y157160D01*
X135896Y144460D01*
X135907Y144395D01*
X135909Y144329D01*
X135927Y144286D01*
X135935Y144239D01*
X135969Y144182D01*
X135994Y144122D01*
X136025Y144087D01*
X136050Y144046D01*
X136101Y144005D01*
X136145Y143956D01*
X136187Y143934D01*
X136224Y143905D01*
X136286Y143884D01*
X136345Y143853D01*
X136399Y143845D01*
X136436Y143833D01*
X136476Y143834D01*
X136530Y143826D01*
X149230Y143826D01*
X149295Y143837D01*
G37*
D10*
X19050Y20638D02*
X19052Y20717D01*
X19058Y20796D01*
X19068Y20875D01*
X19081Y20953D01*
X19099Y21030D01*
X19121Y21106D01*
X19146Y21181D01*
X19175Y21255D01*
X19207Y21327D01*
X19243Y21397D01*
X19283Y21466D01*
X19326Y21533D01*
X19372Y21597D01*
X19422Y21659D01*
X19474Y21718D01*
X19529Y21775D01*
X19587Y21829D01*
X19648Y21880D01*
X19711Y21927D01*
X19776Y21972D01*
X19844Y22013D01*
X19914Y22051D01*
X19985Y22085D01*
X20058Y22116D01*
X20132Y22143D01*
X20208Y22167D01*
X20285Y22186D01*
X20362Y22202D01*
X20441Y22214D01*
X20519Y22222D01*
X20598Y22226D01*
X20678Y22226D01*
X20757Y22222D01*
X20835Y22214D01*
X20914Y22202D01*
X20991Y22186D01*
X21068Y22167D01*
X21144Y22143D01*
X21218Y22116D01*
X21291Y22085D01*
X21362Y22051D01*
X21432Y22013D01*
X21500Y21972D01*
X21565Y21927D01*
X21628Y21880D01*
X21689Y21829D01*
X21747Y21775D01*
X21802Y21718D01*
X21854Y21659D01*
X21904Y21597D01*
X21950Y21533D01*
X21993Y21466D01*
X22033Y21397D01*
X22069Y21327D01*
X22101Y21255D01*
X22130Y21181D01*
X22155Y21106D01*
X22177Y21030D01*
X22195Y20953D01*
X22208Y20875D01*
X22218Y20796D01*
X22224Y20717D01*
X22226Y20638D01*
X22224Y20559D01*
X22218Y20480D01*
X22208Y20401D01*
X22195Y20323D01*
X22177Y20246D01*
X22155Y20170D01*
X22130Y20095D01*
X22101Y20021D01*
X22069Y19949D01*
X22033Y19879D01*
X21993Y19810D01*
X21950Y19743D01*
X21904Y19679D01*
X21854Y19617D01*
X21802Y19558D01*
X21747Y19501D01*
X21689Y19447D01*
X21628Y19396D01*
X21565Y19349D01*
X21500Y19304D01*
X21432Y19263D01*
X21362Y19225D01*
X21291Y19191D01*
X21218Y19160D01*
X21144Y19133D01*
X21068Y19109D01*
X20991Y19090D01*
X20914Y19074D01*
X20835Y19062D01*
X20757Y19054D01*
X20678Y19050D01*
X20598Y19050D01*
X20519Y19054D01*
X20441Y19062D01*
X20362Y19074D01*
X20285Y19090D01*
X20208Y19109D01*
X20132Y19133D01*
X20058Y19160D01*
X19985Y19191D01*
X19914Y19225D01*
X19844Y19263D01*
X19776Y19304D01*
X19711Y19349D01*
X19648Y19396D01*
X19587Y19447D01*
X19529Y19501D01*
X19474Y19558D01*
X19422Y19617D01*
X19372Y19679D01*
X19326Y19743D01*
X19283Y19810D01*
X19243Y19879D01*
X19207Y19949D01*
X19175Y20021D01*
X19146Y20095D01*
X19121Y20170D01*
X19099Y20246D01*
X19081Y20323D01*
X19068Y20401D01*
X19058Y20480D01*
X19052Y20559D01*
X19050Y20638D01*
X130175Y20638D02*
X130177Y20717D01*
X130183Y20796D01*
X130193Y20875D01*
X130206Y20953D01*
X130224Y21030D01*
X130246Y21106D01*
X130271Y21181D01*
X130300Y21255D01*
X130332Y21327D01*
X130368Y21397D01*
X130408Y21466D01*
X130451Y21533D01*
X130497Y21597D01*
X130547Y21659D01*
X130599Y21718D01*
X130654Y21775D01*
X130712Y21829D01*
X130773Y21880D01*
X130836Y21927D01*
X130901Y21972D01*
X130969Y22013D01*
X131039Y22051D01*
X131110Y22085D01*
X131183Y22116D01*
X131257Y22143D01*
X131333Y22167D01*
X131410Y22186D01*
X131487Y22202D01*
X131566Y22214D01*
X131644Y22222D01*
X131723Y22226D01*
X131803Y22226D01*
X131882Y22222D01*
X131960Y22214D01*
X132039Y22202D01*
X132116Y22186D01*
X132193Y22167D01*
X132269Y22143D01*
X132343Y22116D01*
X132416Y22085D01*
X132487Y22051D01*
X132557Y22013D01*
X132625Y21972D01*
X132690Y21927D01*
X132753Y21880D01*
X132814Y21829D01*
X132872Y21775D01*
X132927Y21718D01*
X132979Y21659D01*
X133029Y21597D01*
X133075Y21533D01*
X133118Y21466D01*
X133158Y21397D01*
X133194Y21327D01*
X133226Y21255D01*
X133255Y21181D01*
X133280Y21106D01*
X133302Y21030D01*
X133320Y20953D01*
X133333Y20875D01*
X133343Y20796D01*
X133349Y20717D01*
X133351Y20638D01*
X133349Y20559D01*
X133343Y20480D01*
X133333Y20401D01*
X133320Y20323D01*
X133302Y20246D01*
X133280Y20170D01*
X133255Y20095D01*
X133226Y20021D01*
X133194Y19949D01*
X133158Y19879D01*
X133118Y19810D01*
X133075Y19743D01*
X133029Y19679D01*
X132979Y19617D01*
X132927Y19558D01*
X132872Y19501D01*
X132814Y19447D01*
X132753Y19396D01*
X132690Y19349D01*
X132625Y19304D01*
X132557Y19263D01*
X132487Y19225D01*
X132416Y19191D01*
X132343Y19160D01*
X132269Y19133D01*
X132193Y19109D01*
X132116Y19090D01*
X132039Y19074D01*
X131960Y19062D01*
X131882Y19054D01*
X131803Y19050D01*
X131723Y19050D01*
X131644Y19054D01*
X131566Y19062D01*
X131487Y19074D01*
X131410Y19090D01*
X131333Y19109D01*
X131257Y19133D01*
X131183Y19160D01*
X131110Y19191D01*
X131039Y19225D01*
X130969Y19263D01*
X130901Y19304D01*
X130836Y19349D01*
X130773Y19396D01*
X130712Y19447D01*
X130654Y19501D01*
X130599Y19558D01*
X130547Y19617D01*
X130497Y19679D01*
X130451Y19743D01*
X130408Y19810D01*
X130368Y19879D01*
X130332Y19949D01*
X130300Y20021D01*
X130271Y20095D01*
X130246Y20170D01*
X130224Y20246D01*
X130206Y20323D01*
X130193Y20401D01*
X130183Y20480D01*
X130177Y20559D01*
X130175Y20638D01*
X68958Y317939D02*
X67814Y319083D01*
X68958Y317939D02*
X71246Y317939D01*
X72390Y319083D01*
X72390Y323659D01*
X71246Y324803D01*
X68958Y324803D01*
X67814Y323659D01*
X64906Y324803D02*
X64906Y320227D01*
X62618Y317939D01*
X60330Y320227D01*
X60330Y324803D01*
X60330Y321371D02*
X64906Y321371D01*
X57422Y324803D02*
X57422Y317939D01*
X52846Y324803D01*
X52846Y317939D01*
X49938Y317939D02*
X49938Y324803D01*
X49938Y321371D02*
X45362Y321371D01*
X45362Y317939D02*
X45362Y324803D01*
X104327Y319083D02*
X105471Y317939D01*
X107759Y317939D01*
X108903Y319083D01*
X108903Y323659D01*
X107759Y324803D01*
X105471Y324803D01*
X104327Y323659D01*
X101418Y324803D02*
X101418Y320227D01*
X99130Y317939D01*
X96842Y320227D01*
X96842Y324803D01*
X96842Y321371D02*
X101418Y321371D01*
X93934Y324803D02*
X93934Y317939D01*
X89358Y324803D01*
X89358Y317939D01*
X86450Y317939D02*
X86450Y324803D01*
X81874Y324803D01*
X132902Y319083D02*
X134046Y317939D01*
X136334Y317939D01*
X137478Y319083D01*
X137478Y323659D01*
X136334Y324803D01*
X134046Y324803D01*
X132902Y323659D01*
X132902Y321371D01*
X135190Y321371D01*
X129993Y324803D02*
X129993Y317939D01*
X125417Y324803D01*
X125417Y317939D01*
X122509Y317939D02*
X122509Y324803D01*
X119077Y324803D01*
X117933Y323659D01*
X117933Y319083D01*
X119077Y317939D01*
X122509Y317939D01*
X115253Y277560D02*
X108389Y277560D01*
X108389Y275273D02*
X108389Y279848D01*
X108389Y282757D02*
X108389Y287333D01*
X108389Y282757D02*
X115253Y282757D01*
X115253Y287333D01*
X111821Y285045D02*
X111821Y282757D01*
X115253Y290241D02*
X108389Y290241D01*
X108389Y293673D01*
X109533Y294817D01*
X111821Y294817D01*
X112965Y293673D01*
X112965Y290241D01*
X112965Y292529D02*
X115253Y294817D01*
X115253Y297725D02*
X108389Y297725D01*
X110677Y300013D01*
X108389Y302301D01*
X115253Y302301D01*
X44011Y272415D02*
X37148Y272415D01*
X44011Y272415D02*
X44011Y268983D01*
X42867Y267839D01*
X41723Y267839D01*
X40579Y268983D01*
X39435Y267839D01*
X38291Y267839D01*
X37148Y268983D01*
X37148Y272415D01*
X40579Y272415D02*
X40579Y268983D01*
X44011Y263787D02*
X44011Y261499D01*
X44011Y263787D02*
X42867Y264931D01*
X38291Y264931D01*
X37148Y263787D01*
X37148Y261499D01*
X38291Y260355D01*
X42867Y260355D01*
X44011Y261499D01*
X44011Y256303D02*
X44011Y254015D01*
X44011Y256303D02*
X42867Y257447D01*
X38291Y257447D01*
X37148Y256303D01*
X37148Y254015D01*
X38291Y252871D01*
X42867Y252871D01*
X44011Y254015D01*
X44011Y247675D02*
X37148Y247675D01*
X44011Y249963D02*
X44011Y245387D01*
X5398Y59886D02*
X5398Y53023D01*
X5398Y59886D02*
X8829Y59886D01*
X9973Y58742D01*
X9973Y56454D01*
X8829Y55310D01*
X5398Y55310D01*
X12882Y54166D02*
X12882Y57598D01*
X12882Y54166D02*
X14026Y53023D01*
X15170Y54166D01*
X16314Y53023D01*
X17458Y54166D01*
X17458Y57598D01*
X20366Y57598D02*
X20366Y53023D01*
X20366Y55310D02*
X22654Y57598D01*
X23798Y57598D01*
X129223Y57598D02*
X129223Y53023D01*
X129223Y57598D02*
X131510Y59886D01*
X133798Y57598D01*
X133798Y53023D01*
X133798Y56454D02*
X129223Y56454D01*
X137851Y57598D02*
X141283Y57598D01*
X137851Y57598D02*
X136707Y56454D01*
X136707Y54166D01*
X137851Y53023D01*
X141283Y53023D01*
X145335Y54166D02*
X145335Y58742D01*
X145335Y54166D02*
X146479Y53023D01*
X146479Y57598D02*
X144191Y57598D01*
X34734Y317939D02*
X35878Y319083D01*
X34734Y317939D02*
X32446Y317939D01*
X31302Y319083D01*
X31302Y320227D01*
X32446Y321371D01*
X33590Y321371D01*
X32446Y321371D02*
X31302Y322515D01*
X31302Y323659D01*
X32446Y324803D01*
X34734Y324803D01*
X35878Y323659D01*
X28393Y320227D02*
X26105Y324803D01*
X23817Y320227D01*
X20909Y319083D02*
X19765Y317939D01*
X17477Y317939D01*
X16333Y319083D01*
X16333Y320227D01*
X17477Y321371D01*
X18621Y321371D01*
X17477Y321371D02*
X16333Y322515D01*
X16333Y323659D01*
X17477Y324803D01*
X19765Y324803D01*
X20909Y323659D01*
D11*
X31963Y205315D02*
X31965Y205378D01*
X31971Y205440D01*
X31981Y205502D01*
X31994Y205564D01*
X32012Y205624D01*
X32033Y205683D01*
X32058Y205741D01*
X32087Y205797D01*
X32119Y205851D01*
X32154Y205903D01*
X32192Y205952D01*
X32234Y206000D01*
X32278Y206044D01*
X32326Y206086D01*
X32375Y206124D01*
X32427Y206159D01*
X32481Y206191D01*
X32537Y206220D01*
X32595Y206245D01*
X32654Y206266D01*
X32714Y206284D01*
X32776Y206297D01*
X32838Y206307D01*
X32900Y206313D01*
X32963Y206315D01*
X33026Y206313D01*
X33088Y206307D01*
X33150Y206297D01*
X33212Y206284D01*
X33272Y206266D01*
X33331Y206245D01*
X33389Y206220D01*
X33445Y206191D01*
X33499Y206159D01*
X33551Y206124D01*
X33600Y206086D01*
X33648Y206044D01*
X33692Y206000D01*
X33734Y205952D01*
X33772Y205903D01*
X33807Y205851D01*
X33839Y205797D01*
X33868Y205741D01*
X33893Y205683D01*
X33914Y205624D01*
X33932Y205564D01*
X33945Y205502D01*
X33955Y205440D01*
X33961Y205378D01*
X33963Y205315D01*
X33961Y205252D01*
X33955Y205190D01*
X33945Y205128D01*
X33932Y205066D01*
X33914Y205006D01*
X33893Y204947D01*
X33868Y204889D01*
X33839Y204833D01*
X33807Y204779D01*
X33772Y204727D01*
X33734Y204678D01*
X33692Y204630D01*
X33648Y204586D01*
X33600Y204544D01*
X33551Y204506D01*
X33499Y204471D01*
X33445Y204439D01*
X33389Y204410D01*
X33331Y204385D01*
X33272Y204364D01*
X33212Y204346D01*
X33150Y204333D01*
X33088Y204323D01*
X33026Y204317D01*
X32963Y204315D01*
X32900Y204317D01*
X32838Y204323D01*
X32776Y204333D01*
X32714Y204346D01*
X32654Y204364D01*
X32595Y204385D01*
X32537Y204410D01*
X32481Y204439D01*
X32427Y204471D01*
X32375Y204506D01*
X32326Y204544D01*
X32278Y204586D01*
X32234Y204630D01*
X32192Y204678D01*
X32154Y204727D01*
X32119Y204779D01*
X32087Y204833D01*
X32058Y204889D01*
X32033Y204947D01*
X32012Y205006D01*
X31994Y205066D01*
X31981Y205128D01*
X31971Y205190D01*
X31965Y205252D01*
X31963Y205315D01*
X55775Y264053D02*
X55777Y264116D01*
X55783Y264178D01*
X55793Y264240D01*
X55806Y264302D01*
X55824Y264362D01*
X55845Y264421D01*
X55870Y264479D01*
X55899Y264535D01*
X55931Y264589D01*
X55966Y264641D01*
X56004Y264690D01*
X56046Y264738D01*
X56090Y264782D01*
X56138Y264824D01*
X56187Y264862D01*
X56239Y264897D01*
X56293Y264929D01*
X56349Y264958D01*
X56407Y264983D01*
X56466Y265004D01*
X56526Y265022D01*
X56588Y265035D01*
X56650Y265045D01*
X56712Y265051D01*
X56775Y265053D01*
X56838Y265051D01*
X56900Y265045D01*
X56962Y265035D01*
X57024Y265022D01*
X57084Y265004D01*
X57143Y264983D01*
X57201Y264958D01*
X57257Y264929D01*
X57311Y264897D01*
X57363Y264862D01*
X57412Y264824D01*
X57460Y264782D01*
X57504Y264738D01*
X57546Y264690D01*
X57584Y264641D01*
X57619Y264589D01*
X57651Y264535D01*
X57680Y264479D01*
X57705Y264421D01*
X57726Y264362D01*
X57744Y264302D01*
X57757Y264240D01*
X57767Y264178D01*
X57773Y264116D01*
X57775Y264053D01*
X57773Y263990D01*
X57767Y263928D01*
X57757Y263866D01*
X57744Y263804D01*
X57726Y263744D01*
X57705Y263685D01*
X57680Y263627D01*
X57651Y263571D01*
X57619Y263517D01*
X57584Y263465D01*
X57546Y263416D01*
X57504Y263368D01*
X57460Y263324D01*
X57412Y263282D01*
X57363Y263244D01*
X57311Y263209D01*
X57257Y263177D01*
X57201Y263148D01*
X57143Y263123D01*
X57084Y263102D01*
X57024Y263084D01*
X56962Y263071D01*
X56900Y263061D01*
X56838Y263055D01*
X56775Y263053D01*
X56712Y263055D01*
X56650Y263061D01*
X56588Y263071D01*
X56526Y263084D01*
X56466Y263102D01*
X56407Y263123D01*
X56349Y263148D01*
X56293Y263177D01*
X56239Y263209D01*
X56187Y263244D01*
X56138Y263282D01*
X56090Y263324D01*
X56046Y263368D01*
X56004Y263416D01*
X55966Y263465D01*
X55931Y263517D01*
X55899Y263571D01*
X55870Y263627D01*
X55845Y263685D01*
X55824Y263744D01*
X55806Y263804D01*
X55793Y263866D01*
X55783Y263928D01*
X55777Y263990D01*
X55775Y264053D01*
D12*
X73496Y84196D02*
X82084Y84196D01*
X82084Y112644D02*
X73496Y112644D01*
X85894Y101104D02*
X85894Y95736D01*
D10*
X134938Y15875D02*
X144463Y15875D01*
X132080Y21114D02*
X127250Y21114D01*
X132080Y21114D02*
X132080Y24334D01*
X127250Y26727D02*
X127250Y29947D01*
X127250Y26727D02*
X132080Y26727D01*
X132080Y29947D01*
X129665Y28337D02*
X129665Y26727D01*
X127250Y32340D02*
X132080Y32340D01*
X132080Y34755D01*
X131275Y35560D01*
X128055Y35560D01*
X127250Y34755D01*
X127250Y32340D01*
X128860Y37953D02*
X127250Y39563D01*
X132080Y39563D01*
X132080Y37953D02*
X132080Y41173D01*
D13*
X36510Y107645D02*
X36510Y108255D01*
D10*
X45751Y99763D02*
X46556Y98958D01*
X45751Y99763D02*
X44141Y99763D01*
X43336Y98958D01*
X43336Y95738D01*
X44141Y94933D01*
X45751Y94933D01*
X46556Y95738D01*
X48949Y99763D02*
X52169Y99763D01*
X48949Y99763D02*
X48949Y97348D01*
X50559Y98153D01*
X51364Y98153D01*
X52169Y97348D01*
X52169Y95738D01*
X51364Y94933D01*
X49754Y94933D01*
X48949Y95738D01*
X27926Y118727D02*
X29536Y120337D01*
X29536Y115507D01*
X27926Y115507D02*
X31146Y115507D01*
X33539Y116312D02*
X33539Y118727D01*
X33539Y116312D02*
X34344Y115507D01*
X36759Y115507D01*
X36759Y118727D01*
X39152Y120337D02*
X39152Y115507D01*
X39152Y120337D02*
X42372Y120337D01*
X40762Y117922D02*
X39152Y117922D01*
D13*
X108435Y98420D02*
X109045Y98420D01*
D10*
X106869Y81501D02*
X107674Y80696D01*
X106869Y81501D02*
X105259Y81501D01*
X104454Y80696D01*
X104454Y77476D01*
X105259Y76671D01*
X106869Y76671D01*
X107674Y77476D01*
X110067Y81501D02*
X113287Y81501D01*
X113287Y80696D01*
X110067Y77476D01*
X110067Y76671D01*
X109076Y115236D02*
X107466Y116846D01*
X112296Y116846D01*
X112296Y115236D02*
X112296Y118456D01*
X111491Y120849D02*
X109076Y120849D01*
X111491Y120849D02*
X112296Y121654D01*
X112296Y124069D01*
X109076Y124069D01*
X107466Y126462D02*
X112296Y126462D01*
X107466Y126462D02*
X107466Y129682D01*
X109881Y128072D02*
X109881Y126462D01*
D14*
X139700Y98420D03*
D10*
X134824Y81279D02*
X134824Y76449D01*
X134824Y81279D02*
X137239Y81279D01*
X138044Y80474D01*
X138044Y78864D01*
X137239Y78059D01*
X134824Y78059D01*
X136434Y78059D02*
X138044Y76449D01*
X140437Y79669D02*
X142047Y81279D01*
X142047Y76449D01*
X140437Y76449D02*
X143657Y76449D01*
X137643Y115236D02*
X136838Y116041D01*
X136838Y117651D01*
X137643Y118456D01*
X138448Y118456D01*
X139253Y117651D01*
X139253Y116846D01*
X139253Y117651D02*
X140058Y118456D01*
X140864Y118456D01*
X141669Y117651D01*
X141669Y116041D01*
X140864Y115236D01*
X140864Y120849D02*
X141669Y121654D01*
X141669Y123264D01*
X140864Y124069D01*
X137643Y124069D01*
X136838Y123264D01*
X136838Y121654D01*
X137643Y120849D01*
X138448Y120849D01*
X139253Y121654D01*
X139253Y124069D01*
X140864Y126462D02*
X137643Y126462D01*
X136838Y127267D01*
X136838Y128877D01*
X137643Y129682D01*
X140864Y129682D01*
X141669Y128877D01*
X141669Y127267D01*
X140864Y126462D01*
X137643Y129682D01*
D13*
X127000Y221945D02*
X127000Y222555D01*
D10*
X130889Y213840D02*
X131694Y213035D01*
X130889Y213840D02*
X129279Y213840D01*
X128474Y213035D01*
X128474Y209815D01*
X129279Y209010D01*
X130889Y209010D01*
X131694Y209815D01*
X134087Y209010D02*
X137307Y209010D01*
X134087Y209010D02*
X137307Y212230D01*
X137307Y213035D01*
X136502Y213840D01*
X134892Y213840D01*
X134087Y213035D01*
X110490Y229723D02*
X110490Y232943D01*
X111295Y233748D01*
X112905Y233748D01*
X113710Y232943D01*
X113710Y229723D01*
X112905Y228918D01*
X111295Y228918D01*
X110490Y229723D01*
X113710Y232943D01*
X116103Y229723D02*
X116103Y228918D01*
X116103Y229723D02*
X116908Y229723D01*
X116908Y228918D01*
X116103Y228918D01*
X118910Y232138D02*
X120520Y233748D01*
X120520Y228918D01*
X118910Y228918D02*
X122130Y228918D01*
X124523Y229723D02*
X124523Y232138D01*
X124523Y229723D02*
X125328Y228918D01*
X127743Y228918D01*
X127743Y232138D01*
X130136Y233748D02*
X130136Y228918D01*
X130136Y233748D02*
X133356Y233748D01*
X131746Y231333D02*
X130136Y231333D01*
D13*
X124125Y98420D02*
X123515Y98420D01*
D10*
X122743Y81501D02*
X123548Y80696D01*
X122743Y81501D02*
X121133Y81501D01*
X120328Y80696D01*
X120328Y77476D01*
X121133Y76671D01*
X122743Y76671D01*
X123548Y77476D01*
X125941Y79891D02*
X127551Y81501D01*
X127551Y76671D01*
X125941Y76671D02*
X129161Y76671D01*
X124285Y115248D02*
X121065Y115248D01*
X120260Y116053D01*
X120260Y117663D01*
X121065Y118468D01*
X124285Y118468D01*
X125090Y117663D01*
X125090Y116053D01*
X124285Y115248D01*
X121065Y118468D01*
X124285Y120861D02*
X125090Y120861D01*
X124285Y120861D02*
X124285Y121666D01*
X125090Y121666D01*
X125090Y120861D01*
X121870Y123667D02*
X120260Y125277D01*
X125090Y125277D01*
X125090Y123667D02*
X125090Y126887D01*
X124285Y129280D02*
X121870Y129280D01*
X124285Y129280D02*
X125090Y130085D01*
X125090Y132500D01*
X121870Y132500D01*
X120260Y134893D02*
X125090Y134893D01*
X120260Y134893D02*
X120260Y138113D01*
X122675Y136503D02*
X122675Y134893D01*
D15*
X107200Y137450D02*
X45200Y137450D01*
X110200Y140450D02*
X110200Y202450D01*
X107200Y205450D02*
X45200Y205450D01*
X42200Y202450D01*
X42200Y140450D01*
X45200Y137450D01*
X107200Y137450D02*
X110200Y140450D01*
X110200Y202450D02*
X107200Y205450D01*
D16*
X50200Y194950D02*
X50202Y195039D01*
X50208Y195128D01*
X50218Y195217D01*
X50232Y195305D01*
X50249Y195392D01*
X50271Y195478D01*
X50297Y195564D01*
X50326Y195648D01*
X50359Y195731D01*
X50395Y195812D01*
X50436Y195892D01*
X50479Y195969D01*
X50526Y196045D01*
X50577Y196118D01*
X50630Y196189D01*
X50687Y196258D01*
X50747Y196324D01*
X50810Y196388D01*
X50875Y196448D01*
X50943Y196506D01*
X51014Y196560D01*
X51087Y196611D01*
X51162Y196659D01*
X51239Y196704D01*
X51318Y196745D01*
X51399Y196782D01*
X51481Y196816D01*
X51565Y196847D01*
X51650Y196873D01*
X51736Y196896D01*
X51823Y196914D01*
X51911Y196929D01*
X52000Y196940D01*
X52089Y196947D01*
X52178Y196950D01*
X52267Y196949D01*
X52356Y196944D01*
X52444Y196935D01*
X52533Y196922D01*
X52620Y196905D01*
X52707Y196885D01*
X52793Y196860D01*
X52877Y196832D01*
X52960Y196800D01*
X53042Y196764D01*
X53122Y196725D01*
X53200Y196682D01*
X53276Y196636D01*
X53350Y196586D01*
X53422Y196533D01*
X53491Y196477D01*
X53558Y196418D01*
X53622Y196356D01*
X53683Y196292D01*
X53742Y196224D01*
X53797Y196154D01*
X53849Y196082D01*
X53898Y196007D01*
X53943Y195931D01*
X53985Y195852D01*
X54023Y195772D01*
X54058Y195690D01*
X54089Y195606D01*
X54117Y195521D01*
X54140Y195435D01*
X54160Y195348D01*
X54176Y195261D01*
X54188Y195172D01*
X54196Y195084D01*
X54200Y194995D01*
X54200Y194905D01*
X54196Y194816D01*
X54188Y194728D01*
X54176Y194639D01*
X54160Y194552D01*
X54140Y194465D01*
X54117Y194379D01*
X54089Y194294D01*
X54058Y194210D01*
X54023Y194128D01*
X53985Y194048D01*
X53943Y193969D01*
X53898Y193893D01*
X53849Y193818D01*
X53797Y193746D01*
X53742Y193676D01*
X53683Y193608D01*
X53622Y193544D01*
X53558Y193482D01*
X53491Y193423D01*
X53422Y193367D01*
X53350Y193314D01*
X53276Y193264D01*
X53200Y193218D01*
X53122Y193175D01*
X53042Y193136D01*
X52960Y193100D01*
X52877Y193068D01*
X52793Y193040D01*
X52707Y193015D01*
X52620Y192995D01*
X52533Y192978D01*
X52444Y192965D01*
X52356Y192956D01*
X52267Y192951D01*
X52178Y192950D01*
X52089Y192953D01*
X52000Y192960D01*
X51911Y192971D01*
X51823Y192986D01*
X51736Y193004D01*
X51650Y193027D01*
X51565Y193053D01*
X51481Y193084D01*
X51399Y193118D01*
X51318Y193155D01*
X51239Y193196D01*
X51162Y193241D01*
X51087Y193289D01*
X51014Y193340D01*
X50943Y193394D01*
X50875Y193452D01*
X50810Y193512D01*
X50747Y193576D01*
X50687Y193642D01*
X50630Y193711D01*
X50577Y193782D01*
X50526Y193855D01*
X50479Y193931D01*
X50436Y194008D01*
X50395Y194088D01*
X50359Y194169D01*
X50326Y194252D01*
X50297Y194336D01*
X50271Y194422D01*
X50249Y194508D01*
X50232Y194595D01*
X50218Y194683D01*
X50208Y194772D01*
X50202Y194861D01*
X50200Y194950D01*
D10*
X136530Y144460D02*
X149230Y144460D01*
X136530Y144460D02*
X136530Y195260D01*
X149230Y195260D01*
X149230Y144460D01*
X142880Y138110D02*
X142880Y125410D01*
X139705Y134935D02*
X142880Y138110D01*
X146055Y134935D01*
X17463Y15875D02*
X7938Y15875D01*
X20887Y21908D02*
X25718Y21908D01*
X25718Y25128D01*
X20887Y27521D02*
X20887Y30741D01*
X20887Y27521D02*
X25718Y27521D01*
X25718Y30741D01*
X23302Y29131D02*
X23302Y27521D01*
X20887Y33134D02*
X25718Y33134D01*
X25718Y35549D01*
X24913Y36354D01*
X21692Y36354D01*
X20887Y35549D01*
X20887Y33134D01*
X25718Y38747D02*
X25718Y41967D01*
X25718Y38747D02*
X22497Y41967D01*
X21692Y41967D01*
X20887Y41162D01*
X20887Y39552D01*
X21692Y38747D01*
D14*
X12700Y98420D03*
D10*
X9208Y81343D02*
X9208Y76513D01*
X9208Y81343D02*
X11623Y81343D01*
X12428Y80538D01*
X12428Y78928D01*
X11623Y78123D01*
X9208Y78123D01*
X10818Y78123D02*
X12428Y76513D01*
X14821Y76513D02*
X18041Y76513D01*
X14821Y76513D02*
X18041Y79733D01*
X18041Y80538D01*
X17236Y81343D01*
X15626Y81343D01*
X14821Y80538D01*
X9838Y114601D02*
X9838Y117821D01*
X9838Y114601D02*
X12253Y114601D01*
X11448Y116211D01*
X11448Y117016D01*
X12253Y117821D01*
X13864Y117821D01*
X14669Y117016D01*
X14669Y115406D01*
X13864Y114601D01*
X10643Y121824D02*
X9838Y123434D01*
X10643Y121824D02*
X12253Y120214D01*
X13864Y120214D01*
X14669Y121019D01*
X14669Y122629D01*
X13864Y123434D01*
X13058Y123434D01*
X12253Y122629D01*
X12253Y120214D01*
X13864Y125827D02*
X10643Y125827D01*
X9838Y126632D01*
X9838Y128242D01*
X10643Y129047D01*
X13864Y129047D01*
X14669Y128242D01*
X14669Y126632D01*
X13864Y125827D01*
X10643Y129047D01*
D13*
X42555Y292100D02*
X43165Y292100D01*
D10*
X32167Y285478D02*
X31362Y284673D01*
X31362Y283063D01*
X32167Y282258D01*
X35388Y282258D01*
X36193Y283063D01*
X36193Y284673D01*
X35388Y285478D01*
X32167Y287871D02*
X31362Y288676D01*
X31362Y290286D01*
X32167Y291091D01*
X32972Y291091D01*
X33777Y290286D01*
X33777Y289481D01*
X33777Y290286D02*
X34582Y291091D01*
X35388Y291091D01*
X36193Y290286D01*
X36193Y288676D01*
X35388Y287871D01*
X49630Y284163D02*
X52850Y284163D01*
X49630Y284163D02*
X48825Y284968D01*
X48825Y286578D01*
X49630Y287383D01*
X52850Y287383D01*
X53655Y286578D01*
X53655Y284968D01*
X52850Y284163D01*
X49630Y287383D01*
X52850Y289776D02*
X53655Y289776D01*
X52850Y289776D02*
X52850Y290581D01*
X53655Y290581D01*
X53655Y289776D01*
X50435Y292582D02*
X48825Y294192D01*
X53655Y294192D01*
X53655Y292582D02*
X53655Y295802D01*
X52850Y298195D02*
X50435Y298195D01*
X52850Y298195D02*
X53655Y299000D01*
X53655Y301415D01*
X50435Y301415D01*
X48825Y303808D02*
X53655Y303808D01*
X48825Y303808D02*
X48825Y307028D01*
X51240Y305418D02*
X51240Y303808D01*
D14*
X111120Y257180D03*
D10*
X118944Y258387D02*
X118944Y263217D01*
X121359Y263217D01*
X122164Y262412D01*
X122164Y260802D01*
X121359Y259997D01*
X118944Y259997D01*
X120554Y259997D02*
X122164Y258387D01*
X124557Y262412D02*
X125362Y263217D01*
X126972Y263217D01*
X127777Y262412D01*
X127777Y261607D01*
X126972Y260802D01*
X126167Y260802D01*
X126972Y260802D02*
X127777Y259997D01*
X127777Y259192D01*
X126972Y258387D01*
X125362Y258387D01*
X124557Y259192D01*
X106380Y241690D02*
X104770Y240080D01*
X106380Y241690D02*
X106380Y236860D01*
X104770Y236860D02*
X107990Y236860D01*
X110383Y236860D02*
X113603Y236860D01*
X110383Y236860D02*
X113603Y240080D01*
X113603Y240885D01*
X112798Y241690D01*
X111188Y241690D01*
X110383Y240885D01*
X115996Y240885D02*
X115996Y237665D01*
X115996Y240885D02*
X116801Y241690D01*
X118411Y241690D01*
X119216Y240885D01*
X119216Y237665D01*
X118411Y236860D01*
X116801Y236860D01*
X115996Y237665D01*
X119216Y240885D01*
D13*
X25400Y222555D02*
X25400Y221945D01*
D10*
X19764Y213999D02*
X20569Y213194D01*
X19764Y213999D02*
X18154Y213999D01*
X17349Y213194D01*
X17349Y209974D01*
X18154Y209169D01*
X19764Y209169D01*
X20569Y209974D01*
X25377Y209169D02*
X25377Y213999D01*
X22962Y211584D01*
X26182Y211584D01*
X22225Y229723D02*
X22225Y232943D01*
X23030Y233748D01*
X24640Y233748D01*
X25445Y232943D01*
X25445Y229723D01*
X24640Y228918D01*
X23030Y228918D01*
X22225Y229723D01*
X25445Y232943D01*
X27838Y229723D02*
X27838Y228918D01*
X27838Y229723D02*
X28643Y229723D01*
X28643Y228918D01*
X27838Y228918D01*
X30645Y232138D02*
X32255Y233748D01*
X32255Y228918D01*
X30645Y228918D02*
X33865Y228918D01*
X36258Y229723D02*
X36258Y232138D01*
X36258Y229723D02*
X37063Y228918D01*
X39478Y228918D01*
X39478Y232138D01*
X41871Y233748D02*
X41871Y228918D01*
X41871Y233748D02*
X45091Y233748D01*
X43481Y231333D02*
X41871Y231333D01*
D13*
X13005Y147640D02*
X12395Y147640D01*
D10*
X19363Y148354D02*
X20168Y149159D01*
X19363Y148354D02*
X19363Y146744D01*
X20168Y145939D01*
X23389Y145939D01*
X24194Y146744D01*
X24194Y148354D01*
X23389Y149159D01*
X20168Y153162D02*
X19363Y154772D01*
X20168Y153162D02*
X21778Y151552D01*
X23389Y151552D01*
X24194Y152357D01*
X24194Y153967D01*
X23389Y154772D01*
X22583Y154772D01*
X21778Y153967D01*
X21778Y151552D01*
X5926Y133176D02*
X2706Y133176D01*
X1901Y133981D01*
X1901Y135591D01*
X2706Y136396D01*
X5926Y136396D01*
X6731Y135591D01*
X6731Y133981D01*
X5926Y133176D01*
X2706Y136396D01*
X5926Y138789D02*
X6731Y138789D01*
X5926Y138789D02*
X5926Y139594D01*
X6731Y139594D01*
X6731Y138789D01*
X3511Y141596D02*
X1901Y143206D01*
X6731Y143206D01*
X6731Y141596D02*
X6731Y144816D01*
X5926Y147209D02*
X3511Y147209D01*
X5926Y147209D02*
X6731Y148014D01*
X6731Y150429D01*
X3511Y150429D01*
X1901Y152822D02*
X6731Y152822D01*
X1901Y152822D02*
X1901Y156042D01*
X4316Y154432D02*
X4316Y152822D01*
D14*
X12700Y193680D03*
D10*
X9208Y176603D02*
X9208Y171773D01*
X9208Y176603D02*
X11623Y176603D01*
X12428Y175798D01*
X12428Y174188D01*
X11623Y173383D01*
X9208Y173383D01*
X10818Y173383D02*
X12428Y171773D01*
X17236Y171773D02*
X17236Y176603D01*
X14821Y174188D01*
X18041Y174188D01*
X20275Y184155D02*
X18665Y185765D01*
X23495Y185765D01*
X23495Y184155D02*
X23495Y187375D01*
X22690Y189768D02*
X19470Y189768D01*
X18665Y190573D01*
X18665Y192183D01*
X19470Y192988D01*
X22690Y192988D01*
X23495Y192183D01*
X23495Y190573D01*
X22690Y189768D01*
X19470Y192988D01*
X18665Y195381D02*
X23495Y195381D01*
X21885Y195381D02*
X23495Y197796D01*
X21885Y195381D02*
X20275Y197796D01*
D17*
X37660Y87550D02*
X37660Y77550D01*
X22660Y77550D02*
X22660Y87550D01*
D10*
X40316Y76721D02*
X45146Y76721D01*
X40316Y76721D02*
X40316Y79941D01*
X42731Y78331D02*
X42731Y76721D01*
X41926Y82334D02*
X40316Y83944D01*
X45146Y83944D01*
X45146Y82334D02*
X45146Y85554D01*
D12*
X107950Y355600D02*
X120650Y355600D01*
X127000Y349250D01*
X127000Y336550D02*
X120650Y330200D01*
X82550Y355600D02*
X76200Y349250D01*
X82550Y355600D02*
X95250Y355600D01*
X101600Y349250D01*
X101600Y336550D02*
X95250Y330200D01*
X82550Y330200D01*
X76200Y336550D01*
X101600Y349250D02*
X107950Y355600D01*
X101600Y336550D02*
X107950Y330200D01*
X120650Y330200D01*
X44450Y355600D02*
X31750Y355600D01*
X44450Y355600D02*
X50800Y349250D01*
X50800Y336550D02*
X44450Y330200D01*
X50800Y349250D02*
X57150Y355600D01*
X69850Y355600D01*
X76200Y349250D01*
X76200Y336550D02*
X69850Y330200D01*
X57150Y330200D01*
X50800Y336550D01*
X25400Y336550D02*
X25400Y349250D01*
X31750Y355600D01*
X25400Y336550D02*
X31750Y330200D01*
X44450Y330200D01*
X127000Y336550D02*
X127000Y349250D01*
X12700Y285750D02*
X6350Y292100D01*
X6350Y304800D01*
X12700Y311150D01*
X25400Y311150D02*
X31750Y304800D01*
X31750Y292100D01*
X25400Y285750D01*
X6350Y254000D02*
X6350Y241300D01*
X6350Y254000D02*
X12700Y260350D01*
X25400Y260350D02*
X31750Y254000D01*
X12700Y260350D02*
X6350Y266700D01*
X6350Y279400D01*
X12700Y285750D01*
X25400Y285750D02*
X31750Y279400D01*
X31750Y266700D01*
X25400Y260350D01*
X25400Y234950D02*
X12700Y234950D01*
X6350Y241300D01*
X25400Y234950D02*
X31750Y241300D01*
X31750Y254000D01*
X25400Y311150D02*
X12700Y311150D01*
X120650Y292100D02*
X127000Y285750D01*
X120650Y292100D02*
X120650Y304800D01*
X127000Y311150D01*
X139700Y311150D02*
X146050Y304800D01*
X146050Y292100D01*
X139700Y285750D01*
X120650Y254000D02*
X120650Y241300D01*
X120650Y254000D02*
X127000Y260350D01*
X139700Y260350D02*
X146050Y254000D01*
X127000Y260350D02*
X120650Y266700D01*
X120650Y279400D01*
X127000Y285750D01*
X139700Y285750D02*
X146050Y279400D01*
X146050Y266700D01*
X139700Y260350D01*
X139700Y234950D02*
X127000Y234950D01*
X120650Y241300D01*
X139700Y234950D02*
X146050Y241300D01*
X146050Y254000D01*
X139700Y311150D02*
X127000Y311150D01*
D15*
X97790Y292608D02*
X54610Y292608D01*
X97790Y253492D02*
X97912Y253494D01*
X98034Y253500D01*
X98156Y253510D01*
X98277Y253523D01*
X98398Y253541D01*
X98518Y253562D01*
X98638Y253588D01*
X98756Y253617D01*
X98874Y253649D01*
X98991Y253686D01*
X99106Y253726D01*
X99220Y253770D01*
X99332Y253818D01*
X99443Y253869D01*
X99552Y253924D01*
X99660Y253982D01*
X99765Y254044D01*
X99868Y254109D01*
X99970Y254177D01*
X100069Y254249D01*
X100165Y254323D01*
X100260Y254401D01*
X100351Y254482D01*
X100441Y254565D01*
X100527Y254651D01*
X100610Y254741D01*
X100691Y254832D01*
X100769Y254927D01*
X100843Y255023D01*
X100915Y255122D01*
X100983Y255224D01*
X101048Y255327D01*
X101110Y255432D01*
X101168Y255540D01*
X101223Y255649D01*
X101274Y255760D01*
X101322Y255872D01*
X101366Y255986D01*
X101406Y256101D01*
X101443Y256218D01*
X101475Y256336D01*
X101504Y256454D01*
X101530Y256574D01*
X101551Y256694D01*
X101569Y256815D01*
X101582Y256936D01*
X101592Y257058D01*
X101598Y257180D01*
X101600Y257302D01*
X54610Y292608D02*
X54488Y292606D01*
X54366Y292600D01*
X54244Y292590D01*
X54123Y292577D01*
X54002Y292559D01*
X53882Y292538D01*
X53762Y292512D01*
X53644Y292483D01*
X53526Y292451D01*
X53409Y292414D01*
X53294Y292374D01*
X53180Y292330D01*
X53068Y292282D01*
X52957Y292231D01*
X52848Y292176D01*
X52740Y292118D01*
X52635Y292056D01*
X52532Y291991D01*
X52430Y291923D01*
X52331Y291851D01*
X52235Y291777D01*
X52140Y291699D01*
X52049Y291618D01*
X51959Y291535D01*
X51873Y291449D01*
X51790Y291359D01*
X51709Y291268D01*
X51631Y291173D01*
X51557Y291077D01*
X51485Y290978D01*
X51417Y290876D01*
X51352Y290773D01*
X51290Y290668D01*
X51232Y290560D01*
X51177Y290451D01*
X51126Y290340D01*
X51078Y290228D01*
X51034Y290114D01*
X50994Y289999D01*
X50957Y289882D01*
X50925Y289764D01*
X50896Y289646D01*
X50870Y289526D01*
X50849Y289406D01*
X50831Y289285D01*
X50818Y289164D01*
X50808Y289042D01*
X50802Y288920D01*
X50800Y288798D01*
X97790Y292608D02*
X97912Y292606D01*
X98034Y292600D01*
X98156Y292590D01*
X98277Y292577D01*
X98398Y292559D01*
X98518Y292538D01*
X98638Y292512D01*
X98756Y292483D01*
X98874Y292451D01*
X98991Y292414D01*
X99106Y292374D01*
X99220Y292330D01*
X99332Y292282D01*
X99443Y292231D01*
X99552Y292176D01*
X99660Y292118D01*
X99765Y292056D01*
X99868Y291991D01*
X99970Y291923D01*
X100069Y291851D01*
X100165Y291777D01*
X100260Y291699D01*
X100351Y291618D01*
X100441Y291535D01*
X100527Y291449D01*
X100610Y291359D01*
X100691Y291268D01*
X100769Y291173D01*
X100843Y291077D01*
X100915Y290978D01*
X100983Y290876D01*
X101048Y290773D01*
X101110Y290668D01*
X101168Y290560D01*
X101223Y290451D01*
X101274Y290340D01*
X101322Y290228D01*
X101366Y290114D01*
X101406Y289999D01*
X101443Y289882D01*
X101475Y289764D01*
X101504Y289646D01*
X101530Y289526D01*
X101551Y289406D01*
X101569Y289285D01*
X101582Y289164D01*
X101592Y289042D01*
X101598Y288920D01*
X101600Y288798D01*
X54610Y253492D02*
X54488Y253494D01*
X54366Y253500D01*
X54244Y253510D01*
X54123Y253523D01*
X54002Y253541D01*
X53882Y253562D01*
X53762Y253588D01*
X53644Y253617D01*
X53526Y253649D01*
X53409Y253686D01*
X53294Y253726D01*
X53180Y253770D01*
X53068Y253818D01*
X52957Y253869D01*
X52848Y253924D01*
X52740Y253982D01*
X52635Y254044D01*
X52532Y254109D01*
X52430Y254177D01*
X52331Y254249D01*
X52235Y254323D01*
X52140Y254401D01*
X52049Y254482D01*
X51959Y254565D01*
X51873Y254651D01*
X51790Y254741D01*
X51709Y254832D01*
X51631Y254927D01*
X51557Y255023D01*
X51485Y255122D01*
X51417Y255224D01*
X51352Y255327D01*
X51290Y255432D01*
X51232Y255540D01*
X51177Y255649D01*
X51126Y255760D01*
X51078Y255872D01*
X51034Y255986D01*
X50994Y256101D01*
X50957Y256218D01*
X50925Y256336D01*
X50896Y256454D01*
X50870Y256574D01*
X50849Y256694D01*
X50831Y256815D01*
X50818Y256936D01*
X50808Y257058D01*
X50802Y257180D01*
X50800Y257302D01*
X54610Y253492D02*
X97790Y253492D01*
X101600Y257302D02*
X101600Y288798D01*
X50800Y288798D02*
X50800Y278130D01*
X50800Y267970D01*
X50800Y257302D01*
X50800Y267970D02*
X50941Y267972D01*
X51082Y267978D01*
X51223Y267988D01*
X51364Y268001D01*
X51504Y268019D01*
X51643Y268041D01*
X51782Y268066D01*
X51921Y268095D01*
X52058Y268128D01*
X52194Y268165D01*
X52329Y268206D01*
X52464Y268250D01*
X52596Y268298D01*
X52728Y268350D01*
X52858Y268405D01*
X52986Y268464D01*
X53113Y268527D01*
X53237Y268593D01*
X53360Y268662D01*
X53481Y268735D01*
X53600Y268811D01*
X53717Y268891D01*
X53831Y268974D01*
X53944Y269059D01*
X54053Y269148D01*
X54161Y269240D01*
X54265Y269335D01*
X54367Y269433D01*
X54466Y269534D01*
X54563Y269637D01*
X54656Y269743D01*
X54746Y269851D01*
X54834Y269962D01*
X54918Y270075D01*
X54999Y270191D01*
X55077Y270309D01*
X55152Y270429D01*
X55223Y270551D01*
X55291Y270675D01*
X55355Y270801D01*
X55416Y270928D01*
X55473Y271057D01*
X55526Y271188D01*
X55576Y271320D01*
X55623Y271453D01*
X55665Y271588D01*
X55704Y271724D01*
X55739Y271861D01*
X55770Y271998D01*
X55797Y272137D01*
X55821Y272276D01*
X55840Y272416D01*
X55856Y272556D01*
X55868Y272697D01*
X55876Y272838D01*
X55880Y272979D01*
X55880Y273121D01*
X55876Y273262D01*
X55868Y273403D01*
X55856Y273544D01*
X55840Y273684D01*
X55821Y273824D01*
X55797Y273963D01*
X55770Y274102D01*
X55739Y274239D01*
X55704Y274376D01*
X55665Y274512D01*
X55623Y274647D01*
X55576Y274780D01*
X55526Y274912D01*
X55473Y275043D01*
X55416Y275172D01*
X55355Y275299D01*
X55291Y275425D01*
X55223Y275549D01*
X55152Y275671D01*
X55077Y275791D01*
X54999Y275909D01*
X54918Y276025D01*
X54834Y276138D01*
X54746Y276249D01*
X54656Y276357D01*
X54563Y276463D01*
X54466Y276566D01*
X54367Y276667D01*
X54265Y276765D01*
X54161Y276860D01*
X54053Y276952D01*
X53944Y277041D01*
X53831Y277126D01*
X53717Y277209D01*
X53600Y277289D01*
X53481Y277365D01*
X53360Y277438D01*
X53237Y277507D01*
X53113Y277573D01*
X52986Y277636D01*
X52858Y277695D01*
X52728Y277750D01*
X52596Y277802D01*
X52464Y277850D01*
X52329Y277894D01*
X52194Y277935D01*
X52058Y277972D01*
X51921Y278005D01*
X51782Y278034D01*
X51643Y278059D01*
X51504Y278081D01*
X51364Y278099D01*
X51223Y278112D01*
X51082Y278122D01*
X50941Y278128D01*
X50800Y278130D01*
D17*
X50800Y257048D02*
X101600Y257048D01*
M02*
