G04 EAGLE Gerber RS-274X export*
G75*
%MOMM*%
%FSLAX34Y34*%
%LPD*%
%INSolderpaste Top*%
%IPPOS*%
%AMOC8*
5,1,8,0,0,1.08239X$1,22.5*%
G01*
%ADD10R,1.200000X0.550000*%
%ADD11C,0.300000*%
%ADD12R,1.100000X1.000000*%
%ADD13R,1.000000X1.100000*%
%ADD14R,1.500000X0.250000*%
%ADD15R,0.250000X1.500000*%
%ADD16R,0.889000X0.812800*%
%ADD17R,1.500000X1.000000*%
%ADD18R,0.400000X1.850000*%
%ADD19R,0.660400X2.032000*%


D10*
X64789Y107920D03*
X64789Y98420D03*
X64789Y88920D03*
X90791Y88920D03*
X90791Y107920D03*
D11*
X136200Y26480D02*
X143200Y26480D01*
X143200Y19480D01*
X136200Y19480D01*
X136200Y26480D01*
X136200Y22330D02*
X143200Y22330D01*
X143200Y25180D02*
X136200Y25180D01*
X136200Y44020D02*
X143200Y44020D01*
X143200Y37020D01*
X136200Y37020D01*
X136200Y44020D01*
X136200Y39870D02*
X143200Y39870D01*
X143200Y42720D02*
X136200Y42720D01*
D12*
X45010Y107950D03*
X28010Y107950D03*
D13*
X108740Y106920D03*
X108740Y89920D03*
X139700Y106920D03*
X139700Y89920D03*
D12*
X118500Y222250D03*
X135500Y222250D03*
D13*
X123820Y106920D03*
X123820Y89920D03*
D14*
X33200Y198950D03*
X33200Y193950D03*
X33200Y188950D03*
X33200Y183950D03*
X33200Y178950D03*
X33200Y173950D03*
X33200Y168950D03*
X33200Y163950D03*
X33200Y158950D03*
X33200Y153950D03*
X33200Y148950D03*
X33200Y143950D03*
D15*
X48700Y128450D03*
X53700Y128450D03*
X58700Y128450D03*
X63700Y128450D03*
X68700Y128450D03*
X73700Y128450D03*
X78700Y128450D03*
X83700Y128450D03*
X88700Y128450D03*
X93700Y128450D03*
X98700Y128450D03*
X103700Y128450D03*
D14*
X119200Y143950D03*
X119200Y148950D03*
X119200Y153950D03*
X119200Y158950D03*
X119200Y163950D03*
X119200Y168950D03*
X119200Y173950D03*
X119200Y178950D03*
X119200Y183950D03*
X119200Y188950D03*
X119200Y193950D03*
X119200Y198950D03*
D15*
X103700Y214450D03*
X98700Y214450D03*
X93700Y214450D03*
X88700Y214450D03*
X83700Y214450D03*
X78700Y214450D03*
X73700Y214450D03*
X68700Y214450D03*
X63700Y214450D03*
X58700Y214450D03*
X53700Y214450D03*
X48700Y214450D03*
D16*
X142880Y176210D03*
X142880Y163510D03*
X142880Y188910D03*
X142880Y150810D03*
D11*
X16200Y26480D02*
X9200Y26480D01*
X16200Y26480D02*
X16200Y19480D01*
X9200Y19480D01*
X9200Y26480D01*
X9200Y22330D02*
X16200Y22330D01*
X16200Y25180D02*
X9200Y25180D01*
X9200Y44020D02*
X16200Y44020D01*
X16200Y37020D01*
X9200Y37020D01*
X9200Y44020D01*
X9200Y39870D02*
X16200Y39870D01*
X16200Y42720D02*
X9200Y42720D01*
D13*
X12700Y106920D03*
X12700Y89920D03*
X42860Y283600D03*
X42860Y300600D03*
X111120Y265680D03*
X111120Y248680D03*
D12*
X33900Y222250D03*
X16900Y222250D03*
D13*
X12700Y156140D03*
X12700Y139140D03*
X12700Y185180D03*
X12700Y202180D03*
D17*
X30160Y93550D03*
X30160Y71550D03*
D18*
X76200Y50300D03*
X69700Y50300D03*
X89200Y50300D03*
X82700Y50300D03*
X63200Y50300D03*
D19*
X57150Y242316D03*
X69850Y242316D03*
X82550Y242316D03*
X95250Y242316D03*
X95250Y303784D03*
X82550Y303784D03*
X69850Y303784D03*
X57150Y303784D03*
M02*
